STARTFONT 2.3
FONT -FontForge-Permanent Marker-Book-R-Normal--36-360-72-72-P-208-ISO10646-1
SIZE 36 72 72  4
FONTBOUNDINGBOX 56 52 -11 -12
COMMENT "Generated by fontforge, http://fontforge.sourceforge.net"
COMMENT "Copyright (c) 2010 by Font Diner, Inc. All rights reserved."
STARTPROPERTIES 40
FOUNDRY "FontForge"
FAMILY_NAME "Permanent Marker"
WEIGHT_NAME "Book"
SLANT "R"
SETWIDTH_NAME "Normal"
ADD_STYLE_NAME ""
PIXEL_SIZE 36
POINT_SIZE 360
RESOLUTION_X 72
RESOLUTION_Y 72
SPACING "P"
AVERAGE_WIDTH 208
CHARSET_REGISTRY "ISO10646"
CHARSET_ENCODING "1"
FONTNAME_REGISTRY ""
CHARSET_COLLECTIONS "ISO10646-1"
BITS_PER_PIXEL 4
FONT_NAME "PermanentMarker-Regular"
FACE_NAME "Permanent Marker Regular"
COPYRIGHT "Copyright (c) 2010 by Font Diner, Inc. All rights reserved."
FONT_VERSION "1.001"
FONT_ASCENT 29
FONT_DESCENT 7
UNDERLINE_POSITION -4
UNDERLINE_THICKNESS 2
X_HEIGHT 21
CAP_HEIGHT 25
RAW_ASCENT 799
RAW_DESCENT 200
NORM_SPACE 13
RELATIVE_WEIGHT 40
RELATIVE_SETWIDTH 50
SUPERSCRIPT_X 0
SUPERSCRIPT_Y 16
SUPERSCRIPT_SIZE 22
SUBSCRIPT_X 0
SUBSCRIPT_Y 4
SUBSCRIPT_SIZE 22
AVG_LOWERCASE_WIDTH 205
AVG_UPPERCASE_WIDTH 245
ENDPROPERTIES
CHARS 230
STARTCHAR space
ENCODING 32
SWIDTH 370 0
DWIDTH 13 0
BBX 1 1 0 0
BITMAP
00
ENDCHAR
STARTCHAR exclam
ENCODING 33
SWIDTH 260 0
DWIDTH 9 0
BBX 10 28 0 -1
BITMAP
0000002820
000003EFA0
00000BFFF5
00001EFFF9
00005FFFF7
00008FFFF8
0000DFFFF8
0000DFFFF3
0000FFFFE0
0003FFFFC0
000BFFFF90
000DFFFF70
001FFFFF40
003FFFFF20
005FFFFD00
006FFFF900
008FFFF500
006FFFD000
0005BB3000
0000000000
0000000000
0173000000
09FFFB1000
9FFFFF5000
CFFFFF3000
6FFFFD0000
2FFFF80000
04DD500000
ENDCHAR
STARTCHAR quotedbl
ENCODING 34
SWIDTH 492 0
DWIDTH 18 0
BBX 17 18 2 9
BITMAP
000087000000893000
0005FFF80002FFFB20
0009FFFF9006FFFFD0
001EFFFFE00BFFFFE0
007FFFFFA01FFFFF90
00BFFFFF305FFFFF40
00EFFFFC00AFFFFD00
03FFFFF701FFFFF700
06FFFFF205FFFFF200
0AFFFFE008FFFFC000
0DFFFFA00CFFFF9000
0EFFFF700FFFFF9000
0FFFFF403FFFFF2000
2FFFFE006FFFFC0000
0EFFFA006FFFF90000
06FFF4000DFFF60000
00BFC00004FFA00000
001510000065000000
ENDCHAR
STARTCHAR numbersign
ENCODING 35
SWIDTH 703 0
DWIDTH 25 0
BBX 25 26 1 0
BITMAP
0000000002C40000008B000000
000000000CFE100005FF800000
000000004FFF80000CFFF10000
000000009FFFE0002FFFF70000
00000000EFFFF3007FFFFA0000
00000003FFFFE100BFFFF70000
00000008FFFFB334FFFFF20000
00389ABEFFFFFFFFFFFFFEC400
00DFFFFFFFFFFFFFFFFFFFFE60
01FFFFFFFFFFFFFFFFFFFFFFE0
02FFFFFFFFFFFFFFFFFFFFDA40
00AFFEFFFFC666CFFFF5200000
000217FFFF6000EFFFE0000000
00000CFFFF1005FFFF90000000
00001FFFFD345AFFFF95000000
29AACFFFFFFFFFFFFFFFC30000
DFFFFFFFFFFFFFFFFFFFFF4000
EFFFFFFFFFFFFFFFFFFFFB1000
CFFFFFFFFFFFFFFFFCC9400000
5EEFFFFF7106FFFFD000000000
006FFFFD001DFFFF5000000000
00DFFFF6007FFFFE0000000000
04FFFFF300CFFFFA0000000000
06FFFFD000EFFFF50000000000
03FFFF9000BFFFE20000000000
004BF8000018EC200000000000
ENDCHAR
STARTCHAR dollar
ENCODING 36
SWIDTH 493 0
DWIDTH 18 0
BBX 19 28 1 -1
BITMAP
00000000000300000000
00000000005F80000000
0000000001DFF2000000
0000000005FFF7000000
000000000AFFFB000000
000000000EFFFE874000
00000014AFFFFFFFF700
000049EFFFFFFFFFFF20
019EFFFFFFFFFFFFFFB0
2EFFFFFFFFFEEFFFFF90
AFFFFFFFA53001000200
CFFFFFFF930000000000
CFFFFFFFFF9200000000
4EFFFFFFFFFB00000000
0269BDEFFFFF40000000
000000027DFFE2000000
0000000000BFF8000000
0000000006FFFA000000
000000029FFFF8000000
000004AFFFFFE1000000
05BCEFFFFFFF50000000
09FFFFFFFFE400000000
08FFFFFFFB1000000000
05FFFFFFF30000000000
0049FFFFA00000000000
0007FFFF600000000000
0003FFFD200000000000
000029A1000000000000
ENDCHAR
STARTCHAR percent
ENCODING 37
SWIDTH 643 0
DWIDTH 23 0
BBX 23 26 1 0
BITMAP
000000194000000000000420
000002EFE30000000001AF70
00006EFFF6000000002DFF70
0007FFFFF700000002DFFF50
006FFFFFFE1000001DFFFF20
03FFFFDFFF800001CFFFFB00
0BFFF71EFFD0001DFFFFC100
2FFFF7AFFFF300BFFFFB1000
4FFFFFFFFFF30BFFFFA00000
2FFFFFFFFFA1BFFFF9000000
08FFFFFFC61CFFFF80000000
0058996301CFFFF800000000
000000000BFFFF8000000000
00000001BFFFF90000000000
0000001CFFFF9005E6000000
000002DFFFF8007FFF400000
00003EFFFF700BFFFF400000
0004EFFFF601BFFFFF900000
003EFFFF600BFFFFFFF20000
01DFFFF5006FFFEAFFF90000
08FFFF5000DFFF21FFFE0000
0EFFFD0003FFFFBEFFFF2000
5FFFF60005FFFFFFFFFF1000
7FFFF40002EFFFFFFFE50000
7FFFB000005FFFFFD7200000
2ADA10000001455100000000
ENDCHAR
STARTCHAR ampersand
ENCODING 38
SWIDTH 599 0
DWIDTH 22 0
BBX 21 19 0 1
BITMAP
000000000002A900000000
00000000003EFF30000000
0000000000AFFFD1000000
0000020002FFFFF2000000
0007EFC307FFFFF0000000
009FFFFFACFFFFF2000000
06FFFFFFFFFFFFE0000000
4EFFFFFFFFFFFFFCB95000
BFFFF5EFFFFFFFFFFFF900
9FFFFFFFFFFFFFFFFFFFB0
6FFFFFFFFFFFFFFFFFFFB0
05EFFFFFFFFFFEDDBA7400
0017BBBFFFFFF900000000
00000007FFFFF600000000
00000008FFFFF200000000
0000000AFFFFD000000000
0000000BFFFF8000000000
00000008FFFD1000000000
0000000038820000000000
ENDCHAR
STARTCHAR quotesingle
ENCODING 39
SWIDTH 265 0
DWIDTH 10 0
BBX 9 18 2 9
BITMAP
0000870000
0005FFF800
0009FFFF90
001EFFFFE0
007FFFFFA0
00BFFFFF30
00EFFFFC00
03FFFFF700
06FFFFF200
0AFFFFE000
0DFFFFA000
0EFFFF7000
0FFFFF4000
2FFFFE0000
0EFFFA0000
06FFF40000
00BFC00000
0015100000
ENDCHAR
STARTCHAR parenleft
ENCODING 40
SWIDTH 361 0
DWIDTH 13 0
BBX 16 38 1 -7
BITMAP
0000000000000233
0000000000005EFE
000000000006FFFC
00000000007FFFFA
0000000009FFFFFB
00000000AFFFFFF8
0000000AFFFFFFF3
0000009FFFFFFF80
000006FFFFFFD400
00002EFFFFFC1000
0000BFFFFFD10000
0006FFFFFF300000
001EFFFFF7000000
007FFFFFE1000000
00DFFFFF80000000
02FFFFFB00000000
05FFFFF600000000
07FFFFF200000000
09FFFFB000000000
0EFFFF7000000000
4EFFFF2000000000
AFFFFE0000000000
BFFFFC0000000000
BFFFFA0000000000
BFFFFB0000000000
CFFFFB0000000000
DFFFFC0000000000
DFFFFE0000000000
BFFFFF2000000000
7FFFFF4000000000
4FFFFF9000000000
1FFFFFD000000000
0CFFFFD000000000
02EFFFA000000000
004FFFA000000000
0007FFE100000000
0000BFF100000000
0000025000000000
ENDCHAR
STARTCHAR parenright
ENCODING 41
SWIDTH 361 0
DWIDTH 13 0
BBX 17 38 -5 -7
BITMAP
000000000140000000
0000000006FE600000
0000000006FFE20000
0000000000FFFC1000
0000000000FFFFA000
0000000003FFFFF600
0000000004FFFFFB00
0000000000EFFFFD00
0000000000AFFFFF20
00000000008FFFFF50
00000000005FFFFF80
00000000003FFFFF70
00000000002FFFFF70
00000000001FFFFF60
00000000001FFFFF60
00000000002FFFFF60
00000000004FFFFF40
00000000007FFFFB20
0000000000CFFFF900
0000000001FFFFF400
0000000007FFFFF200
000000000CFFFFF000
000000002EFFFFC000
00000000CFFFFF8000
00000005FFFFFF2000
0000000CFFFFFA0000
0000007FFFFFF20000
000004FFFFFF700000
00004EFFFFFC000000
0006EFFFFFE2000000
01BFFFFFFF50000000
08FFFFFFF600000000
0DFFFFFF7000000000
2FFFFFE60000000000
0FFFFE300000000000
2FFFD3000000000000
4FFD20000000000000
045100000000000000
ENDCHAR
STARTCHAR asterisk
ENCODING 42
SWIDTH 673 0
DWIDTH 24 0
BBX 24 19 2 8
BITMAP
000000002100000001000000
0000002AFB0000047EE10000
000001DFFF70009FFFD00000
000007FFFFF309FFFF600000
000008FFFFFEBFFFFD000000
000002DFFFFFFFFFF4000000
0000002EFFFFFFFF90000000
0012358DFFFFFFFFFEDC9300
1DFFFFFFFFFFFFFFFFFFFE60
2FFFFFFFFFFFFFFFFFFFFFF5
2FFFFFFFFFFFFFFFFFFFFC81
08FFFFFFFFFFFFFFA4320000
0058526FFFFFFFFFD0000000
000000DFFFFDFFFFF5000000
000007FFFFF2AFFFFA000000
00002EFFFF901EFFFC000000
0000BFFFFF2004FFF7000000
00009EFFF600006FF5000000
000001551000000350000000
ENDCHAR
STARTCHAR plus
ENCODING 43
SWIDTH 579 0
DWIDTH 21 0
BBX 19 20 0 0
BITMAP
00000000000100000000
0000000003DE10000000
000000003EFF80000000
000000007FFFF5000000
00000001DFFFF4000000
00000004FFFFF2000000
00000009FFFFF5000000
0000000BFFFFF3000000
1689BEFFFFFFFFFEA300
6FFFFFFFFFFFFFFFFD40
5FFFFFFFFFFFFFFFFFF0
2FFFFFFFFFFFFFFFFFA0
09FFFFFFFFFE98764100
006732FFFFFB00000000
000003FFFFF800000000
000006FFFFF400000000
000007FFFFE000000000
000008FFFF9000000000
000003CFFD1000000000
00000004510000000000
ENDCHAR
STARTCHAR comma
ENCODING 44
SWIDTH 204 0
DWIDTH 7 0
BBX 9 13 -4 -7
BITMAP
0000100000
0007E93000
000EFFFD10
003FFFFF40
007FFFFF60
00BFFFFF30
02FFFFFE00
08FFFFF700
2EFFFFD000
CFFFFF5000
9FFFFB0000
05DF900000
0002000000
ENDCHAR
STARTCHAR hyphen
ENCODING 45
SWIDTH 609 0
DWIDTH 22 0
BBX 20 7 0 6
BITMAP
00000000112333100000
0478ADFFFFFFFFFFC600
1EFFFFFFFFFFFFFFFF70
0EFFFFFFFFFFFFFFFFF5
0CFFFFFFFFFFFFFFFFC3
04FFFFECBAA999764200
00374100000000000000
ENDCHAR
STARTCHAR period
ENCODING 46
SWIDTH 228 0
DWIDTH 8 0
BBX 7 7 -1 -1
BITMAP
01730000
0BFFEA10
AFFFFF40
DFFFFF20
8FFFFC00
3FFFF700
05ED4000
ENDCHAR
STARTCHAR slash
ENCODING 47
SWIDTH 401 0
DWIDTH 14 0
BBX 20 27 -2 -1
BITMAP
00000000000000000770
0000000000000000BFE0
000000000000000AFFF2
000000000000007FFFF2
00000000000004FFFFF1
0000000000002EFFFFD0
000000000000DFFFFE30
000000000007FFFFF500
00000000004FFFFF6000
0000000002EFFFF80000
000000001DFFFFA00000
00000000BFFFFC000000
00000007FFFFD1000000
0000004FFFFF30000000
000003EFFFF700000000
00002EFFFF9000000000
0001DFFFFB0000000000
001CFFFFD10000000000
00AFFFFE200000000000
05FFFFF4000000000000
0BFFFF60000000000000
0EFFFD00000000000000
2FFFFB00000000000000
3FFFF900000000000000
1FFFF900000000000000
0AFFE100000000000000
00362000000000000000
ENDCHAR
STARTCHAR zero
ENCODING 48
SWIDTH 686 0
DWIDTH 25 0
BBX 24 29 0 -1
BITMAP
000000000000000510000000
00000000000000AFE2000000
0000000000005CFFFB100000
000000000003EFFFFFA00000
00000000002FFFFFFFF50000
0000000004EFFFFFFFF70000
000000006FFFFFFFFFE10000
00000004FFFFFFFFFFF20000
0000004EFFFFFFFFFFF60000
000004FFFFFFFFFFFFFC0000
00001EFFFFFFFFCFFFFF4000
0000BFFFFFFF450BFFFFB000
0006FFFFFFF40005FFFFF300
001EFFFFFF500000DFFFFA00
009FFFFFF80000006FFFFF20
02FFFFFFA00000001EFFFF60
08FFFFFF2000000009FFFF80
0DFFFFF90000000007FFFFD0
2FFFFFF2000000000AFFFFF2
4FFFFFA0000000007FFFFFF4
6FFFFF600000003CFFFFFFF3
7FFFFF7000015AFFFFFFFFF1
6FFFFFFCBBEFFFFFFFFFFFA0
3FFFFFFFFFFFFFFFFFFFFC20
0CFFFFFFFFFFFFFFFFFF9000
04FFFFFFFFFFFFFFFFF90000
008FFFFFFFFFFFFFE9400000
0007FFFFFFFFFFD810000000
000027A9BCB8310000000000
ENDCHAR
STARTCHAR one
ENCODING 49
SWIDTH 322 0
DWIDTH 12 0
BBX 10 28 0 -1
BITMAP
0000510000
0006FD3000
000AFFD200
000DFFFE40
000CFFFFC0
000BFFFFF2
0009FFFFF5
0003FFFFF7
0000FFFFF9
0000DFFFFB
0000DFFFFC
0000EFFFFB
0002FFFFFA
0005FFFFF9
000AFFFFF6
000EFFFFF3
005FFFFFE0
00AFFFFFB0
01FFFFFF70
05FFFFFF20
09FFFFFD00
0DFFFFF900
1FFFFFF200
3FFFFFB000
1EFFFF9000
0BFFFF6000
02EFF80000
0011200000
ENDCHAR
STARTCHAR two
ENCODING 50
SWIDTH 650 0
DWIDTH 23 0
BBX 24 28 2 -1
BITMAP
000000122210000000000000
0269CEFFFFFEB82000000000
1DFFFFFFFFFFFFFA20000000
7FFFFFFFFFFFFFFFA0000000
7FFFFFFFFFFFFFFFF5000000
6FFFFFFFFFFFFFFFFF800000
4FFFFFFFFFFFFFFFFFF20000
0AEFFFC86546DFFFFFF70000
000340000008FFFFFFF80000
0000000001BFFFFFFFF20000
000000001CFFFFFFFF700000
00000004DFFFFFFFF9000000
0000007FFFFFFFFF80000000
000008FFFFFFFFF700000000
00008FFFFFFFFD3000000000
0006FFFFFFFF910000000000
004FFFFFFFFB000000000000
03EFFFFFFF70000000000000
2DFFFFFFE300000000379600
8FFFFFFE3000148BDEFFFF60
BFFFFFFDABDFFFFFFFFFFFB0
CFFFFFFFFFFFFFFFFFFFFFF5
CFFFFFFFFFFFFFFFFFFFFFF7
BFFFFFFFFFFFFFFFFFFFFFA1
7FFFFFFFFFFFFFFFFFEC6000
1DFFFFFFFFFFFEB852000000
027BDFFECA74100000000000
000000100000000000000000
ENDCHAR
STARTCHAR three
ENCODING 51
SWIDTH 561 0
DWIDTH 20 0
BBX 21 26 -1 0
BITMAP
000000002578ABCCBB3000
000269CEFFFFFFFFFFD100
01DFFFFFFFFFFFFFFFFA00
0DFFFFFFFFFFFFFFFFFF40
1EFFFFFFFFFFFFFFFFFFB0
4FFFFFFFFFFFFFFFFFFFA0
5FFFFFFFFFFFFFFFFFFF30
2FFFFFFFFFFFFFFFFFE600
048A73DFFFFFFFFFFB1000
000007FFFFFFFFFD600000
00000BFFFFFFFF80000000
00000DFFFFFFFFE6000000
00000FFFFFFFFFFF900000
00000AFFFFFFFFFFF90000
000001AFFFFFFFFFFF4000
000000028DFFFFFFFFD000
000000000038EFFFFFF500
00000000000019FFFFFA00
0000000000016EFFFFFA00
0008555679CFFFFFFFF900
005FFFFFFFFFFFFFFFF300
00AFFFFFFFFFFFFFFF7000
00DFFFFFFFFFFFFFE60000
03FFFFFFFFFFFFF8300000
02EFFFFFFFFFC820000000
0039AABA87510000000000
ENDCHAR
STARTCHAR four
ENCODING 52
SWIDTH 582 0
DWIDTH 21 0
BBX 20 30 1 -2
BITMAP
00000000000001000000
0000000000007E300000
000000000000EFD10000
000000000003FFF80000
007100000005FFFE1000
09FA00000007FFFF5000
2FFFA000000AFFFF3000
3FFFE100000BFFFF1000
2FFFF700000BFFFF0000
0FFFFD00000DFFFF0000
0CFFFF10000FFFFF3640
0AFFFF60005FFFFFFFC0
07FFFFFEFEFFFFFFFFF8
05FFFFFFFFFFFFFFFFF8
02FFFFFFFFFFFFFFFFF7
00DFFFFFFFFFFFFFFF80
002EFFFFFFFFFFFC6100
0003BEFFFFFFFE400000
00000013BFFFFA000000
00000000DFFFF5000000
00000001FFFFE0000000
00000003FFFFA0000000
00000005FFFF50000000
00000007FFFF60000000
00000005FFFFB0000000
00000002FFFFF6000000
00000000CFFFFC000000
000000005FFFFA000000
0000000009FFD4000000
00000000001000000000
ENDCHAR
STARTCHAR five
ENCODING 53
SWIDTH 580 0
DWIDTH 21 0
BBX 23 26 1 0
BITMAP
000000005B20000000000000
0000005DFFD2000000000000
00003CFFFFFE756789ADB300
0005EFFFFFFFFFFFFFFFFA00
007FFFFFFFFFFFFFFFFFFF30
05FFFFFFFFFFFFFFFFFFFF90
0DFFFFFFFFFFFFFFFFFFFFB0
0FFFFFFFFFFFFFFFFFFFFB40
1FFFFFFFFFFFFFDA96431000
2FFFFFFFFFA6410000000000
2FFFFFFFFD20000000000000
0CFFFFFFFFF9100000000000
03FFFFFFFFFFC10000000000
006EFFFFFFFFFA0000000000
00018EFFFFFFFF7000000000
0000016CFFFFFFF500000000
000000001BFFFFFB00000000
00000000003EFFFF40000000
00000000005EFFFFA0000000
07A987678BFFFFFFC0000000
2FFFFFFFFFFFFFFFB0000000
1FFFFFFFFFFFFFFF70000000
0AFFFFFFFFFFFFFC00000000
01EFFFFFFFFFFFD200000000
004EFFFFFFFFE92000000000
0001467BB865000000000000
ENDCHAR
STARTCHAR six
ENCODING 54
SWIDTH 500 0
DWIDTH 18 0
BBX 18 28 -1 -1
BITMAP
000000000000200000
00000000038EFA0000
000000005FFFFF4000
00000004FFFFFF7000
0000001DFFFFFFD100
0000009FFFFFFFF400
000002FFFFFFFF8000
00000BFFFFFE610000
00004FFFFFE3000000
0000BFFFFF50000000
0001EFFFFB00000000
0007FFFFF300000000
001EFFFFC000000000
006FFFFF7001563000
00DFFFFE219EFFF900
02FFFFF73EFFFFFF70
05FFFFE1DFFFFFFFD2
0BFFFF88FFFFFFFFFB
0EFFFF3EFFFFFFFFFD
4FFFFE1FFFFFFFFFFE
3FFFFA5FFFFFFFFFFD
4FFFFFFFFFFFFFFFF5
5FFFFFFFFFFFFFFF90
4FFFFFFFFFFFFFF900
1FFFFFFFFFFFFF6000
08FFFFFFFFFF820000
009FFFFFC741000000
000267620000000000
ENDCHAR
STARTCHAR seven
ENCODING 55
SWIDTH 576 0
DWIDTH 21 0
BBX 23 26 0 0
BITMAP
007ADEDDC973200000000000
0CFFFFFFFFFFFC6100000000
5FFFFFFFFFFFFFF900000000
5FFFFFFFFFFFFFFF30000000
8FFFFFFFFFFFFFFFD3000000
7FFFFFFFFFFFFFFFFA000000
0BCA8779BCEFFFFFFC000000
000000000004DFFFFD000000
0000000000004FFFFC000000
0000000000003FFFFB000000
0000000000009FFFFA000000
000000000001DFFFFD867400
000013568DFFFFFFFFFFFE30
0008EFFFFFFFFFFFFFFFFE20
005FFFFFFFFFFFFFFFFFFF50
008FFFFFFFFFFFFFFFFFF800
009FFFFFFFFFFFFFFC974000
002FFFFFFFFFFFB200000000
0002BCACFFFFFF1000000000
0000000DFFFFF60000000000
0000004FFFFFA00000000000
0000009FFFFE200000000000
000000DFFFF9000000000000
000000FFFFF2000000000000
000000BFFFB0000000000000
0000008CDE30000000000000
ENDCHAR
STARTCHAR eight
ENCODING 56
SWIDTH 537 0
DWIDTH 19 0
BBX 20 28 2 -1
BITMAP
00000023310000000000
00005CFFFFC4000CA000
000AFFFFFFFD007FF900
01CFFFFFFFFF70DFFF10
09FFFFFFFFFFE1EFFF70
2FFFFFFFFFFFF38FFFB0
6FFFFFEBEFFFF37FFFE0
AFFFFC107FFFE6EFFFF1
CFFFF70019EFFFFFFFE0
CFFFFA00005EFFFFFF70
8FFFFF917DFFFFFFFB00
2FFFFFFFFFFFFFFFB100
09FFFFFFFFFFFFF70000
01DFFFFFFFFFFD400000
008FFFFFFFFD51000000
01FFFFFFFFF400000000
07FFFFFFFFF700000000
0DFFFFFFFFFC00000000
1FFFFA3DFFFF30000000
2FFFF403FFFF80000000
2FFFF600BFFFD0000000
1FFFFEA9FFFFF1000000
0EFFFFFFFFFFD1000000
06FFFFFFFFFFA0000000
00DFFFFFFFFF50000000
005FFFFFFFFA00000000
0003BFFFFD4000000000
00000246400000000000
ENDCHAR
STARTCHAR nine
ENCODING 57
SWIDTH 529 0
DWIDTH 19 0
BBX 19 28 1 -1
BITMAP
00000000001320000000
000000028DFFF7000000
0000019FFFFFFF600000
00003DFFFFFFFFF30000
0005FFFFFFFFFFFC0000
006FFFFFFFFFFFFF7000
02EFFFFFFFCDFFFFD000
09FFFFFFB300DFFFF100
1FFFFFF7037CFFFFF400
5FFFFFFEFFFFFFFFFD00
8FFFFFFFFFFFFFFFFF50
8FFFFFFFFFFFFFFFFE20
6FFFFFFFFFFFFFFFE400
1DFFFFFFFFFFFFFF5000
03AEFFFEB98FFFFD0000
00013420002FFFF60000
00000000006FFFF30000
00000000009FFFF10000
0000000000DFFFD00000
0000000001FFFFA00000
0000000004FFFF600000
0000000007FFFF300000
0000000009FFFF100000
000000000BFFFE000000
000000000CFFFB000000
000000000DFFF5000000
000000000CFFD0000000
00000000028630000000
ENDCHAR
STARTCHAR colon
ENCODING 58
SWIDTH 241 0
DWIDTH 9 0
BBX 9 17 -1 -1
BITMAP
0005860000
007FFFD500
00BFFFFF00
00EFFFFE00
00BFFFFF10
002FFFF910
0008FC3000
0000200000
0000000000
0000000000
0173000000
0BFFEA1000
AFFFFF4000
DFFFFF2000
8FFFFC0000
3FFFF70000
05ED400000
ENDCHAR
STARTCHAR semicolon
ENCODING 59
SWIDTH 245 0
DWIDTH 9 0
BBX 11 23 -3 -7
BITMAP
000004770000
00005FFFD600
00009FFFFF20
0000CFFFFF10
00009FFFFF30
00001EFFFA20
000006FD4000
000000100000
000000000000
000000000000
000010000000
0006EA400000
000DFFFD1000
001FFFFF6000
006FFFFF8000
00AFFFFF4000
01EFFFFF0000
07FFFFF80000
1EFFFFE10000
AFFFFF600000
8FFFFC100000
05DFA1000000
000300000000
ENDCHAR
STARTCHAR less
ENCODING 60
SWIDTH 625 0
DWIDTH 23 0
BBX 23 18 0 0
BITMAP
000000000000000000010000
00000000000000004BFFC300
000000000000004CFFFFFF10
0000000000005CFFFFFFFF10
00000000038EFFFFFFFFF900
00000138EFFFFFFFFFFC3000
02538FFFFFFFFFFFFB400000
5FFFFFFFFFFFFFD820000000
EFFFFFFFFFFE940000000000
CFFFFFFFFD50000000000000
3FFFFFFFFFC7200000000000
03CFFFFFFFFFFC6000000000
0006DFFFFFFFFFFD50000000
000005CFFFFFFFFFF5000000
000000028EFFFFFFFD400000
000000000047BFFFFFE00000
000000000000015AEF900000
000000000000000001000000
ENDCHAR
STARTCHAR equal
ENCODING 61
SWIDTH 586 0
DWIDTH 21 0
BBX 20 14 0 3
BITMAP
00000000000001100000
002568ADDEEFFFFEDB60
01CFFFFFFFFFFFFFFFF6
01FFFFFFFFFFFFFFFFFF
04FFFFFFFFFFFFFFFFD6
01EFFFDBA99988754200
00263000000000000000
00000000000000000000
01235689BCDDEEEE5000
4FFFFFFFFFFFFFFFF800
9FFFFFFFFFFFFFFFFB00
9FFFFFFFFFFFFFFFA100
6FFFFEB9879644420000
06531000000000000000
ENDCHAR
STARTCHAR greater
ENCODING 62
SWIDTH 634 0
DWIDTH 23 0
BBX 23 17 -2 1
BITMAP
000002000000000000000000
0002CFEA5100000000000000
0003FFFFFEB8400000000000
00006FFFFFFFFE6200000000
000009FFFFFFFFFFB4000000
0000007EFFFFFFFFFFC50000
000000017DFFFFFFFFFF9200
000000000038DFFFFFFFFE10
0000000000028FFFFFFFFF80
0000000016BFFFFFFFFFFF90
0000005BFFFFFFFFFFFFFD20
00017EFFFFFFFFFFFC523000
007EFFFFFFFFFFC410000000
3DFFFFFFFFFB510000000000
5FFFFFFFF930000000000000
5FFFFFF92000000000000000
05DFD8200000000000000000
ENDCHAR
STARTCHAR question
ENCODING 63
SWIDTH 556 0
DWIDTH 20 0
BBX 22 29 1 -2
BITMAP
0000025666532000000000
00006EFFFFFFFEB8410000
0007FFFFFFFFFFFFFFB610
005FFFFFFFFFFFFFFFFFC1
00EFFFFFFFFFFFFFFFFFF2
00CFFFFFFFFFFFFFFFFFF1
008FFFEEDEFFFFFFFFFFF2
0005A610001469FFFFFFF1
0000000000001BFFFFFFC0
000000000003DFFFFFFF60
00000000019FFFFFFFFC00
000000005EFFFFFFFFC100
00000008FFFFFFFFF80000
000000BFFFFFFFF7100000
00001BFFFFFFFB30000000
00009FFFFFFD8000000000
0001DFFFFD800000000000
0004FFFFD1000000000000
0001DFFD20000000000000
0000002100000000000000
0000000000000000000000
0056300000000000000000
09FFFB1000000000000000
0EFFFFA000000000000000
2FFFFF9000000000000000
1DFFFFB000000000000000
05FFFD6000000000000000
00AF910000000000000000
0001000000000000000000
ENDCHAR
STARTCHAR at
ENCODING 64
SWIDTH 732 0
DWIDTH 26 0
BBX 27 28 -1 -1
BITMAP
0000000000000069685000000000
00000000000004FFFFFC20000000
00000000000005FFFFFFE5000000
0000000000000AFFFFFFFF500000
0000000000006FFFFFFFFFA00000
000000000008FFFFFFEFFFF30000
0000000003DFFFFFA11BFFFD1000
000000005FFFFFE60001DFFF9000
0000000AFFFFFC2000114FFFF200
000002AFFFFFA10002DD1AFFFA00
00003EFFFFF7002BEEFF33FFFF30
0003EFFFFF6007EFFFFF40BFFF80
003EFFFFF603CFFFFFFF105FFF90
00CFFFFF707FFFFFFFFC005FFF90
06FFFFF807FFFFFAFFF8005FFF80
0DFFFFC04FFFFD35FFF6008FFF50
3FFFFF20CFFFF204FFF700AFFF30
5FFFF900EFFFF98AFFFD39FFF900
1FFFF200AFFFFFFFFFFFFFFF9000
0FFFB0003FFFFFFFFFFFFFF80000
0EFF600005EFFFFFFFEDFD400000
0BFFD83000168998741000000000
06FFFFF810000000000010000000
008FFFFFFC8776555679D4000000
0006EFFFFFFFFFFFFFFFFE100000
00002BFFFFFFFFFFFFFFFFC00000
0000003AFFFFFFFFFFFFFFB00000
0000000002568AAABBBA84000000
ENDCHAR
STARTCHAR A
ENCODING 65
SWIDTH 702 0
DWIDTH 25 0
BBX 27 27 -1 -1
BITMAP
000000000000007B610000000000
00000000000003FFFFC300000000
0000000000001DFFFFFA00000000
000000000002CFFFFFFC00000000
00000000289EFFFFFFFF00000000
00000000CFFFFFFFFFFF20000000
00000006FFFFFFFFFFFF30000000
0000000DFFFFFFFFFFFF70000000
0000006FFFFFFFFFFFFFA0000000
000001EFFFFFFF9FFFFFD0000000
000006FFFFFFF61FFFFFF1000000
00000BFFFFFF900CFFFFF4000000
00003FFFFFFD1009FFFFF9020000
0000BFFFFFF50005FFFFFFFE4000
0003FFFFFFA12469FFFFFFFFFB20
000AFFFFFFFFFFFFFFFFFFFFFE20
002FFFFFFFFFFFFFFFFFFFFFF500
009FFFFFEEFFFFFFFFFFFFFC3000
01FFFFFF9BFFFFFFFFFFFFF40000
08FFFFFE05FFFFFEBDFFFFF60000
0EFFFFF60068762006FFFFF80000
5FFFFFF1000000002CFFFFF80000
AFFFFFA00000000BFFFFFFF40000
4FFFFF7000000004EFFFFFB00000
1EFFFE30000000008FFFFD100000
03DFC200000000004DFFA1000000
0012000000000000014200000000
ENDCHAR
STARTCHAR B
ENCODING 66
SWIDTH 686 0
DWIDTH 25 0
BBX 25 28 -1 -1
BITMAP
00000000000122455100000000
000000136ADFFFFFFEE6000000
00038DFFFFFFFFFFFFFFB10000
02BFFFFFFFFFFFFFFFFFFD2000
4FFFFFFFFFFFFFFFFFFFFFC000
EFFFFFFFFFFFFFEDDFFFFFF400
BFFFFFFFFFD84101BFFFFFF700
3FFFFFFFF800000BFFFFFFF400
05FFFE8FFF7002CFFFFFFFC000
003CE83FFFF89FFFFFFFFF3000
0000007FFFFFFFFFFFFFF50000
000000CFFFFFFFFFFFFF600000
000000EFFFFFFFFFFFF8000000
000005FFFFFFFFFFFFFC100000
000009FFFFFFFFFFFFFFD30000
00000CFFFFFFFFFDDFFFFE4000
00001FFFFFFB7410016DFFE300
00007FFFFFD00000000CFFFD00
0000CFFFFF70000002CFFFFF40
0003FFFFFF2000005DFFFFFF70
0007FFFFFC00017EFFFFFFFF90
000DFFFFF714AFFFFFFFFFFE20
001DFFFFFDFFFFFFFFFFFFF400
004FFFFFFFFFFFFFFFFFFD5000
001EFFFFFFFFFFFFFFFE700000
0009FFFFFFFFFFFFFD71000000
0001DFFCEFFFFFB74000000000
00001991289B83000000000000
ENDCHAR
STARTCHAR C
ENCODING 67
SWIDTH 611 0
DWIDTH 22 0
BBX 22 27 0 -1
BITMAP
0000000000000008BB3000
00000000000006DFFFF600
000000000005BFFFFFFF80
0000000003CFFFFFFFFFF3
000000028FFFFFFFFFFFF3
0000008FFFFFFFFFFFFFD0
00000BFFFFFFFFFFFFFE30
0002CFFFFFFFFFFFFC7100
001DFFFFFFFFFFC6100000
00CFFFFFFFFFD400000000
09FFFFFFFFFB1000000000
3FFFFFFFFB300000000000
AFFFFFFF70000000000000
FFFFFFF600000000000000
EFFFFF6000000000000000
EFFFFC0000000000000000
CFFFF50000000000000000
9FFFF70000000000000000
6FFFFD3000000000000000
1FFFFFFEB8754332210000
0AFFFFFFFFFFFFFFFFA000
02EFFFFFFFFFFFFFFFF900
004EFFFFFFFFFFFFFFFF20
0001AFFFFFFFFFFFFFFF30
000007CFFFFFFFFFFFE400
0000000148ADEFECCB2000
0000000000000100000000
ENDCHAR
STARTCHAR D
ENCODING 68
SWIDTH 588 0
DWIDTH 21 0
BBX 21 28 0 -1
BITMAP
0001000000000000000000
004E940000000000000000
009FFFC610000000000000
00AFFFFFE9400000000000
006FFFFFFFFD4000000000
005FFFFFFFFFF800000000
00EFFFFFFFFFFFC2000000
00DFFFBCFFFFFFFE500000
00AFFF9039DFFFFFF60000
007FFFD00005DFFFFF5000
005FFFF1000007FFFFE200
004FFFF20000008FFFFA00
003FFFF300000007FFFF10
004FFFF400000000DFFF60
005FFFF400000005FFFF80
00BFFFF30000004EFFFF90
00FFFFF2000029FFFFFF70
03FFFFE0003AFFFFFFFE10
07FFFFC027EFFFFFFFF400
0CFFFFDBFFFFFFFFFF5000
1FFFFFFFFFFFFFFFE50000
6FFFFFFFFFFFFFFB200000
6FFFFFFFFFFFFE60000000
4FFFFFFFFFFD7100000000
1FFFFFFFFC500000000000
0CFFFFFA30000000000000
03EFE82000000000000000
0014000000000000000000
ENDCHAR
STARTCHAR E
ENCODING 69
SWIDTH 626 0
DWIDTH 23 0
BBX 24 27 0 -1
BITMAP
000000000000002468ACC500
000000000269CFFFFFFFFF81
00000269DFFFFFFFFFFFFFF7
0004CFFFFFFFFFFFFFFFFFF5
004FFFFFFFFFFFFFFFFFFF90
006FFFFFFFFFFFFFFFFFC400
003FFFFFFFFFFFFD96410000
001FFFFFFFFEB93000000000
000BFFFFFD30000000000000
0004FFFFFE11123430000000
0001EFFFFFFFFFFFD2000000
0006FFFFFFFFFFFFFD400000
000DFFFFFFFFFFFFFFF50000
006FFFFFFFFFFFFFFFE30000
00CFFFFFFFFFFFFFFA100000
05FFFFFFEFFFFFFB40000000
0DFFFFFE1132120000000000
5FFFFFF50000000000000000
9FFFFFD00000000003400000
9FFFFF600013456BEFF70000
8FFFFFFEEFFFFFFFFFFF9000
5FFFFFFFFFFFFFFFFFFFF300
3FFFFFFFFFFFFFFFFFFFE100
0DFFFFFFFFFFFFFFFFFE3000
03FFFFFFFFFFFFFFFFA20000
003BFFFFFFFDDCA740000000
000003443200000000000000
ENDCHAR
STARTCHAR F
ENCODING 70
SWIDTH 575 0
DWIDTH 21 0
BBX 27 28 -1 -1
BITMAP
0000000000000000002466510000
0000000000000159CFFFFFFE3000
000000000038BFFFFFFFFFFFF500
000000049DFFFFFFFFFFFFFFFF40
000049EFFFFFFFFFFFFFFFFFFF80
000AFFFFFFFFFFFFFFFFFFFEEC30
000EFFFFFFFFFFFFDA7531000000
000DFFFFFFFFFA51000000000000
0005FFFFFFFF6000000000000000
0000AFFFFFFF3000000000000000
000004FFFFFD0000000000000000
000002FFFFF80000000000000000
000007FFFFF40000000000000000
017A2DFFFFF3468ACDD500000000
2DFFFFFFFFFFFFFFFFFD20000000
8FFFFFFFFFFFFFFFFFFF90000000
9FFFFFFFFFFFFFFFFFFE20000000
5FFFFFFFFFFFFFFFFFF500000000
0CFFFFFFFFFFFFDA854000000000
02CFFFFFEB962000000000000000
009FFFFF30000000000000000000
00DFFFFB00000000000000000000
02FFFFF500000000000000000000
03FFFFE000000000000000000000
01FFFFF100000000000000000000
008FFFE000000000000000000000
000BFF6000000000000000000000
0000230000000000000000000000
ENDCHAR
STARTCHAR G
ENCODING 71
SWIDTH 789 0
DWIDTH 28 0
BBX 30 28 0 -1
BITMAP
000000000000000001000000000000
00000000000000004EF40000000000
0000000000000019FFFFA200000000
00000000000006EFFFFFFE20000000
000000000003CFFFFFFFFF40000000
00000000008FFFFFFFFFFF50000000
000000002CFFFFFFFFFFFD30000000
00000003DFFFFFFFFFFE7100000000
0000004FFFFFFFFFFE710000000000
000004EFFFFFFFFF81000000000000
00005FFFFFFFFFB200000000000000
0004FFFFFFFFF60000039200000000
002EFFFFFFFE4000008FFE71000000
00CFFFFFFFD200000AFFFFFE700000
06FFFFFFFC10000006FFFFFFFD4000
1EFFFFFFD100000004FFFFFFFFF700
8FFFFFFE2000000000CFFFFFFFFF80
DFFFFFF300000000004FFFFFFFFFF9
EFFFFF7000000000015DFFFFFFFFFC
AFFFFB0000000258CFFFFFFFFFFFF9
9FFFFC56655CEFFFFFFFFFFFFFFFC1
6FFFFFFFFFFFFFFFFFFFFFFFFFFA10
1FFFFFFFFFFFFFFFFFFFFFFFFD5000
0AFFFFFFFFFFFFFFFFFFFFE9400000
01EFFFFFFFFFFFFFFFFB7300000000
002DFFFFFFFFFFFEA5100000000000
00017CFFECC9632000000000000000
000000010000000000000000000000
ENDCHAR
STARTCHAR H
ENCODING 72
SWIDTH 695 0
DWIDTH 25 0
BBX 26 28 -1 -1
BITMAP
00000000000000000000170000
00000023000000000000CF6000
000003EB000000000005FFD000
00000CFF400000000008FFF500
00002FFFD10000000009FFFC00
00006FFFFA0000000008FFFF90
00008FFFFF500000002EFFFFF1
0000AFFFFFA00000003FFFFFF2
0000BFFFFF900000003FFFFFF3
0000DFFFFF700000004FFFFFF4
0000EFFFFF500000006FFFFFF4
0001FFFFFF200000009FFFFFF4
0006FFFFFE00000000BFFFFFF1
0008FFFFFC00000027EFFFFFC0
0009FFFFF900148CFFFFFFFF90
000DFFFFFDADFFFFFFFFFFFF60
006FFFFFFFFFFFFFFFFFFFFF30
009FFFFFFFFFFFFFFFFFFFFE00
00BFFFFFFFFFFFFFFFFFFFF700
02FFFFFFFFFFFFFFFFFFFFF100
08FFFFFFFFFFE830EFFFFF8000
0AFFFFFFFFD60001FFFFFF6000
1EFFFFFFE6000003FFFFFF8000
3FFFFFFFA0000002FFFFFF9000
0CFFFFFF30000000BFFFFF4000
07FFFFF8000000001DFFF90000
009FFFA20000000005DB400000
00056300000000000000000000
ENDCHAR
STARTCHAR I
ENCODING 73
SWIDTH 515 0
DWIDTH 19 0
BBX 26 28 -2 -1
BITMAP
00000000000000011221000000
0000001456ADEEFFFFFFED9300
000000CFFFFFFFFFFFFFFFFE10
000001EFFFFFFFFFFFFFFFFFF2
000000CFFFFFFFFFFFFFFFFFF4
0000009FFFFFFFFFFFFFFFEB60
0000002EFFFDFFFFFB55420000
000000027411FFFFF600000000
000000000004FFFFF300000000
000000000008FFFFE000000000
00000000000DFFFF9000000000
00000000003FFFFF5000000000
00000000006FFFFF1000000000
0000000000BFFFFB0000000000
0000000003FFFFF70000000000
0000000009FFFFF30000000000
000000001EFFFFE00000000000
000000005FFFFF800000000000
00000000CFFFFF200000000000
00000004FFFFFB000000000000
0000000BFFFFF7210000000000
0013579FFFFFFFFE5000000000
1DFFFFFFFFFFFFFFF700000000
3FFFFFFFFFFFFFFFFF10000000
0EFFFFFFFFFFFFFFFA00000000
0AFFFFFFFFFFFEDE8100000000
04FFFFC8643510000000000000
00453000000000000000000000
ENDCHAR
STARTCHAR J
ENCODING 74
SWIDTH 668 0
DWIDTH 24 0
BBX 30 26 -1 0
BITMAP
000000000012224467887778753200
00001369BEFFFFFFFFFFFFFFFFFD00
0001CFFFFFFFFFFFFFFFFFFFFFFFA0
000AFFFFFFFFFFFFFFFFFFFFFFFFF7
0009FFFFFFFFFFFFFFFFFFFFFFFFFB
0006FFFFFFFFFFFFFFFFFFFFFFFFF5
0001EFFFFFDA866AFFFFF932334420
00002BEB51000009FFFFF600000000
000000000000000BFFFFF300000000
000000000000000EFFFFE000000000
000000000000002FFFFFA000000000
000000000000006FFFFF7000000000
00000000000000AFFFFF3000000000
00000000000000EFFFFE0000000000
00000000000004FFFFFA0000000000
0000000000000AFFFFF60000000000
0000000000000EFFFFF20000000000
0000000000007FFFFFC00000000000
000000000003FFFFFF600000000000
2CEC8300004DFFFFFF100000000000
6FFFFFDDCEFFFFFFF9000000000000
9FFFFFFFFFFFFFFFF3000000000000
8FFFFFFFFFFFFFFF60000000000000
2EFFFFFFFFFFFFF600000000000000
05EFFFFFFFFFFE5000000000000000
0013127BCEC8500000000000000000
ENDCHAR
STARTCHAR K
ENCODING 75
SWIDTH 776 0
DWIDTH 28 0
BBX 29 27 0 -1
BITMAP
00000004EC80000000000000000000
0000000DFFFC300000000038000000
0000006FFFFFD000000028FFB20000
000001DFFFFFF3000006EFFFFD2000
000008FFFFFFF20002CFFFFFFFE000
00000DFFFFFF70005EFFFFFFFFE000
00002FFFFFFF3008FFFFFFFFFF6000
00007FFFFFF702CFFFFFFFFFF60000
0000DFFFFFF16EFFFFFFFFFB200000
0003FFFFFFC9FFFFFFFFFE60000000
0009FFFFFFFFFFFFFFFF9100000000
001EFFFFFFFFFFFFFFF50000000000
005FFFFFFFFFFFFFFD300000000000
00BFFFFFFFFFFFFFB2000000000000
01FFFFFFFFFFFFFD00000000000000
05FFFFFFFFFFFFFF40000000000000
09FFFFFFFFFFFFFFE5000000000000
0BFFFFFFFFFFFFFFFFB63100010000
1DFFFFFFFFF8DFFFFFFFFFFFEFD300
5FFFFFFFFF402EFFFFFFFFFFFFFE40
8FFFFFFFF50002CFFFFFFFFFFFFF80
6FFFFFFFA0000019FFFFFFFFFFFF40
0FFFFFFD100000004BEFFFFFFFFA00
0CFFFFF4000000000029DFFFFF9000
06FFFF700000000000000134420000
01BFF8000000000000000000000000
000530000000000000000000000000
ENDCHAR
STARTCHAR L
ENCODING 76
SWIDTH 632 0
DWIDTH 23 0
BBX 22 28 0 -1
BITMAP
0000001200000000000000
000000AFB6300000000000
000001FFFFF70000000000
000005FFFFFF2000000000
000009FFFFFF5000000000
00000EFFFFFE1000000000
00004FFFFFF90000000000
0000AFFFFFF30000000000
0001EFFFFFC00000000000
0005FFFFFF600000000000
000BFFFFFF200000000000
001FFFFFFB000000000000
006FFFFFF3000000000000
00CFFFFFE0000000000000
03FFFFFFA0000000000000
06FFFFFF30000000000000
0CFFFFFD00000000000000
1FFFFFF700000000000000
5FFFFFF200000000000000
8FFFFFE000012345410000
9FFFFFE66AEFFFFFFF8100
9FFFFFFFFFFFFFFFFFFFA2
6FFFFFFFFFFFFFFFFFFFF9
2FFFFFFFFFFFFFFFFFFFFC
09FFFFFFFFFFFFFFFFFFFE
02FFFFFFFFFFFEDBBDFEC5
006EFFFFFB720000001000
0001566410000000000000
ENDCHAR
STARTCHAR M
ENCODING 77
SWIDTH 973 0
DWIDTH 35 0
BBX 35 28 0 -1
BITMAP
000000000015000000000000000000000000
0000000005FF900000000000000027400000
000000004FFFFA50000000000000CFFC0000
00000001DFFFFFF4000000000005FFFFB100
00000008FFFFFFFD00000000003EFFFFF900
0000002FFFFFFFFF6000000004EFFFFFFF40
000000BFFFFFFFFF900000005FFFFFFFFF80
000004FFFFFFFFFF70000007FFFFFFFFFF70
00000CFFFFFFFFFF9000009FFFFFFFFFFF30
00004FFFFFFFFFFF80004CFFFFFFFFFFFF10
0000BFFFFFFFFFFFC33AFFFFFFFFFFFFFC00
0002FFFFFFFFFFFFFFFFFFFFFFFFFFFFFB00
0009FFFFFFFFFFFFFFFFFFFFFFFFFFFFFB00
001FFFFFFFFFFFFFFFFFFFFFFFCEFFFFFA00
007FFFFFFEFFFFFFFFFFFFFFF91DFFFFF600
00DFFFFFF6AFFFFFFFFFFFFD402FFFFFF100
05FFFFFFE01EFFFFFFFFFF81006FFFFFF000
0BFFFFFF8003EFFFFFFE820000AFFFFFF000
3FFFFFFF300017CDCA61000000DFFFFFD000
8FFFFFFF100000000000000000FFFFFF9000
BFFFFFF6000000000000000002FFFFFF6000
CFFFFFC0000000000000000003FFFFFE1000
AFFFFF90000000000000000003FFFFFA0000
9FFFFD10000000000000000001FFFFF30000
5FFFF800000000000000000000DFFFC00000
1EFFF4000000000000000000006FFC400000
08FFA0000000000000000000000640000000
007710000000000000000000000000000000
ENDCHAR
STARTCHAR N
ENCODING 78
SWIDTH 684 0
DWIDTH 25 0
BBX 27 27 -1 0
BITMAP
0000000000000000000002000000
000000000993000000001EB10000
000000002FFF810000004FFD5000
000000008FFFFB0000009FFFF800
00000001EFFFFF900001EFFFFF20
00000007FFFFFFF10007FFFFFF70
0000001EFFFFFFF2000AFFFFFF40
0000007FFFFFFFE1000CFFFFFE00
000000DFFFFFFFB0000EFFFFF500
000006FFFFFFFF70002FFFFFE000
00000DFFFFFFFE20005FFFFFC000
00005FFFFFFFFE00009FFFFF9000
0000DFFFFFFFFE0000CFFFFF6000
0005FFFFFFFFFE0002FFFFFF3000
000CFFFFFFFFFE0008FFFFFF1000
004FFFFFFFFFFE002FFFFFFF0000
00CFFFFFFFFFFE00CFFFFFFD0000
04FFFFFFFFFFFF2BFFFFFFF80000
0BFFFFFFFFFFFFEFFFFFFFF40000
3FFFFFFFF6FFFFFFFFFFFFE00000
5FFFFFFFC0AFFFFFFFFFFF800000
2FFFFFFF202FFFFFFFFFFC000000
1EFFFFF80007FFFFFFFFF3000000
08FFFFF400009FFFFFFF60000000
02FFFFE000000AFFFFF900000000
007FFFA00000007FFE6000000000
0009E71000000001300000000000
ENDCHAR
STARTCHAR O
ENCODING 79
SWIDTH 744 0
DWIDTH 27 0
BBX 26 28 0 -1
BITMAP
0000000000000001A830000000
000000000000014BFFE1000000
0000000000000AFFFFFD100000
000000000001BFFFFFFFD00000
00000000001BFFFFFFFFF50000
0000000005EFFFFFFFFFE10000
000000006FFFFFFFFFFFC00000
00000005FFFFFFFFFFFFF10000
0000009FFFFFFFFFFFFFF90000
000008FFFFFFFFFFEFFFFF2000
00006FFFFFFFF9651EFFFF9000
0002FFFFFFFE600007FFFFF200
000CFFFFFFE3000000DFFFFA00
008FFFFFFE200000005FFFFF30
02FFFFFFD2000000000CFFFF80
09FFFFFF400000000005FFFFB0
0EFFFFF9000000000002FFFFF1
4FFFFFE1000000000006FFFFF6
7FFFFF6000000000018EFFFFF7
9FFFFF20000000017EFFFFFFF6
9FFFFF61000247CFFFFFFFFFF2
8FFFFFFFEEFFFFFFFFFFFFFFA0
4FFFFFFFFFFFFFFFFFFFFFFB00
0BFFFFFFFFFFFFFFFFFFFF8000
02EFFFFFFFFFFFFFFFFFB30000
003DFFFFFFFFFFFFFD61000000
00018EFFFFFFFCA73000000000
00000023345410000000000000
ENDCHAR
STARTCHAR P
ENCODING 80
SWIDTH 639 0
DWIDTH 23 0
BBX 24 28 1 -1
BITMAP
000000000002443420000000
0000000017DFFFFFFD810000
00000004DFFFFFFFFFFE5000
0000004FFFFFFFFFFFFFE100
000002EFFFFFFFFFFFFFF900
00000AFFFFFFFFFFFFFFFF10
00002FFFFFFFFFFFFFFFFF70
00008FFFFFFEBABEFFFFFFB0
0000DFFFFE5000004DFFFFE0
0016FFFFF70000016EFFFFF1
00CFFFFFF20016BFFFFFFFF1
06FFFFFFE69CFFFFFFFFFFE0
0EFFFFFFFFFFFFFFFFFFFFA0
4FFFFFFFFFFFFFFFFFFFFD20
5FFFFFFFFFFFFFFFFFFFC200
9FFFFFFFFFFFFFFFFFE70000
4FFFFFFFFFFFFFFFC7100000
1DFFFFFFFFFFD96200000000
08FFFFFDA741000000000000
09FFFFF50000000000000000
0CFFFFF50000000000000000
1FFFFFF40000000000000000
3FFFFFF20000000000000000
6FFFFFE00000000000000000
8FFFFFB00000000000000000
2EFFFF600000000000000000
08FFFD000000000000000000
016631000000000000000000
ENDCHAR
STARTCHAR Q
ENCODING 81
SWIDTH 744 0
DWIDTH 27 0
BBX 27 30 -1 -3
BITMAP
0000000000000003111000000000
00000000000000CFFEE800000000
00000000000002FFFFFFC2000000
00000000000002EFFFFFFE200000
0000000000000CFFFFFFFFD00000
0000000000009FFFFFFFFFE10000
00000000002BFFFFFFFFFFFA0000
0000000004EFFFFFFFFFFFFF5000
000000006EFFFFFFFFEFFFFFE100
00000009FFFFFFFFD406FFFFF800
000002BFFFFFFFFA10008FFFFE10
00002DFFFFFFFE5000001EFFFF70
0001DFFFFFFFC200000007FFFFC0
001CFFFFFFFB1020000003FFFFD0
008FFFFFFFA009FFD90007FFFFD0
02FFFFFFFA000EFFFFA02EFFFFC0
09FFFFFFA00008FFFFF7DFFFFFB0
0EFFFFFC100001CFFFFFFFFFFF80
2FFFFFF30000002EFFFFFFFFFF30
1FFFFF900000005CFFFFFFFFF700
0CFFFF200026AEFFFFFFFFFFA000
0CFFFE86ADFFFFFFFFFFFFFC0000
0AFFFFFFFFFFFFFFFFFFFFFA0000
08FFFFFFFFFFFFFFFFFFFFFF1000
02DFFFFFFFFFFFFFFFDFFFFF5000
002CFFFFFFFFFFFE930DFFFF9000
00007DFFFFFEB7300007FFFFF100
00000046531000000001EFFFC000
000000000000000000003DFC2000
0000000000000000000001300000
ENDCHAR
STARTCHAR R
ENCODING 82
SWIDTH 646 0
DWIDTH 23 0
BBX 24 29 0 -2
BITMAP
000000000000141000000000
000000000007EFD400000000
0000000000AFFFFF70000000
0000000009FFFFFFF7000000
000000005FFFFFFFFF700000
00000002EFFFFFFFFFE20000
0000001CFFFFFFFFFFFA0000
000262BFFFFFFFFFFFFF2000
0008FFFFFFFF45EFFFFF7000
000DFFFFFFF5006FFFFFD000
001FFFFFFF60000EFFFFF200
004FFFFFFA0003AFFFFFF300
007FFFFFF427CFFFFFFFF000
00AFFFFFFEFFFFFFFFFF9000
00EFFFFFFFFFFFFFFFFD1000
04FFFFFFFFFFFFFFFFA10000
07FFFFFFFFFFFFFFA4000000
08FFFFFFFFFFFC7100000000
0CFFFFFFFFF8200000000000
0DFFFFFFFFFC300000000000
2FFFFFFFFFFFF92000000000
5FFFFFFFFFFFFFFC84100000
6FFFFFBEFFFFFFFFFFFDA830
6FFFFF42DFFFFFFFFFFFFFC0
0FFFFF1019FFFFFFFFFFFFF2
0CFFF900002AFFFFFFFFFFF3
03DFB100000017CFFFFFFFF2
00020000000000027CFFFF80
000000000000000000133100
ENDCHAR
STARTCHAR S
ENCODING 83
SWIDTH 576 0
DWIDTH 21 0
BBX 25 28 0 -1
BITMAP
00000000000000002333100000
00000000000038BEFFFFFD4000
00000000159EFFFFFFFFFFD100
0000007BEFFFFFFFFFFFFFF800
00017DFFFFFFFFFFFFFFFFFE20
007EFFFFFFFFFFFFFFFFFFFFA0
09FFFFFFFFFFFFFFFFFFFFFE50
4FFFFFFFFFFFA7412532235200
6FFFFFFFFF9100000000000000
8FFFFFFFFFFB60000000000000
7FFFFFFFFFFFFA300000000000
4FFFFFFFFFFFFFE20000000000
06FFFFFFFFFFFFF90000000000
0016ACDFFFFFFFFD3000000000
00000000339EFFFFC000000000
0000000000016DFFF800000000
00000000000007FFFC00000000
0000000000003EFFFD00000000
000000000002DFFFFD00000000
00000000029FFFFFF900000000
000000039FFFFFFFF200000000
003568DFFFFFFFFF7000000000
00DFFFFFFFFFFFFA0000000000
00EFFFFFFFFFFF900000000000
00EFFFFFFFFFD5000000000000
00CFFFFFFFE700000000000000
006FFFFFB61000000000000000
00056632000000000000000000
ENDCHAR
STARTCHAR T
ENCODING 84
SWIDTH 607 0
DWIDTH 22 0
BBX 28 28 0 -1
BITMAP
0000000000000000000012343100
000000000006D7579BDFFFFFFD10
25556789BCEFFFFFFFFFFFFFFFD2
BFFFFFFFFFFFFFFFFFFFFFFFFFFC
EFFFFFFFFFFFFFFFFFFFFFFFFFFF
CFFFFFFFFFFFFFFFFFFFFFFFFFF9
6FFFFFFFFFFFFFFFFFFECA988620
2DFFFFFFFFFFFFFF631000000000
029AA99769FFFFFC000000000000
000000000CFFFFF6000000000000
000000003FFFFFE1000000000000
00000000BFFFFF80000000000000
00000004FFFFFF30000000000000
00000009FFFFFC00000000000000
0000000EFFFFF400000000000000
0000005FFFFFD000000000000000
000000AFFFFF5000000000000000
000001FFFFFD0000000000000000
000006FFFFF90000000000000000
000009FFFFE20000000000000000
00000CFFFFA00000000000000000
00000CFFFF600000000000000000
00000CFFFF300000000000000000
000008FFFF400000000000000000
000004FFFFE50000000000000000
000000CFFFFB0000000000000000
0000004CFFF80000000000000000
000000007A700000000000000000
ENDCHAR
STARTCHAR U
ENCODING 85
SWIDTH 695 0
DWIDTH 25 0
BBX 25 26 1 0
BITMAP
000000000000000000007E4000
00000000000000000000DFF400
00022000000000000001DFF900
003DD000000000000008FFFD00
00DFF80000000000000AFFFF30
01FFFF8000000000000CFFFF80
04FFFFD000000000001FFFFFC0
07FFFFF500000000004FFFFFD0
08FFFFF900000000009FFFFF90
0BFFFFFC0000000001EFFFFF60
0EFFFFF80000000007FFFFFF40
1FFFFFF3000000001EFFFFFF10
2FFFFFF100000000BFFFFFF800
3FFFFFE000000007FFFFFFE100
3FFFFFE00000007FFFFFFF7000
2FFFFFF000001AFFFFFFFE0000
2FFFFFF20005DFFFFFFFF50000
1FFFFFF748DFFFFFFFFD600000
1FFFFFFFFFFFFFFFFFE4000000
0AFFFFFFFFFFFFFFFF50000000
02EFFFFFFFFFFFFFF900000000
01EFFFFFFFFFFFFFA000000000
008FFFFFFFFFFFF80000000000
001EFFFFFFFFFD400000000000
0004EFFFFFFC50000000000000
00001789AA4000000000000000
ENDCHAR
STARTCHAR V
ENCODING 86
SWIDTH 583 0
DWIDTH 21 0
BBX 22 28 2 -1
BITMAP
0000000000000000002000
07D40000000000000AFC80
5FFD0000000000009FFFF2
9FFF800000000008FFFFF7
AFFFF6000000006FFFFFF9
9FFFFD00000003FFFFFFF5
8FFFFF4000001DFFFFFFF0
6FFFFF700000AFFFFFFF70
5FFFFF900005FFFFFFF900
4FFFFFB0001EFFFFFFC000
4FFFFFC000AFFFFFFD1000
5FFFFFE004FFFFFFE30000
4FFFFFF01DFFFFFF500000
3FFFFFF19FFFFFF9000000
1FFFFFF8FFFFFFD1000000
0CFFFFFFFFFFFF30000000
0BFFFFFFFFFFF800000000
09FFFFFFFFFFE100000000
07FFFFFFFFFF6000000000
04FFFFFFFFF90000000000
01FFFFFFFFF30000000000
00CFFFFFFFA00000000000
009FFFFFFC100000000000
003FFFFFF3000000000000
000DFFFFF3000000000000
0007FFFFC0000000000000
00008FFD20000000000000
0000034000000000000000
ENDCHAR
STARTCHAR W
ENCODING 87
SWIDTH 994 0
DWIDTH 36 0
BBX 38 28 0 -1
BITMAP
00000000000000000000000000000000020000
000000062000000000000000000000001EA100
000000BFE200000000000000000000009FFA00
000007FFFD2000000000810000000001FFFF70
00001EFFFFE200000009FD5000000008FFFFE1
00007FFFFFF10000005FFFE30000000EFFFFF5
0000EFFFFFC0000001EFFFFD0000005FFFFFF7
0005FFFFFF8000000AFFFFFF400000BFFFFFF5
000AFFFFFF3000004FFFFFFF200002FFFFFFD0
001EFFFFFD000000DFFFFFFE000008FFFFFF60
004FFFFFF8000007FFFFFFFB00000EFFFFFE00
008FFFFFF200002FFFFFFFF800005FFFFFF800
00BFFFFFC00000AFFFFFFFF50000CFFFFFF200
00EFFFFF800004FFFFFFFFF10003FFFFFFA000
03FFFFFF30001DFFFFFFFFD0000BFFFFFF4000
06FFFFFE0000AFFFFFFFFFB0004FFFFFFC0000
09FFFFFB0007FFFFFFFFFFB001DFFFFFF60000
0CFFFFF8006FFFFFFFFFFFC01CFFFFFFD00000
0FFFFFF608FFFFFFFFFFFFF5EFFFFFFF600000
3FFFFFF5BFFFFFFFFFEFFFFFFFFFFFFD000000
2FFFFFFFFFFFFFFFE47FFFFFFFFFFFF6000000
0BFFFFFFFFFFFFFE301EFFFFFFFFFFC0000000
04FFFFFFFFFFFFD20006FFFFFFFFFF30000000
00BFFFFFFFFFFB100000DFFFFFFFF600000000
003FFFFFFFFF700000004FFFFFFF8000000000
0004DFFFFFB30000000009FFFFF80000000000
000006BA720000000000009FEE500000000000
00000000000000000000000200000000000000
ENDCHAR
STARTCHAR X
ENCODING 88
SWIDTH 623 0
DWIDTH 22 0
BBX 26 28 -1 -2
BITMAP
00005831000000000000002100
0000BFFD3000000000002AFD10
0000FFFFF60000000007FFFF90
0000EFFFFF60000002BFFFFFF2
0001FFFFFFF500005EFFFFFFF9
0002EFFFFFFE3019FFFFFFFFF3
00007FFFFFFFC4DFFFFFFFFF90
00002CFFFFFFFFFFFFFFFFD500
000002EFFFFFFFFFFFFFF81000
0000004FFFFFFFFFFFFD400000
00000008FFFFFFFFFFB1000000
00000001FFFFFFFFF800000000
0000000AFFFFFFFF5000000000
000001CFFFFFFFFF5000000000
00000AFFFFFFFFFFE100000000
0000AFFFFFFFFFFFF800000000
0009FFFFFFFFFFFFFF40000000
007FFFFFFFF8FFFFFFD1000000
02FFFFFFFE308FFFFFFC000000
0BFFFFFFD2000CFFFFFF400000
2FFFFFFE200003FFFFFF900000
5FFFFFE3000000AFFFFFE00000
8FFFFF500000002FFFFFF20000
8FFFF9000000000BFFFFD00000
4FFFF60000000004FFFF400000
0BFFF200000000003DF8000000
01CD4000000000000120000000
00100000000000000000000000
ENDCHAR
STARTCHAR Y
ENCODING 89
SWIDTH 493 0
DWIDTH 18 0
BBX 21 29 1 -2
BITMAP
0040000000000000371000
09FC40000000002BFF9000
0EFFFB20000002EFFFFC20
0EFFFF9000001DFFFFFF80
0BFFFFD00001BFFFFFFF90
08FFFFF2000CFFFFFFFD10
09FFFFF5004FFFFFFFC200
06FFFFF801EFFFFFFE1000
04FFFFFC0BFFFFFFD30000
01FFFFFD9FFFFFFF600000
00DFFFFFFFFFFFF5000000
009FFFFFFFFFFF90000000
003FFFFFFFFFFE20000000
000CFFFFFFFFF500000000
0004FFFFFFFFC000000000
00008FFFFFFF5000000000
00009FFFFFF90000000000
0003FFFFFFE10000000000
000BFFFFFF500000000000
004FFFFFFC000000000000
00BFFFFFF3000000000000
04FFFFFFB0000000000000
0CFFFFFF40000000000000
2FFFFFF900000000000000
7FFFFFE100000000000000
4FFFFF8000000000000000
0BFFFE1000000000000000
019EF40000000000000000
0000100000000000000000
ENDCHAR
STARTCHAR Z
ENCODING 90
SWIDTH 664 0
DWIDTH 24 0
BBX 26 28 -1 -2
BITMAP
000000278ACCCA888998799500
000000BFFFFFFFFFFFFFFFFF80
000000BFFFFFFFFFFFFFFFFFE3
0000009FFFFFFFFFFFFFFFFFFE
0000004FFFFFFFFFFFFFFFFFFE
0000000AFFFFFFFFFFFFFFFFFB
0000000088764335FFFFFFFFE3
000000000000003EFFFFFFFE30
00000000000006FFFFFFFFA200
0000000000019FFFFFFFF60000
00000000003CFFFFFFFF500000
0000000019FFFFFFFFF7000000
00000005EFFFFFFFFF60000000
0000009FFFFFFFFFE400000000
00003BFFFFFFFFFA1000000000
0006FFFFFFFFFE500000000000
00BFFFFFFFFFB1000000000000
05FFFFFFFFE600000000000000
0CFFFFFFFD300000016CE60000
1FFFFFFFA1000159CFFFFF3100
4FFFFFFF60279EFFFFFFFFE600
5FFFFFFFFFFFFFFFFFFFFFF600
4FFFFFFFFFFFFFFFFFFFFF8000
0CFFFFFFFFFFFFFFFFFFB30000
03FFFFFFFFFFFFFFFD72000000
008FFFFFFFFFF9C73000000000
00079FFFFFC940000000000000
00000566300000000000000000
ENDCHAR
STARTCHAR bracketleft
ENCODING 91
SWIDTH 387 0
DWIDTH 14 0
BBX 27 39 -1 -6
BITMAP
0000000000001344566765310000
0000000059ACFFFFFFFFFFFFA000
00000000EFFFFFFFFFFFFFFFF910
00000000DFFFFFFFFFFFFFFFFF70
00000000BFFFFFFFFFFFFFFFFE50
00000000DFFFFFFFFEEDDBA85100
00000001FFFFF620000000000000
00000004FFFFE000000000000000
00000008FFFFB000000000000000
0000000BFFFF8000000000000000
0000000FFFFF4000000000000000
0000004FFFFF1000000000000000
0000008FFFFC0000000000000000
000000CFFFF80000000000000000
000001FFFFF40000000000000000
000005FFFFF10000000000000000
000009FFFFC00000000000000000
00000DFFFF800000000000000000
00002FFFFF400000000000000000
00006FFFFF100000000000000000
0000AFFFFC000000000000000000
0000EFFFF8000000000000000000
0004FFFFF5000000000000000000
0008FFFFF2000000000000000000
000CFFFFD0000000000000000000
002FFFFF80000000000000000000
006FFFFF30000000000000000000
00BFFFFE00000000000000000000
01FFFFF900000000000000000000
05FFFFF500000000000000000000
09FFFFF100000000000000000000
0DFFFFB000000000000000000000
3FFFFF6234556620000000000000
7FFFFFFFFFFFFFD4000000000000
EFFFFFFFFFFFFFFE400000000000
EFFFFFFFFFFFFFFF700000000000
AFFFFFFFFFFFFFFD100000000000
5FFFFFFEBBD97760000000000000
0ADB841000000000000000000000
ENDCHAR
STARTCHAR backslash
ENCODING 92
SWIDTH 352 0
DWIDTH 13 0
BBX 9 28 2 -1
BITMAP
5710000000
BFD3000000
CFFE300000
BFFFD00000
AFFFF20000
7FFFF40000
4FFFF60000
1FFFF70000
0EFFF90000
0AFFFB0000
06FFFD0000
04FFFF0000
01FFFF3000
00EFFF6000
00CFFFA000
00AFFFC000
006FFFF000
003FFFF300
001FFFF600
000EFFF900
000CFFFA00
000AFFF900
0009FFFE00
000AFFFF00
0009FFFF40
0007FFFF60
0002FFFE10
00005BB600
ENDCHAR
STARTCHAR bracketright
ENCODING 93
SWIDTH 403 0
DWIDTH 15 0
BBX 26 39 -11 -6
BITMAP
0000000000000366789AA86200
0000000003BCEFFFFFFFFFFF80
0000000008FFFFFFFFFFFFFFF6
0000000006FFFFFFFFFFFFFFFD
0000000004FFFFFFFFFFFFFFFC
0000000000DFFFFDCBCDFFFFF8
00000000003A84100000FFFFF5
00000000000000000003FFFFF1
00000000000000000006FFFFD0
0000000000000000000AFFFF90
0000000000000000000DFFFF60
0000000000000000002FFFFF20
0000000000000000007FFFFD00
000000000000000000BFFFFA00
000000000000000001FFFFF600
000000000000000004FFFFF200
000000000000000008FFFFD000
00000000000000000BFFFF9000
00000000000000000EFFFF5000
00000000000000004FFFFF1000
00000000000000008FFFFC0000
0000000000000000DFFFF90000
0000000000000002FFFFF50000
0000000000000007FFFFF20000
000000000000000CFFFFE00000
000000000000001FFFFF900000
000000000000005FFFFF500000
00000000000000AFFFFE000000
00000000000000EFFFFA000000
00000000000004FFFFF6000000
00000000000009FFFFF1000000
0000000000000DFFFFC0000000
0000000023457FFFFF70000000
02579BCFFFFFFFFFFF30000000
1EFFFFFFFFFFFFFFFD00000000
0EFFFFFFFFFFFFFFF700000000
0AFFFFFFFFFFFFFFD100000000
05FFFFFFEBBD97760000000000
00ADB841000000000000000000
ENDCHAR
STARTCHAR asciicircum
ENCODING 94
SWIDTH 518 0
DWIDTH 19 0
BBX 17 21 0 6
BITMAP
00000000002A910000
0000000001DFFC1000
0000000005FFFF6000
0000000007FFFFB000
000000004FFFFFF100
00000000DFFFFFF300
00000005FFFFFFF700
0000003FFFFFFFFA00
000000BFFFFFFFFC00
000004FFFFFFFFFD00
00001EFFFF8CFFFF10
0000BFFFFC0AFFFF30
0008FFFFF308FFFF30
005FFFFF9007FFFF30
03FFFFFD1006FFFF30
1DFFFFF40003FFFF40
8FFFFF800000EFFF50
DFFFFB0000009FFF70
CFFFD10000001CFF70
7FFD2000000003FF30
15A200000000004400
ENDCHAR
STARTCHAR underscore
ENCODING 95
SWIDTH 708 0
DWIDTH 26 0
BBX 30 7 -4 -2
BITMAP
000000024444444455553210000000
1ACCDDEFFFFFFFFFFFFFFFFFDA6000
7FFFFFFFFFFFFFFFFFFFFFFFFFFA40
2FFFFFFFFFFFFFFFFFFFFFFFFFFFF4
0BFFFFFFFFFFFFFFFFFFFFFFFFFEB2
01AFFFEDBA98888887777766532000
000131000000000000000000000000
ENDCHAR
STARTCHAR grave
ENCODING 96
SWIDTH 754 0
DWIDTH 27 0
BBX 11 11 10 16
BITMAP
006B10000000
06FFC1000000
1EFFFE400000
6FFFFFF40000
7FFFFFFE4000
07FFFFFFE300
003EFFFFFD20
0002DFFFFFD0
00001BFFFFD0
0000008FFFC0
00000003BE40
ENDCHAR
STARTCHAR a
ENCODING 97
SWIDTH 581 0
DWIDTH 21 0
BBX 22 23 -1 -1
BITMAP
0000000000005100000000
000000000004FFC6000000
00000000002EFFFF500000
0000000003DFFFFF800000
00000008CFFFFFFFB00000
0000006FFFFFFFFFC00000
000001EFFFFFFFFFF10000
000007FFFFFFFFFFF40000
00001EFFFFFCBFFFF70000
00005FFFFFE27FFFFA0000
0000CFFFFF403FFFFE0000
0004FFFFFA000EFFFFAA10
000BFFFFE2236DFFFFFFE7
003FFFFFFFFFFFFFFFFFFB
00BFFFFFFFFFFFFFFFFFC1
03FFFFFBFFFFFFFFFFF900
09FFFFB3FFFFFFFFFFF800
1FFFFF405A97414FFFFA00
7FFFFD00000002AFFFFA00
AFFFF80000004FFFFFF600
4FFFF500000007FFFFB000
0BFF7000000002EFFB1000
0053000000000027400000
ENDCHAR
STARTCHAR b
ENCODING 98
SWIDTH 573 0
DWIDTH 21 0
BBX 21 23 -1 -1
BITMAP
000000025899BC76000000
00037BEFFFFFFFFFC30000
04CFFFFFFFFFFFFFFE4000
7FFFFFFFFFFFFFFFFFE100
EFFFFFFFFFDB99FFFFF700
9FFFFFFE82001CFFFFF800
1CFFFCFE6002CFFFFFF300
01AFA5FFF88EFFFFFF9000
000009FFFFFFFFFFFB0000
00000EFFFFFFFFFFC10000
00002FFFFFFFFFFF300000
00006FFFFFFFFFFFE40000
00009FFFFFFFFFFFFF6000
0000DFFFFB630016EFF500
0003FFFFE0000004FFFE10
0009FFFF9000005FFFFF50
001FFFFF40006CFFFFFF70
005FFFFD038EFFFFFFFF30
007FFFFEEFFFFFFFFFF600
00BFFFFFFFFFFFFFFD5000
005FFFFFFFFFFFFD600000
001DFFFFFFFFDA50000000
0001AA17CC940000000000
ENDCHAR
STARTCHAR c
ENCODING 99
SWIDTH 513 0
DWIDTH 19 0
BBX 18 23 0 -1
BITMAP
000000000000044000
000000000004CFFB20
0000000003AFFFFFC2
00000001AFFFFFFFFA
0000017EFFFFFFFFF9
00003DFFFFFFFFFFE2
0006EFFFFFFFFFFB30
005FFFFFFFFFA61000
04FFFFFFFFB2000000
1DFFFFFFE700000000
8FFFFFF91000000000
EFFFFF700000000000
FFFFF7000000000000
EFFFC0000000000000
CFFF70000000000000
9FFFB0000000000000
5FFFFC853100000000
0DFFFFFFFFFEEDD700
05FFFFFFFFFFFFFF60
007EFFFFFFFFFFFFD0
0002DFFFFFFFFFFF80
0000037BEFFFFFF600
000000000134111000
ENDCHAR
STARTCHAR d
ENCODING 100
SWIDTH 497 0
DWIDTH 18 0
BBX 18 23 0 -1
BITMAP
005400000000000000
00CFD7200000000000
00EFFFFA5100000000
00BFFFFFFE60000000
01BFFFFFFFFA100000
03FFFFFFFFFFD40000
01FFF84AFFFFFF5000
00CFFB0006DFFFF400
00AFFE000008FFFE10
009FFF1000009FFF90
009FFF20000009FFE0
00AFFF2000000AFFF3
01DFFF1000007FFFF4
04FFFF00003BFFFFF2
07FFFD003CFFFFFF90
0CFFFB4AEFFFFFFC10
1FFFFFFFFFFFFFC100
6FFFFFFFFFFFF80000
6FFFFFFFFFFC300000
4FFFFFFFFB40000000
1FFFFFE92000000000
08FFD7100000000000
005500000000000000
ENDCHAR
STARTCHAR e
ENCODING 101
SWIDTH 521 0
DWIDTH 19 0
BBX 20 23 0 -1
BITMAP
00000000000000144400
00000000147ACEFFFF70
0000148CFFFFFFFFFFF9
0019FFFFFFFFFFFFFFF7
00BFFFFFFFFFFFFFFFA0
00AFFFFFFFFFFFEB7300
008FFFFFFFEC62000000
004FFFFF820000000000
000BFFFF733456000000
000AFFFFFFFFFF800000
002FFFFFFFFFFFFB1000
009FFFFFFFFFFFFF3000
01FFFFFFFFFFFFD40000
09FFFFFCEFEEC6000000
1FFFFF90000000000000
7FFFFE10000000000000
9FFFF800000148BD2000
8FFFFDBBCEFFFFFFD400
6FFFFFFFFFFFFFFFFB00
3FFFFFFFFFFFFFFFF600
0BFFFFFFFFFFFFFF7000
02BFFFFFFFFFDA620000
00025766422100000000
ENDCHAR
STARTCHAR f
ENCODING 102
SWIDTH 455 0
DWIDTH 16 0
BBX 23 23 -1 -1
BITMAP
0000000000001479BCC91000
00000000037CFFFFFFFFB100
00000049DFFFFFFFFFFFFC00
00049EFFFFFFFFFFFFFFFF20
004FFFFFFFFFFFFFECAAA600
005FFFFFFFFFB74100000000
003EFFFFFFA1000000000000
0006FFFFFF40000000000000
00003EFFFE10000000000000
00002FFFF900000000000000
00217FFFF500245610000000
1AFDEFFFFFDFFFFF70000000
8FFFFFFFFFFFFFFFF2000000
9FFFFFFFFFFFFFFFB0000000
5FFFFFFFFFFFFFFC10000000
0AFFFFFFFDA8530000000000
00EFFFE41000000000000000
03FFFF800000000000000000
06FFFF400000000000000000
07FFFD000000000000000000
03FFFE000000000000000000
008FF9000000000000000000
000460000000000000000000
ENDCHAR
STARTCHAR g
ENCODING 103
SWIDTH 652 0
DWIDTH 23 0
BBX 25 23 0 -1
BITMAP
00000000000000670000000000
0000000000001AFFB300000000
000000000006EFFFFF50000000
0000000003CFFFFFFF90000000
000000019FFFFFFFFFA0000000
0000001CFFFFFFFFFA20000000
000003DFFFFFFFFB3000000000
00003EFFFFFFFC400000000000
0003EFFFFFFE60000000000000
002EFFFFFFC200019A10000000
00CFFFFFFA10003DFFE7100000
08FFFFFF9000006FFFFFE60000
2FFFFFF90000003FFFFFFFB100
9FFFFFA00000000BFFFFFFFB10
EFFFFC1000000005EFFFFFFFC0
DFFFF2000000037BFFFFFFFFD0
AFFFB122179BEFFFFFFFFFFF50
7FFFFFFFFFFFFFFFFFFFFFF600
3FFFFFFFFFFFFFFFFFFFFA2000
0BFFFFFFFFFFFFFFFEB6100000
02DFFFFFFFFFFFD94000000000
001AFFFFFDA873000000000000
00001332100000000000000000
ENDCHAR
STARTCHAR h
ENCODING 104
SWIDTH 582 0
DWIDTH 21 0
BBX 22 23 -1 -1
BITMAP
00000000000000000A8000
00000A70000000005FF200
00007FD100000000AFF800
0000DFFA00000000BFFE10
0001FFFF60000000BFFFC0
0003FFFFE0000003FFFFF1
0005FFFFE0000002FFFFF2
0006FFFFD0000004FFFFF3
0007FFFFA0000006FFFFF3
0009FFFF80000008FFFFF2
000FFFFF5000001CFFFFD0
000FFFFF200159EFFFFFA0
004FFFFF9ADFFFFFFFFF70
00BFFFFFFFFFFFFFFFFF40
00EFFFFFFFFFFFFFFFFE10
02FFFFFFFFFFFFFFFFF800
09FFFFFFFFFB79FFFFE200
0BFFFFFFF92009FFFFC000
2EFFFFFB20000BFFFFE000
2FFFFFF3000009FFFFE000
0BFFFFB0000002FFFF7000
05EFFE200000007FE70000
0048610000000002000000
ENDCHAR
STARTCHAR i
ENCODING 105
SWIDTH 320 0
DWIDTH 12 0
BBX 8 23 2 -1
BITMAP
00003700
0006FF20
001FFF70
006FFFE1
00BFFFF2
02EFFFF5
02FFFFF9
05FFFFF4
09FFFFD0
0DFFFF80
2FFFFF40
6FFFFF00
9FFFFB00
BFFFF800
BFFFF600
CFFFF400
FFFFF300
CFFFF400
9FFFF500
4FFFF700
0EFFF700
08FFE200
01661000
ENDCHAR
STARTCHAR j
ENCODING 106
SWIDTH 534 0
DWIDTH 19 0
BBX 25 23 -1 -1
BITMAP
00000000000000111111000000
00000258ABBCDEFFFFFFFDC200
0006FFFFFFFFFFFFFFFFFFFD10
003FFFFFFFFFFFFFFFFFFFFFA0
001FFFFFFFFFFFFFFFFFFFFFD0
000CFFFFFFEDDFFFFFAAABBB30
0003DFD741001FFFFE00000000
0000020000003FFFFB00000000
0000000000006FFFF700000000
0000000000009FFFF400000000
000000000000DFFFF100000000
000000000003FFFFC000000000
000000000007FFFF8000000000
00000000000DFFFF3000000000
00000000003FFFFE0000000000
0000000000BFFFF90000000000
1785100008FFFFF30000000000
7FFFEAAADFFFFFC00000000000
AFFFFFFFFFFFFF500000000000
7FFFFFFFFFFFF8000000000000
1EFFFFFFFFFF80000000000000
02877CFFFDA400000000000000
00000002200000000000000000
ENDCHAR
STARTCHAR k
ENCODING 107
SWIDTH 645 0
DWIDTH 23 0
BBX 24 23 0 -1
BITMAP
000000163000000000000000
000000CFF910000000030000
000006FFFFB0000003CFA100
00001DFFFFF100019FFFFC10
00007FFFFFD0005EFFFFFF90
0000CFFFFF5008FFFFFFFF50
0001FFFFFC01BFFFFFFFF800
0006FFFFF44EFFFFFFFD4000
000CFFFFF8FFFFFFFF810000
003FFFFFFFFFFFFFD3000000
009FFFFFFFFFFFFA00000000
00EFFFFFFFFFFF8000000000
04FFFFFFFFFFF60000000000
09FFFFFFFFFFFB0000000000
0CFFFFFFFFFFFFA200000000
0EFFFFFFFFFFFFFFB9777830
4FFFFFFFC16FFFFFFFFFFFF5
8FFFFFFD1006FFFFFFFFFFFD
7FFFFFF400003DFFFFFFFFF9
1FFFFF800000017BFFFFFFD1
0CFFFC000000000048ABB810
06FFD2000000000000000000
004810000000000000000000
ENDCHAR
STARTCHAR l
ENCODING 108
SWIDTH 533 0
DWIDTH 19 0
BBX 19 23 0 -1
BITMAP
00000593000000000000
00000DFFD60000000000
00002FFFFF2000000000
00007FFFFF5000000000
0000CFFFFE0000000000
0002FFFFF90000000000
0007FFFFF30000000000
000DFFFFC00000000000
003FFFFF700000000000
009FFFFE100000000000
00EFFFFA000000000000
05FFFFF5000000000000
09FFFFE0000000000000
0EFFFF90000000000000
3FFFFF30000000000000
7FFFFE00000000000000
9FFFFD238ABCDDB40000
9FFFFFFFFFFFFFFFC500
7FFFFFFFFFFFFFFFFF10
2FFFFFFFFFFFFFFFFF50
09FFFFFFFFFFFFFFFE40
02DFFFFFD86533465200
00158862000000000000
ENDCHAR
STARTCHAR m
ENCODING 109
SWIDTH 814 0
DWIDTH 29 0
BBX 29 23 0 -1
BITMAP
000000006C40000000000000100000
00000006FFD4100000000004FD5000
0000002FFFFFB0000000000CFFE500
000000BFFFFFF5000000009FFFFF20
000005FFFFFFFC0000000AFFFFFFB0
00001EFFFFFFFC000001BFFFFFFFD0
00007FFFFFFFFC00002DFFFFFFFF80
0000EFFFFFFFFD0006DFFFFFFFFF70
0006FFFFFFFFFE65CFFFFFFFFFFF30
000DFFFFFFFFFFFFFFFFFFFFFFFF20
005FFFFFFFFFFFFFFFFFFFFFFFFF20
00BFFFFFFFFFFFFFFFFFFB6FFFFF00
03FFFFFE7FFFFFFFFFFE608FFFFA00
09FFFFF70BFFFFFFFFA100CFFFF900
1EFFFFF201BFFFFE930000FFFFF800
6FFFFFD000036641000003FFFFF500
BFFFFF7000000000000005FFFFF200
CFFFFC0000000000000006FFFFC000
BFFFF80000000000000006FFFF6000
9FFFC00000000000000004FFFE1000
4FFF900000000000000001EFF90000
0DFF2000000000000000005B400000
049500000000000000000000000000
ENDCHAR
STARTCHAR n
ENCODING 110
SWIDTH 564 0
DWIDTH 20 0
BBX 23 23 -1 -1
BITMAP
000000005000000003700000
00000006FD40000008FB2000
0000000DFFF700000DFFF400
0000005FFFFF50004FFFFD00
000000CFFFFFB000AFFFFF20
000004FFFFFFA000CFFFFD00
00000BFFFFFF6000EFFFF600
00003FFFFFFF3002FFFFE000
0000AFFFFFFC0005FFFFB000
0003FFFFFFFB0009FFFF8000
000AFFFFFFFB000DFFFF5000
002FFFFFFFFA004FFFFF3000
009FFFFFFFFA00BFFFFF2000
02FFFFFFFFFB07FFFFFF1000
09FFFFFFFFFD7FFFFFFA0000
1FFFFFFFDFFFFFFFFFF50000
6FFFFFF86FFFFFFFFFF10000
5FFFFFD10DFFFFFFFF600000
1EFFFF5004FFFFFFFB000000
09FFFF20006FFFFFE1000000
02EFFC000006FFFC20000000
006FD4000000386100000000
000210000000000000000000
ENDCHAR
STARTCHAR o
ENCODING 111
SWIDTH 628 0
DWIDTH 23 0
BBX 22 24 0 -1
BITMAP
0000000000000110000000
0000000000000CE8000000
000000000008EFFF600000
00000000009FFFFFF60000
0000000019FFFFFFFD0000
00000003EFFFFFFFF70000
0000003EFFFFFFFFF80000
000005EFFFFFFFFFFD0000
00004FFFFFFFFFFFFF7000
0003EFFFFFF771BFFFE100
001DFFFFFD30003FFFF700
009FFFFFC100000AFFFE10
04FFFFFC10000002EFFF70
0BFFFFE1000000009FFFA0
2FFFFF60000000006FFFE1
6FFFFB0000000000BFFFF4
9FFFF5000000005DFFFFF5
9FFFF30000027DFFFFFFF2
9FFFFFCBBDFFFFFFFFFFB0
4FFFFFFFFFFFFFFFFFFC10
0BFFFFFFFFFFFFFFFF8100
01CFFFFFFFFFFFFD930000
001AFFFFFFFFEA50000000
0000255677400000000000
ENDCHAR
STARTCHAR p
ENCODING 112
SWIDTH 524 0
DWIDTH 19 0
BBX 19 23 1 -1
BITMAP
0000000169BAB9500000
0000006EFFFFFFFD5000
000009FFFFFFFFFFF300
00006FFFFFFFFFFFFB00
0001EFFFFFFFFFFFFF30
0007FFFFFFFFFFFFFF80
000CFFFFA41259FFFFC0
004FFFFA000005EFFFE0
08FFFFF40049EFFFFFE0
2FFFFFFACFFFFFFFFFB0
9FFFFFFFFFFFFFFFFF60
BFFFFFFFFFFFFFFFF800
EFFFFFFFFFFFFFFD4000
BFFFFFFFFFFFFA500000
5FFFFFFFEB7400000000
2FFFFD52000000000000
4FFFFC00000000000000
8FFFFB00000000000000
CFFFFA00000000000000
DFFFF700000000000000
CFFFF300000000000000
4FFFB000000000000000
07851000000000000000
ENDCHAR
STARTCHAR q
ENCODING 113
SWIDTH 625 0
DWIDTH 23 0
BBX 23 25 -1 -3
BITMAP
0000000000008A7810000000
000000000004FFFFE5000000
000000000004FFFFFF500000
00000000000DFFFFFFF30000
0000000001AFFFFFFFF80000
000000003DFFFFFFFFFF3000
00000005FFFFFFFFFFFFC000
0000009FFFFFFF929FFFF600
00001BFFFFFFE4000BFFFD00
0001DFFFFFFB100003FFFF50
001CFFFFFF70000000BFFF80
00AFFFFFF606B86000DFFF80
04FFFFFF500EFFF905FFFF80
0BFFFFF50009FFFF9EFFFF60
1FFFFF800001DFFFFFFFFF30
2FFFFD1000003FFFFFFFFB00
0EFFF600026AEFFFFFFFD100
0DFFF659DFFFFFFFFFFE3000
0BFFFFFFFFFFFFFFFFFD0000
09FFFFFFFFFFFFFFFFFF4000
01CFFFFFFFFFFFC7FFFF9000
0008EFFFFFEB7200AFFFD100
00001687530000004FFFD000
000000000000000006ED3000
000000000000000000100000
ENDCHAR
STARTCHAR r
ENCODING 114
SWIDTH 541 0
DWIDTH 19 0
BBX 20 24 0 -2
BITMAP
00000000017B30000000
000000002DFFF8000000
00000002DFFFFF800000
0000000BFFFFFFF80000
0000008FFFFFFFFF3000
000005FFFFFFFFFFA000
000ECFFFFF9BFFFFF100
004FFFFFF900CFFFF700
007FFFFFB0006FFFFA00
00BFFFFF1039EFFFFA00
00EFFFFD8CFFFFFFF700
02FFFFFFFFFFFFFFD100
07FFFFFFFFFFFFFB1000
0AFFFFFFFFFFFB500000
0CFFFFFFFFC720000000
0EFFFFFFFA0000000000
2FFFFFFFFFC300000000
5FFFFFFFFFFFC7400000
8FFFFBEFFFFFFFFFC960
5FFFF52DFFFFFFFFFFF3
1FFFE0018EFFFFFFFFF7
09FF6000017CFFFFFFF6
00420000000038DFFFD1
00000000000000013300
ENDCHAR
STARTCHAR s
ENCODING 115
SWIDTH 463 0
DWIDTH 17 0
BBX 21 23 0 -1
BITMAP
000000000002589A973000
0000000038CFFFFFFFE100
0000027DFFFFFFFFFFFA00
0016CFFFFFFFFFFFFFFF30
03DFFFFFFFFFFFFFFFFFA0
2EFFFFFFFFFEA8CBAABA20
6FFFFFFFD6200000000000
8FFFFFFFFA400000000000
7FFFFFFFFFF92000000000
3FFFFFFFFFFFC000000000
03BFFFFFFFFFF300000000
00003468BFFFFD10000000
00000000028EFF90000000
00000000000AFFE0000000
00000000006FFFF0000000
0000000018FFFFD0000000
00000017EFFFFF70000000
00446AEFFFFFFD10000000
03FFFFFFFFFFE200000000
03FFFFFFFFFC2000000000
03FFFFFFFE700000000000
01DFFFFD71000000000000
0038864000000000000000
ENDCHAR
STARTCHAR t
ENCODING 116
SWIDTH 479 0
DWIDTH 17 0
BBX 24 23 0 -1
BITMAP
000000000150024689ABA400
111234578CFEFFFFFFFFFF40
CFFFFFFFFFFFFFFFFFFFFFE2
EFFFFFFFFFFFFFFFFFFFFFF5
BFFFFFFFFFFFFFFFFFFFFEA1
6FFFFFFFFFFFFDA864322000
08EEDCA9FFFFF50000000000
00000004FFFFD00000000000
0000000BFFFF700000000000
0000004FFFFF100000000000
000000AFFFFB000000000000
000001EFFFF3000000000000
000006FFFFC0000000000000
00000BFFFF50000000000000
00002FFFFD00000000000000
00006FFFF700000000000000
00009FFFE000000000000000
0000AFFFA000000000000000
0000AFFF8000000000000000
00005FFFA000000000000000
00001FFFFA00000000000000
000009FFFB00000000000000
0000004BA200000000000000
ENDCHAR
STARTCHAR u
ENCODING 117
SWIDTH 584 0
DWIDTH 21 0
BBX 21 22 1 0
BITMAP
0000000000000000053000
00000000000000001FF400
00020000000000001FFD00
007F4000000000009FFF10
01FFD20000000000CFFF60
05FFFB0000000000EFFFB0
07FFFF2000000003FFFFD0
09FFFF7000000007FFFFB0
0CFFFF900000000DFFFF70
0FFFFF500000005FFFFF50
2FFFFF10000001DFFFFE10
3FFFFE0000000AFFFFF700
3FFFFE000000AFFFFFD000
3FFFFE00001BFFFFFF6000
2FFFFF2028EFFFFFFC0000
2FFFFFBCFFFFFFFF800000
1DFFFFFFFFFFFFFA000000
04FFFFFFFFFFFFD1000000
03FFFFFFFFFFFD30000000
00AFFFFFFFFFC200000000
003FFFFFFFD60000000000
0002ADDEB5000000000000
ENDCHAR
STARTCHAR v
ENCODING 118
SWIDTH 485 0
DWIDTH 17 0
BBX 19 23 2 -1
BITMAP
03300000000000294100
4FF30000000002DFF800
9FFB100000001DFFFE00
9FFF90000000CFFFFF10
8FFFF1000009FFFFFC00
7FFFF500005FFFFFF600
6FFFF80002EFFFFFA000
5FFFFA000BFFFFFC1000
5FFFFB005FFFFFE20000
6FFFFD01EFFFFF300000
5FFFFE09FFFFF6000000
3FFFFF6FFFFFA0000000
0EFFFFFFFFFE10000000
0DFFFFFFFFF600000000
0CFFFFFFFFD000000000
09FFFFFFFE2000000000
06FFFFFFF80000000000
02FFFFFFE10000000000
00EFFFFF400000000000
007FFFFB000000000000
004FFFF9000000000000
0006FFD2000000000000
00004610000000000000
ENDCHAR
STARTCHAR w
ENCODING 119
SWIDTH 825 0
DWIDTH 30 0
BBX 32 23 0 -1
BITMAP
00000000000000000000000000027000
000006E70000000000000000000AFA00
00003FFF6000000015000000002FFF80
0000CFFFF5000000BFA10000009FFFE1
0003FFFFF4000006FFF9000001EFFFF5
000AFFFFF100002EFFFF400006FFFFF6
001EFFFFA00000BFFFFF50000CFFFFE1
005FFFFF600005FFFFFF20004FFFFF80
009FFFFF10001EFFFFFE0000AFFFFF20
00DFFFFA00008FFFFFFB0001FFFFFA00
01FFFFF50003FFFFFFF70007FFFFF400
05FFFFF1000CFFFFFFF4001EFFFFC000
08FFFFC0007FFFFFFFF2008FFFFF6000
0BFFFF8005FFFFFFFFF103FFFFFE0000
0EFFFF504FFFFFFFFFF34EFFFFF70000
2FFFFF37FFFFFFFFFFFCFFFFFFE10000
3FFFFFDFFFFFFFB9FFFFFFFFFF700000
0DFFFFFFFFFFFA01EFFFFFFFFD000000
06FFFFFFFFFF90008FFFFFFFF3000000
00DFFFFFFFF600001DFFFFFF60000000
004EFFFFFC30000005FFFFF900000000
00019FEA40000000008FFF7000000000
00000000000000000004320000000000
ENDCHAR
STARTCHAR x
ENCODING 120
SWIDTH 506 0
DWIDTH 18 0
BBX 22 24 -1 -2
BITMAP
0001200000000000000000
0004FD600000000002AB10
0009FFFB100000007FFF90
0008FFFFC100002BFFFFF2
000BFFFFFB0005EFFFFFF6
0006FFFFFF719FFFFFFFD0
0000DFFFFFFDFFFFFFFB30
00002EFFFFFFFFFFFE5000
000004FFFFFFFFFFB10000
0000008FFFFFFFF7000000
0000007FFFFFFE40000000
000007FFFFFFF800000000
00006FFFFFFFFF30000000
0006FFFFFFFFFFB0000000
004FFFFFFFFFFFF7000000
02EFFFFFE3CFFFFF400000
0BFFFFFD202FFFFFE00000
2FFFFFD10007FFFFF40000
6FFFFE200000DFFFF90000
8FFFF40000006FFFFA0000
6FFFA00000001EFFF40000
1EFF7000000004EFA00000
05FA100000000025000000
0010000000000000000000
ENDCHAR
STARTCHAR y
ENCODING 121
SWIDTH 400 0
DWIDTH 14 0
BBX 18 24 1 -2
BITMAP
05810000000018D400
0EFE80000001DFFE60
0FFFF800001CFFFFF3
0DFFFD0001CFFFFFF3
0BFFFF100AFFFFFF80
0AFFFF404FFFFFF700
08FFFF71DFFFFF9000
04FFFFBBFFFFFC0000
02FFFFFFFFFFC10000
00CFFFFFFFFF200000
007FFFFFFFF7000000
001EFFFFFFD0000000
0004FFFFFF50000000
0004FFFFFB00000000
000DFFFFF300000000
006FFFFF7000000000
00EFFFFD1000000000
06FFFFF60000000000
0EFFFFD00000000000
4FFFFF400000000000
7FFFFB000000000000
2EFFF4000000000000
04DF90000000000000
000200000000000000
ENDCHAR
STARTCHAR z
ENCODING 122
SWIDTH 547 0
DWIDTH 20 0
BBX 22 24 -1 -2
BITMAP
0000001245531222113100
000008FFFFFFFFFFFFFF60
00000AFFFFFFFFFFFFFFD2
000008FFFFFFFFFFFFFFFB
000003FFFFFFFFFFFFFFFB
0000007FEDCA9CFFFFFFF6
0000000000003FFFFFFF80
000000000006FFFFFFE500
00000000019FFFFFFC1000
000000004DFFFFFFC10000
0000001AFFFFFFFD100000
000004EFFFFFFFB1000000
00007FFFFFFFF700000000
002CFFFFFFFC3000000000
03FFFFFFFF800000000000
0AFFFFFFD3000000550000
1FFFFFFA1000369EFF6000
4FFFFFE2048DFFFFFFD900
5FFFFFFFFFFFFFFFFFF900
3FFFFFFFFFFFFFFFFF9100
0AFFFFFFFFFFFFFE930000
02EFFFFFFFFDEA50000000
003AEFFFFC610000000000
0000365300000000000000
ENDCHAR
STARTCHAR braceleft
ENCODING 123
SWIDTH 448 0
DWIDTH 16 0
BBX 29 39 0 -6
BITMAP
000000000000000334556775420000
000000000038ABEFFFFFFFFFFFC200
0000000000AFFFFFFFFFFFFFFFFC30
00000000009FFFFFFFFFFFFFFFFFA0
00000000008FFFFFFFFFFFFFFFFF70
0000000000AFFFFFFFEEEDDCA86200
0000000000CFFFF831000000000000
0000000001FFFFF300000000000000
0000000004FFFFF000000000000000
0000000007FFFFB000000000000000
000000000BFFFF8000000000000000
000000000EFFFF4000000000000000
000000004FFFFF1000000000000000
00000004CFFFFC0000000000000000
000004CFFFFFF90000000000000000
0043CFFFFFFFF50000000000000000
0BFFFFFFFFFF910000000000000000
3FFFFFFFFE92000000000000000000
3FFFFFFF9200000000000000000000
0DFFFFFF8100000000000000000000
07FFFFFFFD50000000000000000000
006FFFFFFFF9000000000000000000
0004EFFFFFFA000000000000000000
00001BFFFFF6000000000000000000
000009FFFFF2000000000000000000
00000DFFFFC0000000000000000000
00002FFFFF70000000000000000000
00007FFFFF30000000000000000000
0000CFFFFD00000000000000000000
0001FFFFF900000000000000000000
0006FFFFF400000000000000000000
000AFFFFE000000000000000000000
000EFFFFA234556630000000000000
003FFFFFFFFFFFFFE6000000000000
00BFFFFFFFFFFFFFFF700000000000
00AFFFFFFFFFFFFFFFB00000000000
007FFFFFFFFFFFFFFE300000000000
002FFFFFFECBDA7771000000000000
0007DC952000000000000000000000
ENDCHAR
STARTCHAR bar
ENCODING 124
SWIDTH 332 0
DWIDTH 12 0
BBX 12 28 0 -1
BITMAP
000000000610
000000007F90
00000001EFF3
00000006FFF8
0000000CFFFC
0000001FFFFD
0000006FFFF8
000000CFFFF2
000002FFFFB0
000004FFFF50
000009FFFE00
00001EFFF900
00005FFFF300
0000BFFFD000
0001FFFF8000
0005FFFF4000
0009FFFE0000
001EFFFA0000
005FFFF60000
00BFFFF10000
03FFFFB00000
0AFFFF500000
3FFFFB000000
AFFFF9000000
DFFFF1000000
EFFFD0000000
8FFF60000000
039300000000
ENDCHAR
STARTCHAR braceright
ENCODING 125
SWIDTH 481 0
DWIDTH 17 0
BBX 28 39 -11 -6
BITMAP
0000000000000567889A97510000
0000000006BDFFFFFFFFFFFE3000
000000000DFFFFFFFFFFFFFFD300
000000000CFFFFFFFFFFFFFFF700
000000000AFFFFFFFFFFFFFFF600
0000000004FFFFFDBBCDFFFFF200
00000000006A73000005FFFFE000
00000000000000000008FFFFB000
0000000000000000000CFFFF7000
0000000000000000001FFFFF4000
0000000000000000004FFFFF1000
0000000000000000009FFFFC0000
000000000000000000EFFFF80000
000000000000000003FFFFF40000
000000000000000008FFFFF10000
00000000000000000CFFFFD00000
00000000000000002FFFFFFC2000
00000000000000006FFFFFFFE600
000000000000000019FFFFFFFF60
0000000000000000003CFFFFFFF2
00000000000000000001CFFFFFF7
0000000000000000006DFFFFFFF9
00000000000000006DFFFFFFFFF5
000000000000000BFFFFFFFFBA70
000000000000002FFFFFFFC70000
000000000000006FFFFFE8000000
00000000000000AFFFFE20000000
00000000000000EFFFFA00000000
00000000000005FFFFF600000000
00000000000009FFFFF100000000
0000000000000EFFFFB000000000
0000000000004FFFFF7000000000
000000013455AFFFFF2000000000
0457ABDFFFFFFFFFFC0000000000
5FFFFFFFFFFFFFFFF70000000000
5FFFFFFFFFFFFFFFF20000000000
1FFFFFFFFFFFFFFF800000000000
0BFFFFFFDBCC8774000000000000
02DCA63000000000000000000000
ENDCHAR
STARTCHAR asciitilde
ENCODING 126
SWIDTH 581 0
DWIDTH 21 0
BBX 20 8 0 7
BITMAP
00000244310000000020
0004DFFFFF800008DFFB
007FFFFFFFFC106FFFF7
04FFFFFFFFFFB8FFFFD0
1DFFFF9EFFFFFFFFFF30
8FFFF503EFFFFFFFF600
EFFE80002CFFFFFD4000
24200000003666400000
ENDCHAR
STARTCHAR uni00A0
ENCODING 160
SWIDTH 370 0
DWIDTH 13 0
BBX 1 1 0 0
BITMAP
00
ENDCHAR
STARTCHAR exclamdown
ENCODING 161
SWIDTH 260 0
DWIDTH 9 0
BBX 11 28 -1 -1
BITMAP
0000007A4000
00002BFFF500
00007FFFFB00
0000BFFFFF20
0000FFFFFF20
0000AFFFF400
0000036A7000
000000000000
000000000000
000058400000
0006FFF90000
000DFFFE0000
003FFFFD0000
007FFFFB0000
00BFFFF90000
00DFFFF70000
01FFFFF50000
03FFFFF30000
06FFFFB00000
08FFFF600000
0CFFFF400000
1FFFFF400000
3FFFFE200000
1FFFFC000000
3FFFF7000000
2EFFF1000000
06FFA0000000
01C800000000
ENDCHAR
STARTCHAR cent
ENCODING 162
SWIDTH 488 0
DWIDTH 18 0
BBX 17 28 0 -1
BITMAP
000000000004000000
00000000007F600000
0000000001EFE10000
0000000007FFF50000
000000000CFFFA0000
000000001FFFFFB300
000000006FFFFFFD40
00000006EFFFFFFFC0
000007DFFFFFFFFF90
0002BFFFFFFFFFFA10
002DFFFFFFFEA61000
01DFFFFFFF71000000
0BFFFFFFA300000000
5FFFFFD30000000000
9FFFFC100000000000
9FFFD1000000000000
7FFF80000000000000
4FFFB0000000000000
0EFFFDA76433221000
07FFFFFFFFFFFFD200
00AFFFFFFFFFFFFD00
0006EFFFFFFFFFFD00
0000BFFFFFFFFFA100
0003FFFFF333110000
0007FFFF8000000000
0008FFFF5000000000
0004FFFD1000000000
00002A910000000000
ENDCHAR
STARTCHAR sterling
ENCODING 163
SWIDTH 586 0
DWIDTH 21 0
BBX 22 22 -1 2
BITMAP
0000000000000353100000
00000000002AEFFFFBAB60
0000000005EFFFFFFFFFF5
000000004FFFFFFFFFFFFC
00000000EFFFFFFFFFFFFC
00000006FFFFFC6569EFF9
0000000CFFFFA000000340
0000002FFFFE1000000000
000013AFFFFEA874100000
01CEFFFFFFFFFFFFD00000
04FFFFFFFFFFFFFFFD1000
02FFFFFFFFFFFFFFFF2000
00CFFFFFFFFFFEDA830000
003CDFFFFF100000000000
00000FFFFC000000000000
00004FFFF9000004981000
02448FFFFA668BEFFFD000
3EFFFFFFFFFFFFFFFFF400
4FFFFFFFFFFFFFFFFFF600
0BFFFFFFFFFFFFFFFFD300
01DFFFFFFFFFFFEB862000
0013567654321100000000
ENDCHAR
STARTCHAR currency
ENCODING 164
SWIDTH 509 0
DWIDTH 18 0
BBX 18 20 0 0
BITMAP
000410000120000000
001EFA103CFB006DB0
002FFFD6FFFFBBFFF6
003FFFFFFFFFFFFFFD
002EFFFFFFFFFFFFF6
0008FFFFFFFFFFFE70
0009FFFFFFFFFFB200
005FFFFFFEFFFF6000
01EFFFFD22FFFFD000
06FFFFE2009FFFF200
0AFFFF6138FFFFF600
0CFFFFFFFFFFFFF600
0CFFFFFFFFFFFFE100
0CFFFFFFFFFFFF5000
4FFFFFFFFFFFFF5000
7FFFFFFFDADFFFA000
9FFF3011007FFFA000
6FFC0000001DFF3000
0CF500000001950000
012000000000000000
ENDCHAR
STARTCHAR yen
ENCODING 165
SWIDTH 563 0
DWIDTH 20 0
BBX 21 24 0 -1
BITMAP
00001720000000004A7000
0000AFF810000008FFF700
0000BFFFA000007FFFFF70
00009FFFF10007FFFFFF80
00007FFFF5005FFFFFFD10
00006FFFF701DFFFFFC100
00004FFFFB09FFFFFD1000
00001FFFFE6FFFFFF20000
00000DFFFFFFFFFF400000
000009FFFFFFFFF7000000
000006FFFFFFFFE3000000
1ABDEFFFFFFFFFFFE50000
6FFFFFFFFFFFFFFFFE8000
4FFFFFFFFFFFFFFFFFF000
1EFFFFFFFFFFFFFFEB6000
06FFEDFFFFFD5442000000
002308FFFFF40000000000
00001EFFFFB00000000000
00009FFFFF400000000000
0000EFFFF9000000000000
0003FFFFF2000000000000
0000DFFF90000000000000
00003DFD10000000000000
0000003100000000000000
ENDCHAR
STARTCHAR brokenbar
ENCODING 166
SWIDTH 301 0
DWIDTH 11 0
BBX 13 28 -1 -1
BITMAP
00000000024000
000000001EE200
000000008FF900
00000000EFFE00
00000004FFFF40
00000009FFFF50
0000000DFFFE10
0000004FFFF900
000000BFFFF300
000002FFFFC000
000005FFFF6000
000005FFFF2000
000001CFF70000
00000004400000
00000000000000
00000000000000
00008710000000
0007FFE4000000
001EFFFB000000
006FFFF9000000
00CFFFF4000000
03FFFFC0000000
0CFFFF60000000
3FFFFE20000000
6FFFF800000000
7FFFF500000000
2EFFB100000000
01770000000000
ENDCHAR
STARTCHAR section
ENCODING 167
SWIDTH 630 0
DWIDTH 23 0
BBX 23 33 0 -4
BITMAP
000000000000002445510000
000000000269CEFFFFFE7000
00000049DFFFFFFFFFFFF500
00009EFFFFFFFFFFFFFFFE10
0008FFFFFFFFFFFFFFFFFE20
0009FFFFFFFFFFFFFFFFF900
000DFFFFFFFEC964348B5000
000EFFFFFF60000000000000
000CFFFFFFF9200000000000
0006FFFFFFFFFA4000000000
0000BFFFFFFFFFFD50000000
00002EFFFFFFFFFFF9100000
0005EFFFFFFFFFFFFFD10000
004FFFFFFFFFFFFFFFFC1000
01DFFFFFFFFFFEFFFFFFA000
06FFFFFFE954118EFFFFF000
0AFFFFF610000018FFFFF500
05FFFFFB401449EFFFFFF200
01EFFFFFFDFFFFFFFFFFA000
004EFFFFFFFFFFFFFFFE2000
0005FFFFFFFFFFFFFFD30000
00004DFFFFFFFFFFFB100000
0000019FFFFFFFFFFF500000
000000017DFFFFFFFFE10000
00000000005DFFFFFFF70000
000000000000AFFFFFFA0000
006A622358BDFFFFFFF80000
1CFFFFFFFFFFFFFFFFF60000
5FFFFFFFFFFFFFFFFFF40000
6FFFFFFFFFFFFFFFFE700000
0AFFFFFFFFFFFFD940000000
01BFFFFFFFD9620000000000
000466552000000000000000
ENDCHAR
STARTCHAR dieresis
ENCODING 168
SWIDTH 754 0
DWIDTH 27 0
BBX 16 7 8 20
BITMAP
0015000000131100
2CEF800001EFFE40
AFFFF80004FFFFF3
DFFFFF2004FFFFF7
EFFFFD0005FFFFF2
9FFFB100017EFD50
0676100000025100
ENDCHAR
STARTCHAR copyright
ENCODING 169
SWIDTH 614 0
DWIDTH 22 0
BBX 22 24 0 3
BITMAP
0000000000001100000000
000000000239FFE6000000
00000005DFFFFFFFB30000
0000008FFFFFFD9CFF6000
000009FFFFE94000BFF600
00009FFFF71000112EFF50
0006FFFE200028EF37FFC0
002EFFF4003AFFFFC1FFF2
008FFF9019FFFFFF70BFF7
02FFFD11CFFFFD95007FFC
07FFF60CFFFD5000004FFD
0DFFE07FFF600000003FFD
1FFF80AFE3000000004FFE
3FFF30BF80000000007FFD
4FFF40BFC400000000DFFA
3FFF707FFFECA81006FFF4
0EFFA01CFFFFFF805FFFC0
09FFE0017DFFFF63FFFE20
02EFF6000025532CFFF500
005FFE3000003AFFFE4000
0007FFFC867BFFFFE40000
00004CFFFFFFFFFA200000
0000005BFFFFEA30000000
0000000001330000000000
ENDCHAR
STARTCHAR ordfeminine
ENCODING 170
SWIDTH 454 0
DWIDTH 16 0
BBX 17 16 0 7
BITMAP
00000000CEB5000000
00000009FFFF600000
000018CFFFFF900000
00009FFFFFFFB00000
0002FFFFFFFFE00000
000BFFFFFFFFF20000
002FFFFFEFFFF60000
009FFFFE4FFFFFC400
02FFFFFEDFFFFFFE20
0AFFFFFFFFFFFFFD10
2FFFFFFFFFFFFFD200
9FFFFFFFFFFFFFA000
EFFFF3579FFFFFA000
DFFFD0004FFFFF4000
6FFF600009FFF70000
047300000068300000
ENDCHAR
STARTCHAR guillemotleft
ENCODING 171
SWIDTH 566 0
DWIDTH 20 0
BBX 21 17 -1 -1
BITMAP
0000000003400000004300
000000006FF3000008FE10
00000006FFF700008FFF40
0000007FFFF70009FFFF40
00002AFFFFE203BFFFFC10
0006DFFFFE307EFFFFD200
079FFFFFE38AFFFFFC2000
3FFFFFFC26FFFFFFA10000
5FFFFF8008FFFFE6000000
3FFFF90006FFFF60000000
0DFFFF9102EFFFF7000000
03FFFFFD205FFFFFB00000
004EFFFFC007FFFFF90000
0003DFFFF4005EFFFF1000
00001CFFFB0003DFFF8000
0000005DFE000006EFC000
0000000187000000195000
ENDCHAR
STARTCHAR logicalnot
ENCODING 172
SWIDTH 698 0
DWIDTH 25 0
BBX 23 14 0 -1
BITMAP
000000001112233200000000
2688ACFFFFFFFFFFFFDA3000
AFFFFFFFFFFFFFFFFFFFE600
8FFFFFFFFFFFFFFFFFFFFF60
7FFFFFFFFFFFFFFFFFFFFF80
0CFFFFFDCAAAA9988EFFFF40
00674200000000002FFFFD00
0000000000000000AFFFF700
0000000000000002FFFFF200
0000000000000008FFFF9000
000000000000000AFFFF4000
0000000000000009FFFF1000
0000000000000002AFE30000
000000000000000002100000
ENDCHAR
STARTCHAR sfthyphen
ENCODING 173
SWIDTH 608 0
DWIDTH 22 0
BBX 20 7 0 6
BITMAP
00000000112332100000
0578ADFFFFFFFFFFC600
1EFFFFFFFFFFFFFFFF70
0EFFFFFFFFFFFFFFFFF5
0DFFFFFFFFFFFFFFFFC3
05FFFFECBAA998764200
00474100000000000000
ENDCHAR
STARTCHAR registered
ENCODING 174
SWIDTH 624 0
DWIDTH 22 0
BBX 22 24 1 3
BITMAP
0000000000001000000000
00000000136EFFA1000000
0000002BFFFFFFFD600000
000005DFFFFFFAAFFA1000
00004FFFFFB61005FFB100
0004EFFFC2019910AFFA00
001FFFF7002DFFB11FFF20
00AFFFA000CFFFF90BFF70
03FFFD114BFFEFFE06FFD0
0BFFF405FFFA1DFF42FFF2
2FFFB00BFFC03CFF50EFF3
7FFF400FFFBCFFFE10DFF4
BFFD005FFFFFFFD300EFF4
DFF800AFFFFFB50002FFF3
DFF900DFFFF7000008FFE2
DFFD03FFFFFFB6202EFFA0
9FFF15FF9CFFFFFEEFFF30
4FFF53FE207EFFFFFFF700
0BFFB06300016BFFFF9000
02DFF70000017EFFF90000
003EFFEA769EFFFF800000
00019FFFFFFFFFD5000000
0000029EFFFFC500000000
0000000012310000000000
ENDCHAR
STARTCHAR macron
ENCODING 175
SWIDTH 754 0
DWIDTH 27 0
BBX 13 6 9 21
BITMAP
02234688887500
4FFFFFFFFFFF50
8FFFFFFFFFFFD0
8FFFFFFFFFFFC0
8FFFFFFFFFFC20
3A863213101000
ENDCHAR
STARTCHAR degree
ENCODING 176
SWIDTH 284 0
DWIDTH 10 0
BBX 11 12 3 18
BITMAP
000000230000
000006EE3000
00008FFFC000
001AFFFFB000
00CFFFFFF300
09FFFFFFFB00
4FFFE4CFFF30
AFFF73CFFF70
EFFFFFFFFF90
EFFFFFFFFF40
7FFFFFFFD300
07DEEC940000
ENDCHAR
STARTCHAR plusminus
ENCODING 177
SWIDTH 559 0
DWIDTH 20 0
BBX 22 26 -1 -1
BITMAP
0000000000019C10000000
00000000001CFF70000000
00000000006FFFF4000000
0000000000BFFFF6000000
0000000002FFFFF3000000
0000000005FFFFF6000000
000000000AFFFFF4000000
0002357ABEFFFFFECB7100
004FFFFFFFFFFFFFFFFD20
004FFFFFFFFFFFFFFFFFE1
002FFFFFFFFFFFFFFFFFE1
000BFFFFFFFFFFCCBA7400
00019B75FFFFFD00000000
00000002FFFFFA00000000
00000004FFFFF600000000
00000006FFFFF200000000
00000007FFFFC000000000
00000004EFFF4000000000
0000000017830000000000
0000000000000000000000
14569CCDDEEFFDB9500000
BFFFFFFFFFFFFFFFF70000
BFFFFFFFFFFFFFFFFF8000
AFFFFFFFFFFFFFFFFF7000
3FFFFFFEDDDCCBA8510000
04A8531000000000000000
ENDCHAR
STARTCHAR twosuperior
ENCODING 178
SWIDTH 386 0
DWIDTH 14 0
BBX 14 14 2 12
BITMAP
01578997300000
1DFFFFFFFB1000
4FFFFFFFFFB100
3FFFFFFFFFF700
09EFCDFFFFFA00
00019FFFFFF300
002CFFFFFE4000
02DFFFFFC20000
1CFFFFFA57AC70
5FFFFFFFFFFFF3
7FFFFFFFFFFFFA
4FFFFFFFFFFFE4
0BFFFFFFCA7400
00356520000000
ENDCHAR
STARTCHAR threesuperior
ENCODING 179
SWIDTH 366 0
DWIDTH 13 0
BBX 13 14 2 12
BITMAP
00025789980000
09EFFFFFFFA000
5FFFFFFFFFF700
7FFFFFFFFFFB00
3FFFFFFFFFF400
059EFFFFFE3000
000CFFFFFF7000
0007FFFFFFF500
00004AEFFFFE10
001BABDFFFFF30
006FFFFFFFFF10
007FFFFFFFF700
005FFFFFFB3000
00036764100000
ENDCHAR
STARTCHAR acute
ENCODING 180
SWIDTH 754 0
DWIDTH 27 0
BBX 11 11 10 16
BITMAP
00000005B200
0000006FFC10
00000BFFFF80
0000BFFFFFE0
000AFFFFFFE0
00AFFFFFFB30
08FFFFFF9000
6FFFFFF70000
5FFFFF500000
4FFFD3000000
0BD700000000
ENDCHAR
STARTCHAR mu
ENCODING 181
SWIDTH 569 0
DWIDTH 21 0
BBX 22 24 -1 -4
BITMAP
0000000000000000004000
000000000000000006F800
000003000000000008FF20
00009F30000000000FFF60
0001FFD2000000002FFFB0
0004FFF8000000005FFFF1
0007FFFE000000009FFFF1
0009FFFF30000001EFFFC0
000CFFFF10000006FFFF90
000EFFFC0000001EFFFF40
004FFFFA000000AFFFFC00
007FFFF900000AFFFFF400
00CFFFFA0002CFFFFFC000
00DFFFFD049FFFFFFC3000
00FFFFFFFFFFFFFFC10000
03FFFFFFFFFFFFFE200000
0AFFFFFFFFFFFFF5000000
0CFFFFFFFFFFFE40000000
0EFFFFFFFFFF8100000000
2FFFFBBDEE820000000000
3FFFF60000000000000000
5FFFF10000000000000000
5FFFB00000000000000000
05CB200000000000000000
ENDCHAR
STARTCHAR paragraph
ENCODING 182
SWIDTH 729 0
DWIDTH 26 0
BBX 27 29 2 -1
BITMAP
0000000000000000000130000000
000000000000002458ADFEC30000
000000001679BEFFFFFFFFFF8000
0000026BFFFFFFFFFFFFFFFFFA10
0003AFFFFFFFFFFFFFFFFFFFFF70
01AFFFFFFFFFFFFFFFFFFFFFFF40
2DFFFFFFFFFFFFFFFFFFFFFDA300
9FFFFFFFFFFFFFFF30EFFFE00000
BFFFFFFFFB8FFFFD02FFFFB00000
DFFFFFF8206FFFF905FFFF700000
BFFFFF6000AFFFF509FFFF400000
8FFFFF3000EFFFF20DFFFF100000
3FFFFFB303FFFFE02FFFFC000000
09FFFFFFDBFFFFC05FFFFA000000
01BFFFFFFFFFFFA06FFFF8000000
0006EFFFFFFFFFFEDFFFF3000000
00003CFFFFFFFFFFFFFFF2000000
00000039EFFFFFFFFFFFFD200000
00000000AFFFFFFFFFFFFF900000
00000000EFFFF7AFFFFFFB400000
00000002FFFFF41FFFFE10000000
00000004FFFFE05FFFFB00000000
00000004FFFFA07FFFF800000000
00000004FFFF609FFFFB00000000
00000009FFFF206FFFFE00000000
0000001EFFFE003FFFFF80000000
0000004FFFFC000DFFFFA0000000
0000002EFFF40005FFFF70000000
000000016A6000007DB920000000
ENDCHAR
STARTCHAR periodcentered
ENCODING 183
SWIDTH 226 0
DWIDTH 8 0
BBX 7 7 1 10
BITMAP
00022000
07CFD200
2FFFFD20
5FFFFFA0
6FFFFF60
2FFFF600
03974000
ENDCHAR
STARTCHAR cedilla
ENCODING 184
SWIDTH 754 0
DWIDTH 27 0
BBX 13 14 9 -11
BITMAP
00000010000000
00001AF9400000
0001CFFF700000
000AFFFC000000
001FFFF7000000
003FFFFFD70000
001EFFFFFFA000
00029EFFFFFC00
00000027DFFF60
00000002BFFFD0
29999BDFFFFFD0
6FFFFFFFFFFF40
1CFFFFFFFFE400
02ADDEEA940000
ENDCHAR
STARTCHAR onesuperior
ENCODING 185
SWIDTH 206 0
DWIDTH 7 0
BBX 7 14 2 12
BITMAP
01970000
07FFB100
09FFF900
07FFFD00
03FFFF00
02FFFF20
06FFFF10
0BFFFD00
1FFFF900
6FFFF400
AFFFD000
AFFF8000
6FFF3000
05630000
ENDCHAR
STARTCHAR ordmasculine
ENCODING 186
SWIDTH 445 0
DWIDTH 16 0
BBX 16 17 0 7
BITMAP
0000000005720000
00000001AFFE2000
0000001CFFFFD100
000004DFFFFFF500
00005FFFFFFFF200
0006FFFFFFFFF700
004FFFFFFFFFFE10
01DFFFFFFFFFFF70
09FFFFFC25FFFFE0
1FFFFFC100CFFFF3
6FFFFF2005EFFFF8
9FFFFE9BEFFFFFFA
9FFFFFFFFFFFFFF7
7FFFFFFFFFFFFFC1
1DFFFFFFFFFFFB10
03EFFFFFFFFA5000
0017ABCB85100000
ENDCHAR
STARTCHAR guillemotright
ENCODING 187
SWIDTH 595 0
DWIDTH 21 0
BBX 21 17 -1 -1
BITMAP
0052000000043000000000
02FE6000000EF810000000
01FFFD50000DFFE6000000
009FFFF70006FFFF800000
003FFFFFA001EFFFFB1000
0007FFFFFA005FFFFFC000
00006EFFFF6004EFFFF900
000002DFFFD0001BFFFF10
000005EFFFF2003DFFFF40
00019FFFFFF107FFFFFF30
002DFFFFFD91BFFFFFDB00
02EFFFFE901CFFFFFA1000
1DFFFFC300CFFFFD400000
AFFFF80007FFFFA1000000
AFFF700007FFF900000000
9FF7000006FF9000000000
1A60000000970000000000
ENDCHAR
STARTCHAR onequarter
ENCODING 188
SWIDTH 705 0
DWIDTH 25 0
BBX 23 28 1 -1
BITMAP
000000000000000004200000
003A400000000001BF900000
00CFF7000000000BFFC00000
00EFFF400000008FFFC00000
00CFFF90000004FFFFB00000
008FFFB000002EFFFF900000
007FFFC00001DFFFFE300000
00AFFFB00008FFFFF5000000
01EFFF90004FFFFF60000000
06FFFF4002EFFFF800000000
0BFFFE001CFFFFA000000000
0EFFF900BFFFFC1000000000
0FFFF308FFFFE20000120000
0BFFD03FFFFF400001EF4000
016612DFFFF8470007FFE000
00001DFFFFB4FFA00BFFF500
0000BFFFFC18FFF30DFFF300
000AFFFFE208FFF90FFFFA20
009FFFFF3006FFFFFFFFFFA0
05FFFFF60003FFFFFFFFFFE0
1EFFFF800001FFFFFFFFFF90
5FFFFB0000005FFFFFFE9400
9FFFF4000000025EFFF60000
CFFFF1000000001FFFE10000
DFFFF0000000004FFFE10000
CFFFE1000000002FFFF80000
6FFF50000000000BFFF50000
036500000000000189700000
ENDCHAR
STARTCHAR onehalf
ENCODING 189
SWIDTH 750 0
DWIDTH 27 0
BBX 25 28 1 -1
BITMAP
00000000000000000420000000
003A400000000001BF90000000
00CFF7000000000BFFC0000000
00EFFF400000008FFFC0000000
00CFFF90000004FFFFB0000000
008FFFB000002EFFFF90000000
007FFFC00001DFFFFE30000000
00AFFFB00008FFFFF500000000
01EFFF90004FFFFF6000000000
06FFFF4002EFFFF80000000000
0BFFFE001CFFFFA00000000000
0EFFF900BFFFFC100000000000
0FFFF308FFFFE2000000000000
0BFFD03FFFFF40000000000000
016612DFFFF839CEEEC7100000
00001DFFFFB0CFFFFFFFC00000
0000BFFFFC10EFFFFFFFFB0000
000AFFFFE200CFFFFFFFFF3000
009FFFFF300028A8DFFFFF3000
05FFFFF60000002DFFFFF80000
1EFFFF80000003EFFFFF800000
5FFFFB0000002DFFFFD5012000
9FFFF4000000CFFFFFABDFF500
CFFFF1000001FFFFFFFFFFFD10
DFFFF0000001FFFFFFFFFFFF10
CFFFE1000000DFFFFFFFFFC500
6FFF500000003CFFEC97410000
03650000000000010000000000
ENDCHAR
STARTCHAR threequarters
ENCODING 190
SWIDTH 818 0
DWIDTH 29 0
BBX 26 28 2 -1
BITMAP
00000011100000000000001000
02ACDFFFFF900000000009F400
0EFFFFFFFFF500000001BFF800
5FFFFFFFFFFC0000000BFFFA00
5FFFFFFFFFFA000000AFFFFB00
18CFFFFFFFC1000008FFFFF900
006FFFFFF80000009FFFFFC100
006FFFFFFD100005FFFFFC1000
0009FFFFFF70004EFFFFB10000
03967DFFFFC004EFFFFA000000
0DFFFFFFFFB04FFFFF90000000
4FFFFFFFFF54FFFFF800000000
6FFFFFFFE54FFFFF7000004000
07ACCB9502DFFFF700000BF900
000000002DFFFF8381003FFF20
00000002DFFFF82EFB009FFF60
0000003EFFFF808FFF30DFFF30
000004EFFFF800AFFF72FFFF91
00004EFFFF80009FFFFFFFFFF7
0003FFFFF800008FFFFFFFFFF8
001DFFFF8000007FFFFFFFFFE3
008FFFF80000001CFFFFFFB610
01EFFFE0000000005CFFFB0000
05FFFF80000000000EFFF30000
09FFFF50000000002FFFF10000
09FFFE20000000002FFFF70000
06FFF500000000000DFFF30000
00464000000000000299500000
ENDCHAR
STARTCHAR questiondown
ENCODING 191
SWIDTH 556 0
DWIDTH 20 0
BBX 22 29 -3 -2
BITMAP
0000000000000000005100
00000000000000003DFE10
0000000000000009FFFF80
000000000000000AFFFFF2
0000000000000008FFFFF1
0000000000000008FFFFE0
00000000000000006CFF60
0000000000000000002100
0000000000000000000000
0000000000000037530000
00000000000004EFFF2000
0000000000004FFFFF4000
00000000003CFFFFFC0000
000000002CFFFFFFF70000
00000008EFFFFFFF700000
000005BFFFFFFFF8000000
0002CFFFFFFFFE40000000
003EFFFFFFFFB200000000
01EFFFFFFFD50000000000
08FFFFFFFA100000000000
0DFFFFFF80000000010000
2FFFFFFFDB964334AFA100
1FFFFFFFFFFFFFFFFFFA00
1FFFFFFFFFFFFFFFFFFE10
2FFFFFFFFFFFFFFFFFFC00
08FFFFFFFFFFFFFFFFE200
0026BEFFFFFFFFFFFF4000
000000369CDFFFFFB20000
0000000000001221000000
ENDCHAR
STARTCHAR Agrave
ENCODING 192
SWIDTH 702 0
DWIDTH 25 0
BBX 27 39 -1 -1
BITMAP
00000000000006B1000000000000
0000000000006FFC100000000000
000000000001EFFFE40000000000
000000000006FFFFFF4000000000
000000000007FFFFFFE400000000
0000000000007FFFFFFE30000000
00000000000003EFFFFFD2000000
000000000000002DFFFFFD000000
0000000000000001BFFFFD000000
000000000000000008FFFC000000
0000000000000000003BE4000000
0000000000000000000000000000
000000000000007B610000000000
00000000000003FFFFC300000000
0000000000001DFFFFFA00000000
000000000002CFFFFFFC00000000
00000000289EFFFFFFFF00000000
00000000CFFFFFFFFFFF20000000
00000006FFFFFFFFFFFF30000000
0000000DFFFFFFFFFFFF70000000
0000006FFFFFFFFFFFFFA0000000
000001EFFFFFFF9FFFFFD0000000
000006FFFFFFF61FFFFFF1000000
00000BFFFFFF900CFFFFF4000000
00003FFFFFFD1009FFFFF9020000
0000BFFFFFF50005FFFFFFFE4000
0003FFFFFFA12469FFFFFFFFFB20
000AFFFFFFFFFFFFFFFFFFFFFE20
002FFFFFFFFFFFFFFFFFFFFFF500
009FFFFFEEFFFFFFFFFFFFFC3000
01FFFFFF9BFFFFFFFFFFFFF40000
08FFFFFE05FFFFFEBDFFFFF60000
0EFFFFF60068762006FFFFF80000
5FFFFFF1000000002CFFFFF80000
AFFFFFA00000000BFFFFFFF40000
4FFFFF7000000004EFFFFFB00000
1EFFFE30000000008FFFFD100000
03DFC200000000004DFFA1000000
0012000000000000014200000000
ENDCHAR
STARTCHAR Aacute
ENCODING 193
SWIDTH 702 0
DWIDTH 25 0
BBX 27 40 -1 -1
BITMAP
0000000000000000002B50000000
000000000000000003DFE4000000
00000000000000006FFFFD000000
0000000000000006FFFFFF400000
000000000000005FFFFFFF500000
00000000000005FFFFFFE5000000
0000000000003EFFFFFC20000000
000000000001EFFFFFB100000000
000000000001EFFFFA0000000000
000000000000EFFE700000000000
0000000000006EA2000000000000
0000000000000000000000000000
0000000000000000000000000000
000000000000007B610000000000
00000000000003FFFFC300000000
0000000000001DFFFFFA00000000
000000000002CFFFFFFC00000000
00000000289EFFFFFFFF00000000
00000000CFFFFFFFFFFF20000000
00000006FFFFFFFFFFFF30000000
0000000DFFFFFFFFFFFF70000000
0000006FFFFFFFFFFFFFA0000000
000001EFFFFFFF9FFFFFD0000000
000006FFFFFFF61FFFFFF1000000
00000BFFFFFF900CFFFFF4000000
00003FFFFFFD1009FFFFF9020000
0000BFFFFFF50005FFFFFFFE4000
0003FFFFFFA12469FFFFFFFFFB20
000AFFFFFFFFFFFFFFFFFFFFFE20
002FFFFFFFFFFFFFFFFFFFFFF500
009FFFFFEEFFFFFFFFFFFFFC3000
01FFFFFF9BFFFFFFFFFFFFF40000
08FFFFFE05FFFFFEBDFFFFF60000
0EFFFFF60068762006FFFFF80000
5FFFFFF1000000002CFFFFF80000
AFFFFFA00000000BFFFFFFF40000
4FFFFF7000000004EFFFFFB00000
1EFFFE30000000008FFFFD100000
03DFC200000000004DFFA1000000
0012000000000000014200000000
ENDCHAR
STARTCHAR Acircumflex
ENCODING 194
SWIDTH 702 0
DWIDTH 25 0
BBX 27 38 -1 -1
BITMAP
0000000000000006CA2000000000
00000000000001BFFFE600000000
0000000000002DFFFFFF70000000
000000000002DFFFFFFFF8000000
00000000003EFFFFDFFFFF900000
0000000005FFFFFD17FFFFFC0000
0000000007FFFFE2008FFFFF0000
0000000002FFFE300009FFF90000
00000000007FC10000006FD10000
0000000000061000000005200000
0000000000000000000000000000
000000000000007B610000000000
00000000000003FFFFC300000000
0000000000001DFFFFFA00000000
000000000002CFFFFFFC00000000
00000000289EFFFFFFFF00000000
00000000CFFFFFFFFFFF20000000
00000006FFFFFFFFFFFF30000000
0000000DFFFFFFFFFFFF70000000
0000006FFFFFFFFFFFFFA0000000
000001EFFFFFFF9FFFFFD0000000
000006FFFFFFF61FFFFFF1000000
00000BFFFFFF900CFFFFF4000000
00003FFFFFFD1009FFFFF9020000
0000BFFFFFF50005FFFFFFFE4000
0003FFFFFFA12469FFFFFFFFFB20
000AFFFFFFFFFFFFFFFFFFFFFE20
002FFFFFFFFFFFFFFFFFFFFFF500
009FFFFFEEFFFFFFFFFFFFFC3000
01FFFFFF9BFFFFFFFFFFFFF40000
08FFFFFE05FFFFFEBDFFFFF60000
0EFFFFF60068762006FFFFF80000
5FFFFFF1000000002CFFFFF80000
AFFFFFA00000000BFFFFFFF40000
4FFFFF7000000004EFFFFFB00000
1EFFFE30000000008FFFFD100000
03DFC200000000004DFFA1000000
0012000000000000014200000000
ENDCHAR
STARTCHAR Atilde
ENCODING 195
SWIDTH 702 0
DWIDTH 25 0
BBX 28 36 -1 -1
BITMAP
00000000000004ADDC910005ABA1
0000000000008FFFFFFD307FFFF2
000000000006FFFFFFFFD7FFFFB0
00000000001EFFFFFFFFFFFFFF20
0000000000AFFFF7CFFFFFFFF700
0000000001FFFF902DFFFFFF9000
00000000009BA600018CDDA50000
0000000000000000000000000000
0000000000000000000000000000
000000000000007B610000000000
00000000000003FFFFC300000000
0000000000001DFFFFFA00000000
000000000002CFFFFFFC00000000
00000000289EFFFFFFFF00000000
00000000CFFFFFFFFFFF20000000
00000006FFFFFFFFFFFF30000000
0000000DFFFFFFFFFFFF70000000
0000006FFFFFFFFFFFFFA0000000
000001EFFFFFFF9FFFFFD0000000
000006FFFFFFF61FFFFFF1000000
00000BFFFFFF900CFFFFF4000000
00003FFFFFFD1009FFFFF9020000
0000BFFFFFF50005FFFFFFFE4000
0003FFFFFFA12469FFFFFFFFFB20
000AFFFFFFFFFFFFFFFFFFFFFE20
002FFFFFFFFFFFFFFFFFFFFFF500
009FFFFFEEFFFFFFFFFFFFFC3000
01FFFFFF9BFFFFFFFFFFFFF40000
08FFFFFE05FFFFFEBDFFFFF60000
0EFFFFF60068762006FFFFF80000
5FFFFFF1000000002CFFFFF80000
AFFFFFA00000000BFFFFFFF40000
4FFFFF7000000004EFFFFFB00000
1EFFFE30000000008FFFFD100000
03DFC200000000004DFFA1000000
0012000000000000014200000000
ENDCHAR
STARTCHAR Adieresis
ENCODING 196
SWIDTH 702 0
DWIDTH 25 0
BBX 27 36 -1 -1
BITMAP
0000000000004200000032100000
0000000000ADFC10000AFFF80000
0000000004FFFFD1000DFFFF9000
0000000007FFFFF8000DFFFFD000
0000000008FFFFF4000EFFFF7000
0000000004FFFE400005CFE80000
0000000000376300000006300000
0000000000000000000000000000
0000000000000000000000000000
000000000000007B610000000000
00000000000003FFFFC300000000
0000000000001DFFFFFA00000000
000000000002CFFFFFFC00000000
00000000289EFFFFFFFF00000000
00000000CFFFFFFFFFFF20000000
00000006FFFFFFFFFFFF30000000
0000000DFFFFFFFFFFFF70000000
0000006FFFFFFFFFFFFFA0000000
000001EFFFFFFF9FFFFFD0000000
000006FFFFFFF61FFFFFF1000000
00000BFFFFFF900CFFFFF4000000
00003FFFFFFD1009FFFFF9020000
0000BFFFFFF50005FFFFFFFE4000
0003FFFFFFA12469FFFFFFFFFB20
000AFFFFFFFFFFFFFFFFFFFFFE20
002FFFFFFFFFFFFFFFFFFFFFF500
009FFFFFEEFFFFFFFFFFFFFC3000
01FFFFFF9BFFFFFFFFFFFFF40000
08FFFFFE05FFFFFEBDFFFFF60000
0EFFFFF60068762006FFFFF80000
5FFFFFF1000000002CFFFFF80000
AFFFFFA00000000BFFFFFFF40000
4FFFFF7000000004EFFFFFB00000
1EFFFE30000000008FFFFD100000
03DFC200000000004DFFA1000000
0012000000000000014200000000
ENDCHAR
STARTCHAR Aring
ENCODING 197
SWIDTH 702 0
DWIDTH 25 0
BBX 27 36 -1 -1
BITMAP
0000000000000000003B30000000
000000000000000005FFE2000000
00000000000000009FFFF3000000
000000000000000AFFFFF6000000
00000000000000AFFFFFFD000000
00000000000006FFFEDFFF600000
0000000000000EFFF32FFFB00000
0000000000004FFFE8CFFFF10000
0000000000006FFFFFFFFFE00000
0000000000004FFFFFFFFF500000
0000000000000BFFFFFFA3000000
0000000000002EFFFFFA00000000
000000000003DFFFFFFC00000000
00000000289FFFFFFFFF00000000
00000000CFFFFFFFFFFF20000000
00000006FFFFFFFFFFFF30000000
0000000DFFFFFFFFFFFF70000000
0000006FFFFFFFFFFFFFA0000000
000001EFFFFFFF9FFFFFD0000000
000006FFFFFFF61FFFFFF1000000
00000BFFFFFF900CFFFFF4000000
00003FFFFFFD1009FFFFF9020000
0000BFFFFFF50005FFFFFFFE4000
0003FFFFFFA12469FFFFFFFFFB20
000AFFFFFFFFFFFFFFFFFFFFFE20
002FFFFFFFFFFFFFFFFFFFFFF500
009FFFFFEEFFFFFFFFFFFFFC3000
01FFFFFF9BFFFFFFFFFFFFF40000
08FFFFFE05FFFFFEBDFFFFF60000
0EFFFFF60068762006FFFFF80000
5FFFFFF1000000002CFFFFF80000
AFFFFFA00000000BFFFFFFF40000
4FFFFF7000000004EFFFFFB00000
1EFFFE30000000008FFFFD100000
03DFC200000000004DFFA1000000
0012000000000000014200000000
ENDCHAR
STARTCHAR AE
ENCODING 198
SWIDTH 1153 0
DWIDTH 42 0
BBX 46 27 -3 -1
BITMAP
000000000000000001C940000000000000002468BCC500
00000000000000000BFFFE600000000269CFFFFFFFFF71
0000000000000000AFFFFFD0000269DFFFFFFFFFFFFFF6
000000000000001BFFFFFFE004CFFFFFFFFFFFFFFFFFF5
00000000000389EFFFFFFFE05FFFFFFFFFFFFFFFFFFF90
00000000001DFFFFFFFFFFE07FFFFFFFFFFFFFFFFFB400
0000000000BFFFFFFFFFFFE04FFFFFFFFFFFFD96310000
0000000005FFFFFFFFFFFFF01FFFFFFFFDB93000000000
000000001EFFFFFFFFFFFFF10CFFFFFC30000000000000
00000000BFFFFFFF9FFFFFF204FFFFFD11123430000000
00000004FFFFFFF80EFFFFF301EFFFFFFFFFFFD2000000
0000000BFFFFFF900DFFFFF407FFFFFFFFFFFFFD400000
0000006FFFFFFC000BFFFFF71DFFFFFFFFFFFFFFF40000
000001EFFFFFE1000AFFFFFFFFFFFFFFFFFFFFFFE30000
00000AFFFFFF42357CFFFFFFFFFFFFFFFFFFFFFA100000
00004FFFFFFFFFFFFFFFFFFFFFFFFFEFFFFFFA40000000
0001DFFFFFFFFFFFFFFFFFFFFFFFFD1132120000000000
0008FFFFFFEFFFFFFFFFFFFFFFFFF50000000000000000
002FFFFFF9BFFFFFFFFFFFFFFFFFC00000000003400000
00AFFFFFC07FFFFFDBEFFFFFFFFF500013456BEFF60000
04FFFFFE2017875100BFFFFFFFFFFEEFFFFFFFFFFF9000
0CFFFFF80000000005FFFFFFFFFFFFFFFFFFFFFFFFF300
3FFFFFF200000006EFFFFFFFFFFFFFFFFFFFFFFFFFD100
1FFFFFB000000001DFFFFFFEFFFFFFFFFFFFFFFFFE3000
0DFFFF40000000006FFFFF74FFFFFFFFFFFFFFFFA20000
03EFC200000000004EFFB3003BFFFFFFFDDC9741000000
0012000000000000014200000013443200000000000000
ENDCHAR
STARTCHAR Ccedilla
ENCODING 199
SWIDTH 611 0
DWIDTH 22 0
BBX 22 38 0 -12
BITMAP
0000000000000008BB3000
00000000000006DFFFF600
000000000005BFFFFFFF80
0000000003CFFFFFFFFFF3
000000028FFFFFFFFFFFF3
0000008FFFFFFFFFFFFFD0
00000BFFFFFFFFFFFFFE30
0002CFFFFFFFFFFFFC7100
001DFFFFFFFFFFC6100000
00CFFFFFFFFFD400000000
09FFFFFFFFFB1000000000
3FFFFFFFFB300000000000
AFFFFFFF70000000000000
FFFFFFF600000000000000
EFFFFF6000000000000000
EFFFFC0000000000000000
CFFFF50000000000000000
9FFFF70000000000000000
6FFFFD3000000000000000
1FFFFFFEB8754332210000
0AFFFFFFFFFFFFFFFFA000
02EFFFFFFFFFFFFFFFF900
004EFFFFFFFFFFFFFFFF20
0001AFFFFFFFFFFFFFFF30
000007CFFFFFFFFFFFE400
0000004FFFECEFECCB2000
000004FFFF300000000000
00000DFFF9000000000000
00000FFFFFA30000000000
00000FFFFFFF7000000000
000004DFFFFFF900000000
000000047CFFFF50000000
00000000007FFFE0000000
000344457AFFFFF1000000
003FFFFFFFFFFFA0000000
001EFFFFFFFFFB10000000
0002EFFFFFFB5000000000
0000034451000000000000
ENDCHAR
STARTCHAR Egrave
ENCODING 200
SWIDTH 626 0
DWIDTH 23 0
BBX 24 40 0 -1
BITMAP
00000000004B300000000000
0000000003EFE30000000000
000000000CFFFF7000000000
000000003FFFFFF700000000
000000003FFFFFFF60000000
0000000005DFFFFFF6000000
00000000001CFFFFFF400000
000000000001AFFFFFF20000
00000000000009FFFFF20000
000000000000006EFFF00000
00000000000000029E800000
000000000000000000000000
000000000000000000000000
000000000000002468ACC500
000000000269CFFFFFFFFF81
00000269DFFFFFFFFFFFFFF7
0004CFFFFFFFFFFFFFFFFFF5
004FFFFFFFFFFFFFFFFFFF90
006FFFFFFFFFFFFFFFFFC400
003FFFFFFFFFFFFD96410000
001FFFFFFFFEB93000000000
000BFFFFFD30000000000000
0004FFFFFE11123430000000
0001EFFFFFFFFFFFD2000000
0006FFFFFFFFFFFFFD400000
000DFFFFFFFFFFFFFFF50000
006FFFFFFFFFFFFFFFE30000
00CFFFFFFFFFFFFFFA100000
05FFFFFFEFFFFFFB40000000
0DFFFFFE1132120000000000
5FFFFFF50000000000000000
9FFFFFD00000000003400000
9FFFFF600013456BEFF70000
8FFFFFFEEFFFFFFFFFFF9000
5FFFFFFFFFFFFFFFFFFFF300
3FFFFFFFFFFFFFFFFFFFE100
0DFFFFFFFFFFFFFFFFFE3000
03FFFFFFFFFFFFFFFFA20000
003BFFFFFFFDDCA740000000
000003443200000000000000
ENDCHAR
STARTCHAR Eacute
ENCODING 201
SWIDTH 626 0
DWIDTH 23 0
BBX 24 40 0 -1
BITMAP
000000000000000005B20000
00000000000000006FFC1000
000000000000000BFFFF8000
00000000000000BFFFFFE000
0000000000000AFFFFFFE000
000000000000AFFFFFFB3000
000000000008FFFFFF900000
00000000006FFFFFF7000000
00000000005FFFFF50000000
00000000004FFFD300000000
00000000000BD70000000000
000000000000000000000000
000000000000000000000000
000000000000002468ACC500
000000000269CFFFFFFFFF81
00000269DFFFFFFFFFFFFFF7
0004CFFFFFFFFFFFFFFFFFF5
004FFFFFFFFFFFFFFFFFFF90
006FFFFFFFFFFFFFFFFFC400
003FFFFFFFFFFFFD96410000
001FFFFFFFFEB93000000000
000BFFFFFD30000000000000
0004FFFFFE11123430000000
0001EFFFFFFFFFFFD2000000
0006FFFFFFFFFFFFFD400000
000DFFFFFFFFFFFFFFF50000
006FFFFFFFFFFFFFFFE30000
00CFFFFFFFFFFFFFFA100000
05FFFFFFEFFFFFFB40000000
0DFFFFFE1132120000000000
5FFFFFF50000000000000000
9FFFFFD00000000003400000
9FFFFF600013456BEFF70000
8FFFFFFEEFFFFFFFFFFF9000
5FFFFFFFFFFFFFFFFFFFF300
3FFFFFFFFFFFFFFFFFFFE100
0DFFFFFFFFFFFFFFFFFE3000
03FFFFFFFFFFFFFFFFA20000
003BFFFFFFFDDCA740000000
000003443200000000000000
ENDCHAR
STARTCHAR Ecircumflex
ENCODING 202
SWIDTH 626 0
DWIDTH 23 0
BBX 24 38 0 -1
BITMAP
00000000000006C920000000
000000000002CFFFE5000000
00000000002DFFFFFF600000
0000000003EFFFFFFFF70000
000000004EFFFFDFFFFF8000
00000006FFFFFC18FFFFFB00
00000008FFFFD2009FFFFE00
00000003FFFE20000AFFF800
000000008FC10000007FD100
000000000610000000062000
000000000000000000000000
000000000000002468ACC500
000000000269CFFFFFFFFF81
00000269DFFFFFFFFFFFFFF7
0004CFFFFFFFFFFFFFFFFFF5
004FFFFFFFFFFFFFFFFFFF90
006FFFFFFFFFFFFFFFFFC400
003FFFFFFFFFFFFD96410000
001FFFFFFFFEB93000000000
000BFFFFFD30000000000000
0004FFFFFE11123430000000
0001EFFFFFFFFFFFD2000000
0006FFFFFFFFFFFFFD400000
000DFFFFFFFFFFFFFFF50000
006FFFFFFFFFFFFFFFE30000
00CFFFFFFFFFFFFFFA100000
05FFFFFFEFFFFFFB40000000
0DFFFFFE1132120000000000
5FFFFFF50000000000000000
9FFFFFD00000000003400000
9FFFFF600013456BEFF70000
8FFFFFFEEFFFFFFFFFFF9000
5FFFFFFFFFFFFFFFFFFFF300
3FFFFFFFFFFFFFFFFFFFE100
0DFFFFFFFFFFFFFFFFFE3000
03FFFFFFFFFFFFFFFFA20000
003BFFFFFFFDDCA740000000
000003443200000000000000
ENDCHAR
STARTCHAR Edieresis
ENCODING 203
SWIDTH 626 0
DWIDTH 23 0
BBX 24 36 0 -1
BITMAP
000000000042000000321000
00000000ADFC10000AFFF800
00000005FFFFC1000EFFFF80
00000008FFFFF7000EFFFFC0
00000009FFFFF3000FFFFF70
00000004FFFE300005CFE800
000000004762000000062000
000000000000000000000000
000000000000000000000000
000000000000002468ACC500
000000000269CFFFFFFFFF81
00000269DFFFFFFFFFFFFFF7
0004CFFFFFFFFFFFFFFFFFF5
004FFFFFFFFFFFFFFFFFFF90
006FFFFFFFFFFFFFFFFFC400
003FFFFFFFFFFFFD96410000
001FFFFFFFFEB93000000000
000BFFFFFD30000000000000
0004FFFFFE11123430000000
0001EFFFFFFFFFFFD2000000
0006FFFFFFFFFFFFFD400000
000DFFFFFFFFFFFFFFF50000
006FFFFFFFFFFFFFFFE30000
00CFFFFFFFFFFFFFFA100000
05FFFFFFEFFFFFFB40000000
0DFFFFFE1132120000000000
5FFFFFF50000000000000000
9FFFFFD00000000003400000
9FFFFF600013456BEFF70000
8FFFFFFEEFFFFFFFFFFF9000
5FFFFFFFFFFFFFFFFFFFF300
3FFFFFFFFFFFFFFFFFFFE100
0DFFFFFFFFFFFFFFFFFE3000
03FFFFFFFFFFFFFFFFA20000
003BFFFFFFFDDCA740000000
000003443200000000000000
ENDCHAR
STARTCHAR Igrave
ENCODING 204
SWIDTH 515 0
DWIDTH 19 0
BBX 26 41 -2 -1
BITMAP
000000000004B2000000000000
00000000004EFD300000000000
0000000000DFFFF60000000000
0000000004FFFFFF6000000000
0000000004FFFFFFF500000000
00000000005EFFFFFF50000000
000000000002CFFFFFF3000000
0000000000001BFFFFFE100000
00000000000000AFFFFE100000
0000000000000007EFFE000000
00000000000000002AE6000000
00000000000000000000000000
00000000000000000000000000
00000000000000011221000000
0000001456ADEEFFFFFFED9300
000000CFFFFFFFFFFFFFFFFE10
000001EFFFFFFFFFFFFFFFFFF2
000000CFFFFFFFFFFFFFFFFFF4
0000009FFFFFFFFFFFFFFFEB60
0000002EFFFDFFFFFB55420000
000000027411FFFFF600000000
000000000004FFFFF300000000
000000000008FFFFE000000000
00000000000DFFFF9000000000
00000000003FFFFF5000000000
00000000006FFFFF1000000000
0000000000BFFFFB0000000000
0000000003FFFFF70000000000
0000000009FFFFF30000000000
000000001EFFFFE00000000000
000000005FFFFF800000000000
00000000CFFFFF200000000000
00000004FFFFFB000000000000
0000000BFFFFF7210000000000
0013579FFFFFFFFE5000000000
1DFFFFFFFFFFFFFFF700000000
3FFFFFFFFFFFFFFFFF10000000
0EFFFFFFFFFFFFFFFA00000000
0AFFFFFFFFFFFEDE8100000000
04FFFFC8643510000000000000
00453000000000000000000000
ENDCHAR
STARTCHAR Iacute
ENCODING 205
SWIDTH 515 0
DWIDTH 19 0
BBX 26 41 -2 -1
BITMAP
0000000000000000000008A000
000000000000000000009FFA00
0000000000000000002DFFFF50
000000000000000001DFFFFFB0
00000000000000001CFFFFFFB0
0000000000000001CFFFFFFA10
000000000000000BFFFFFF6000
000000000000009FFFFFE40000
000000000000008FFFFE300000
000000000000007FFFB2000000
000000000000001DC600000000
00000000000000000000000000
00000000000000000000000000
00000000000000011221000000
0000001456ADEEFFFFFFED9300
000000CFFFFFFFFFFFFFFFFE10
000001EFFFFFFFFFFFFFFFFFF2
000000CFFFFFFFFFFFFFFFFFF4
0000009FFFFFFFFFFFFFFFEB60
0000002EFFFDFFFFFB55420000
000000027411FFFFF600000000
000000000004FFFFF300000000
000000000008FFFFE000000000
00000000000DFFFF9000000000
00000000003FFFFF5000000000
00000000006FFFFF1000000000
0000000000BFFFFB0000000000
0000000003FFFFF70000000000
0000000009FFFFF30000000000
000000001EFFFFE00000000000
000000005FFFFF800000000000
00000000CFFFFF200000000000
00000004FFFFFB000000000000
0000000BFFFFF7210000000000
0013579FFFFFFFFE5000000000
1DFFFFFFFFFFFFFFF700000000
3FFFFFFFFFFFFFFFFF10000000
0EFFFFFFFFFFFFFFFA00000000
0AFFFFFFFFFFFEDE8100000000
04FFFFC8643510000000000000
00453000000000000000000000
ENDCHAR
STARTCHAR Icircumflex
ENCODING 206
SWIDTH 515 0
DWIDTH 19 0
BBX 26 39 -2 -1
BITMAP
0000000000000003BC50000000
000000000000008FFFF9000000
0000000000000AFFFFFFB10000
000000000000AFFFFFFFFC1000
00000000001BFFFFEEFFFFC200
0000000001EFFFFF43EFFFFE30
0000000002FFFFF6004FFFFF50
0000000000CFFF700005FFFE00
00000000003FF40000003EF500
00000000000440000000025000
00000000000000000000000000
00000000000000011221000000
0000001456ADEEFFFFFFED9300
000000CFFFFFFFFFFFFFFFFE10
000001EFFFFFFFFFFFFFFFFFF2
000000CFFFFFFFFFFFFFFFFFF4
0000009FFFFFFFFFFFFFFFEB60
0000002EFFFDFFFFFB55420000
000000027411FFFFF600000000
000000000004FFFFF300000000
000000000008FFFFE000000000
00000000000DFFFF9000000000
00000000003FFFFF5000000000
00000000006FFFFF1000000000
0000000000BFFFFB0000000000
0000000003FFFFF70000000000
0000000009FFFFF30000000000
000000001EFFFFE00000000000
000000005FFFFF800000000000
00000000CFFFFF200000000000
00000004FFFFFB000000000000
0000000BFFFFF7210000000000
0013579FFFFFFFFE5000000000
1DFFFFFFFFFFFFFFF700000000
3FFFFFFFFFFFFFFFFF10000000
0EFFFFFFFFFFFFFFFA00000000
0AFFFFFFFFFFFEDE8100000000
04FFFFC8643510000000000000
00453000000000000000000000
ENDCHAR
STARTCHAR Idieresis
ENCODING 207
SWIDTH 515 0
DWIDTH 19 0
BBX 26 37 -2 -1
BITMAP
00000000000015000000131100
00000000002CEF800001EFFE40
0000000000AFFFF80004FFFFF3
0000000000DFFFFF2004FFFFF7
0000000000EFFFFD0005FFFFF2
00000000009FFFB100017EFD50
00000000000676100000025100
00000000000000000000000000
00000000000000000000000000
00000000000000011221000000
0000001456ADEEFFFFFFED9300
000000CFFFFFFFFFFFFFFFFE10
000001EFFFFFFFFFFFFFFFFFF2
000000CFFFFFFFFFFFFFFFFFF4
0000009FFFFFFFFFFFFFFFEB60
0000002EFFFDFFFFFB55420000
000000027411FFFFF600000000
000000000004FFFFF300000000
000000000008FFFFE000000000
00000000000DFFFF9000000000
00000000003FFFFF5000000000
00000000006FFFFF1000000000
0000000000BFFFFB0000000000
0000000003FFFFF70000000000
0000000009FFFFF30000000000
000000001EFFFFE00000000000
000000005FFFFF800000000000
00000000CFFFFF200000000000
00000004FFFFFB000000000000
0000000BFFFFF7210000000000
0013579FFFFFFFFE5000000000
1DFFFFFFFFFFFFFFF700000000
3FFFFFFFFFFFFFFFFF10000000
0EFFFFFFFFFFFFFFFA00000000
0AFFFFFFFFFFFEDE8100000000
04FFFFC8643510000000000000
00453000000000000000000000
ENDCHAR
STARTCHAR Eth
ENCODING 208
SWIDTH 656 0
DWIDTH 24 0
BBX 25 28 -1 -1
BITMAP
00000010000000000000000000
000000CC710000000000000000
000002FFFE9300000000000000
000004FFFFFFB6200000000000
000000EFFFFFFFF80000000000
000001CFFFFFFFFFC300000000
000008FFFFFFFFFFFF60000000
000007FFFE9FFFFFFFFA000000
000004FFFF116CFFFFFFC10000
000001FFFF40002AFFFFFB0000
000012FFFF9300002EFFFF7000
157BFFFFFFFFD10003EFFFE100
5FFFFFFFFFFFF900002DFFF700
5FFFFFFFFFFFFF300006FFFC00
4FFFFFFFFFFFFF30001DFFFE00
2FFFFFFFFFFEB50001BFFFFF10
0CFFDDFFFF9000006DFFFFFD00
02720CFFFF60007DFFFFFFF600
00001FFFFF415BFFFFFFFFA000
00006FFFFFAEFFFFFFFFFB1000
00009FFFFFFFFFFFFFFFA00000
0000FFFFFFFFFFFFFFE6000000
0000EFFFFFFFFFFFF910000000
0000DFFFFFFFFFFA3000000000
0000AFFFFFFFE8200000000000
00005FFFFFD610000000000000
00000AFFA40000000000000000
00000042000000000000000000
ENDCHAR
STARTCHAR Ntilde
ENCODING 209
SWIDTH 684 0
DWIDTH 25 0
BBX 28 36 -1 0
BITMAP
000000000000006BDDC700017AC8
0000000000001BFFFFFFB10BFFFD
000000000000AFFFFFFFFB9FFFF7
000000000005FFFFFFFFFFFFFFD0
00000000000DFFFE6EFFFFFFFF30
00000000005FFFF504EFFFFFF600
00000000002BB940002ADDD93000
0000000000000000000000000000
0000000000000000000000000000
0000000000000000000002000000
000000000993000000001EB10000
000000002FFF810000004FFD5000
000000008FFFFB0000009FFFF800
00000001EFFFFF900001EFFFFF20
00000007FFFFFFF10007FFFFFF70
0000001EFFFFFFF2000AFFFFFF40
0000007FFFFFFFE1000CFFFFFE00
000000DFFFFFFFB0000EFFFFF500
000006FFFFFFFF70002FFFFFE000
00000DFFFFFFFE20005FFFFFC000
00005FFFFFFFFE00009FFFFF9000
0000DFFFFFFFFE0000CFFFFF6000
0005FFFFFFFFFE0002FFFFFF3000
000CFFFFFFFFFE0008FFFFFF1000
004FFFFFFFFFFE002FFFFFFF0000
00CFFFFFFFFFFE00CFFFFFFD0000
04FFFFFFFFFFFF2BFFFFFFF80000
0BFFFFFFFFFFFFEFFFFFFFF40000
3FFFFFFFF6FFFFFFFFFFFFE00000
5FFFFFFFC0AFFFFFFFFFFF800000
2FFFFFFF202FFFFFFFFFFC000000
1EFFFFF80007FFFFFFFFF3000000
08FFFFF400009FFFFFFF60000000
02FFFFE000000AFFFFF900000000
007FFFA00000007FFE6000000000
0009E71000000001300000000000
ENDCHAR
STARTCHAR Ograve
ENCODING 210
SWIDTH 744 0
DWIDTH 27 0
BBX 26 39 0 -1
BITMAP
0000000000000007A000000000
000000000000007FFB10000000
00000000000002FFFFE3000000
00000000000008FFFFFE300000
00000000000008FFFFFFE30000
000000000000018FFFFFFE2000
0000000000000004EFFFFFC100
00000000000000003DFFFFFC00
000000000000000002CFFFFB00
00000000000000000019FFFA00
000000000000000000004BE300
0000000000000001A830000000
000000000000014BFFE1000000
0000000000000AFFFFFD100000
000000000001BFFFFFFFD00000
00000000001BFFFFFFFFF50000
0000000005EFFFFFFFFFE10000
000000006FFFFFFFFFFFC00000
00000005FFFFFFFFFFFFF10000
0000009FFFFFFFFFFFFFF90000
000008FFFFFFFFFFEFFFFF2000
00006FFFFFFFF9651EFFFF9000
0002FFFFFFFE600007FFFFF200
000CFFFFFFE3000000DFFFFA00
008FFFFFFE200000005FFFFF30
02FFFFFFD2000000000CFFFF80
09FFFFFF400000000005FFFFB0
0EFFFFF9000000000002FFFFF1
4FFFFFE1000000000006FFFFF6
7FFFFF6000000000018EFFFFF7
9FFFFF20000000017EFFFFFFF6
9FFFFF61000247CFFFFFFFFFF2
8FFFFFFFEEFFFFFFFFFFFFFFA0
4FFFFFFFFFFFFFFFFFFFFFFB00
0BFFFFFFFFFFFFFFFFFFFF8000
02EFFFFFFFFFFFFFFFFFB30000
003DFFFFFFFFFFFFFD61000000
00018EFFFFFFFCA73000000000
00000023345410000000000000
ENDCHAR
STARTCHAR Oacute
ENCODING 211
SWIDTH 744 0
DWIDTH 27 0
BBX 26 40 0 -1
BITMAP
000000000000000002B5000000
00000000000000003DFE400000
0000000000000006FFFFD00000
000000000000006FFFFFF40000
00000000000005FFFFFFF50000
0000000000005FFFFFFE500000
000000000003EFFFFFC2000000
00000000001EFFFFFB10000000
00000000001EFFFFA000000000
00000000000EFFE70000000000
000000000006EA200000000000
00000000000000000000000000
0000000000000001A830000000
000000000000014BFFE1000000
0000000000000AFFFFFD100000
000000000001BFFFFFFFD00000
00000000001BFFFFFFFFF50000
0000000005EFFFFFFFFFE10000
000000006FFFFFFFFFFFC00000
00000005FFFFFFFFFFFFF10000
0000009FFFFFFFFFFFFFF90000
000008FFFFFFFFFFEFFFFF2000
00006FFFFFFFF9651EFFFF9000
0002FFFFFFFE600007FFFFF200
000CFFFFFFE3000000DFFFFA00
008FFFFFFE200000005FFFFF30
02FFFFFFD2000000000CFFFF80
09FFFFFF400000000005FFFFB0
0EFFFFF9000000000002FFFFF1
4FFFFFE1000000000006FFFFF6
7FFFFF6000000000018EFFFFF7
9FFFFF20000000017EFFFFFFF6
9FFFFF61000247CFFFFFFFFFF2
8FFFFFFFEEFFFFFFFFFFFFFFA0
4FFFFFFFFFFFFFFFFFFFFFFB00
0BFFFFFFFFFFFFFFFFFFFF8000
02EFFFFFFFFFFFFFFFFFB30000
003DFFFFFFFFFFFFFD61000000
00018EFFFFFFFCA73000000000
00000023345410000000000000
ENDCHAR
STARTCHAR Ocircumflex
ENCODING 212
SWIDTH 744 0
DWIDTH 27 0
BBX 26 38 0 -1
BITMAP
00000000000000017D81000000
000000000000003DFFFD400000
00000000000004EFFFFFF50000
0000000000004EFFFFFFFF5000
000000000006FFFFFDFFFFF700
00000000008FFFFFB0AFFFFF90
0000000000AFFFFC100BFFFFC0
00000000005FFFD10001CFFF60
00000000000AFA00000009FB00
00000000000160000000006100
0000000000000001A830000000
000000000000014BFFE1000000
0000000000000AFFFFFD100000
000000000001BFFFFFFFD00000
00000000001BFFFFFFFFF50000
0000000005EFFFFFFFFFE10000
000000006FFFFFFFFFFFC00000
00000005FFFFFFFFFFFFF10000
0000009FFFFFFFFFFFFFF90000
000008FFFFFFFFFFEFFFFF2000
00006FFFFFFFF9651EFFFF9000
0002FFFFFFFE600007FFFFF200
000CFFFFFFE3000000DFFFFA00
008FFFFFFE200000005FFFFF30
02FFFFFFD2000000000CFFFF80
09FFFFFF400000000005FFFFB0
0EFFFFF9000000000002FFFFF1
4FFFFFE1000000000006FFFFF6
7FFFFF6000000000018EFFFFF7
9FFFFF20000000017EFFFFFFF6
9FFFFF61000247CFFFFFFFFFF2
8FFFFFFFEEFFFFFFFFFFFFFFA0
4FFFFFFFFFFFFFFFFFFFFFFB00
0BFFFFFFFFFFFFFFFFFFFF8000
02EFFFFFFFFFFFFFFFFFB30000
003DFFFFFFFFFFFFFD61000000
00018EFFFFFFFCA73000000000
00000023345410000000000000
ENDCHAR
STARTCHAR Otilde
ENCODING 213
SWIDTH 744 0
DWIDTH 27 0
BBX 27 36 0 -1
BITMAP
00000000000006BDDC700017AC80
000000000001BFFFFFFB10BFFFD0
00000000000AFFFFFFFFB9FFFF70
00000000005FFFFFFFFFFFFFFD00
0000000000DFFFE6EFFFFFFFF300
0000000005FFFF504EFFFFFF6000
0000000002BB940002ADDD930000
0000000000000000000000000000
0000000000000001A83000000000
000000000000014BFFE100000000
0000000000000AFFFFFD10000000
000000000001BFFFFFFFD0000000
00000000001BFFFFFFFFF5000000
0000000005EFFFFFFFFFE1000000
000000006FFFFFFFFFFFC0000000
00000005FFFFFFFFFFFFF1000000
0000009FFFFFFFFFFFFFF9000000
000008FFFFFFFFFFEFFFFF200000
00006FFFFFFFF9651EFFFF900000
0002FFFFFFFE600007FFFFF20000
000CFFFFFFE3000000DFFFFA0000
008FFFFFFE200000005FFFFF3000
02FFFFFFD2000000000CFFFF8000
09FFFFFF400000000005FFFFB000
0EFFFFF9000000000002FFFFF100
4FFFFFE1000000000006FFFFF600
7FFFFF6000000000018EFFFFF700
9FFFFF20000000017EFFFFFFF600
9FFFFF61000247CFFFFFFFFFF200
8FFFFFFFEEFFFFFFFFFFFFFFA000
4FFFFFFFFFFFFFFFFFFFFFFB0000
0BFFFFFFFFFFFFFFFFFFFF800000
02EFFFFFFFFFFFFFFFFFB3000000
003DFFFFFFFFFFFFFD6100000000
00018EFFFFFFFCA7300000000000
0000002334541000000000000000
ENDCHAR
STARTCHAR Odieresis
ENCODING 214
SWIDTH 744 0
DWIDTH 27 0
BBX 26 36 0 -1
BITMAP
00000000000015000000121000
00000000005CFF600004FFFD20
0000000000DFFFF50007FFFFE1
0000000001FFFFFE0007FFFFF4
0000000002FFFFFA0008FFFFD0
0000000000CFFF9000029FFB30
00000000001765000000045000
00000000000000000000000000
0000000000000001A830000000
000000000000014BFFE1000000
0000000000000AFFFFFD100000
000000000001BFFFFFFFD00000
00000000001BFFFFFFFFF50000
0000000005EFFFFFFFFFE10000
000000006FFFFFFFFFFFC00000
00000005FFFFFFFFFFFFF10000
0000009FFFFFFFFFFFFFF90000
000008FFFFFFFFFFEFFFFF2000
00006FFFFFFFF9651EFFFF9000
0002FFFFFFFE600007FFFFF200
000CFFFFFFE3000000DFFFFA00
008FFFFFFE200000005FFFFF30
02FFFFFFD2000000000CFFFF80
09FFFFFF400000000005FFFFB0
0EFFFFF9000000000002FFFFF1
4FFFFFE1000000000006FFFFF6
7FFFFF6000000000018EFFFFF7
9FFFFF20000000017EFFFFFFF6
9FFFFF61000247CFFFFFFFFFF2
8FFFFFFFEEFFFFFFFFFFFFFFA0
4FFFFFFFFFFFFFFFFFFFFFFB00
0BFFFFFFFFFFFFFFFFFFFF8000
02EFFFFFFFFFFFFFFFFFB30000
003DFFFFFFFFFFFFFD61000000
00018EFFFFFFFCA73000000000
00000023345410000000000000
ENDCHAR
STARTCHAR multiply
ENCODING 215
SWIDTH 490 0
DWIDTH 18 0
BBX 18 19 0 0
BITMAP
002940000000000400
007FFA10000004DFA0
008FFFC100019FFFF3
009FFFFC003DFFFFF7
003FFFFF97FFFFFFD0
0009FFFFFFFFFFF810
0000BFFFFFFFFC3000
00002EFFFFFF910000
00001DFFFFF6000000
0002DFFFFFE2000000
001DFFFFFFFA000000
01CFFFFFFFFF500000
0AFFFFF7DFFFE20000
5FFFFE404FFFFC0000
BFFFF40009FFFF2000
EFFF600002EFFF6000
EFF9000000AFFF3000
AFF50000002DF90000
1DA000000001400000
ENDCHAR
STARTCHAR Oslash
ENCODING 216
SWIDTH 744 0
DWIDTH 27 0
BBX 26 32 0 -5
BITMAP
0000000000000001A830000440
000000000000014BFFE100AFE0
0000000000000AFFFFFD1BFFF3
000000000001BFFFFFFFFFFFF5
00000000001BFFFFFFFFFFFFF4
0000000005EFFFFFFFFFFFFFF3
000000006FFFFFFFFFFFFFFFF1
00000005FFFFFFFFFFFFFFFF70
0000009FFFFFFFFFFFFFFFF900
000008FFFFFFFFFFFFFFFFB000
00006FFFFFFFF97FFFFFFF9000
0002FFFFFFFE60AFFFFFFFF200
000CFFFFFFE309FFFFFFFFF900
008FFFFFFE206FFFFFFFFFFF30
02FFFFFFD203FFFFFF7DFFFF80
09FFFFFF400BFFFFF905FFFFB0
0EFFFFF900AFFFFFD102FFFFF1
4FFFFFE108FFFFFE3006FFFFF6
7FFFFF607FFFFFF4018EFFFFF7
9FFFFF26FFFFFF617EFFFFFFF6
9FFFFF8FFFFFFECFFFFFFFFFF2
8FFFFFFFFFFFFFFFFFFFFFFFA0
4FFFFFFFFFFFFFFFFFFFFFFB00
0BFFFFFFFFFFFFFFFFFFFF8000
02EFFFFFFFFFFFFFFFFFB30000
003DFFFFFFFFFFFFFD61000000
0007FFFFFFFFFBA73000000000
0008FFFFF65410000000000000
0008FFFFF40000000000000000
0006FFFFF30000000000000000
0001DFFF700000000000000000
00001597000000000000000000
ENDCHAR
STARTCHAR Ugrave
ENCODING 217
SWIDTH 695 0
DWIDTH 25 0
BBX 25 36 1 0
BITMAP
00000000890000000000000000
00000008FFA100000000000000
0000004FFFFD20000000000000
0000009FFFFFD2000000000000
000000AFFFFFFD200000000000
00000019FFFFFFD20000000000
000000005FFFFFFC1000000000
0000000004EFFFFFA000000000
00000000002DFFFFA000000000
000000000001AFFF9000000000
00000000000005CE20007E4000
00000000000000000000DFF400
00022000000000000001DFF900
003DD000000000000008FFFD00
00DFF80000000000000AFFFF30
01FFFF8000000000000CFFFF80
04FFFFD000000000001FFFFFC0
07FFFFF500000000004FFFFFD0
08FFFFF900000000009FFFFF90
0BFFFFFC0000000001EFFFFF60
0EFFFFF80000000007FFFFFF40
1FFFFFF3000000001EFFFFFF10
2FFFFFF100000000BFFFFFF800
3FFFFFE000000007FFFFFFE100
3FFFFFE00000007FFFFFFF7000
2FFFFFF000001AFFFFFFFE0000
2FFFFFF20005DFFFFFFFF50000
1FFFFFF748DFFFFFFFFD600000
1FFFFFFFFFFFFFFFFFE4000000
0AFFFFFFFFFFFFFFFF50000000
02EFFFFFFFFFFFFFF900000000
01EFFFFFFFFFFFFFA000000000
008FFFFFFFFFFFF80000000000
001EFFFFFFFFFD400000000000
0004EFFFFFFC50000000000000
00001789AA4000000000000000
ENDCHAR
STARTCHAR Uacute
ENCODING 218
SWIDTH 695 0
DWIDTH 25 0
BBX 25 38 1 0
BITMAP
0000000000000000008A000000
000000000000000009FFA00000
0000000000000002DFFFF50000
000000000000001DFFFFFB0000
00000000000001CFFFFFFB0000
0000000000001CFFFFFFA10000
000000000000BFFFFFF6000000
000000000009FFFFFE40000000
000000000008FFFFE300000000
000000000007FFFB2000000000
000000000001DC600000000000
00000000000000000000000000
000000000000000000007E4000
00000000000000000000DFF400
00022000000000000001DFF900
003DD000000000000008FFFD00
00DFF80000000000000AFFFF30
01FFFF8000000000000CFFFF80
04FFFFD000000000001FFFFFC0
07FFFFF500000000004FFFFFD0
08FFFFF900000000009FFFFF90
0BFFFFFC0000000001EFFFFF60
0EFFFFF80000000007FFFFFF40
1FFFFFF3000000001EFFFFFF10
2FFFFFF100000000BFFFFFF800
3FFFFFE000000007FFFFFFE100
3FFFFFE00000007FFFFFFF7000
2FFFFFF000001AFFFFFFFE0000
2FFFFFF20005DFFFFFFFF50000
1FFFFFF748DFFFFFFFFD600000
1FFFFFFFFFFFFFFFFFE4000000
0AFFFFFFFFFFFFFFFF50000000
02EFFFFFFFFFFFFFF900000000
01EFFFFFFFFFFFFFA000000000
008FFFFFFFFFFFF80000000000
001EFFFFFFFFFD400000000000
0004EFFFFFFC50000000000000
00001789AA4000000000000000
ENDCHAR
STARTCHAR Ucircumflex
ENCODING 219
SWIDTH 695 0
DWIDTH 25 0
BBX 25 37 1 0
BITMAP
0000000000003BC50000000000
000000000008FFFF9000000000
0000000000AFFFFFFB10000000
000000000AFFFFFFFFC1000000
00000001BFFFFEEFFFFC200000
0000001EFFFFF43EFFFFE30000
0000002FFFFF6004FFFFF50000
0000000CFFF700005FFFE00000
00000003FF40000003EF500000
00000000440000000025000000
00000000000000000000000000
000000000000000000007E4000
00000000000000000000DFF400
00022000000000000001DFF900
003DD000000000000008FFFD00
00DFF80000000000000AFFFF30
01FFFF8000000000000CFFFF80
04FFFFD000000000001FFFFFC0
07FFFFF500000000004FFFFFD0
08FFFFF900000000009FFFFF90
0BFFFFFC0000000001EFFFFF60
0EFFFFF80000000007FFFFFF40
1FFFFFF3000000001EFFFFFF10
2FFFFFF100000000BFFFFFF800
3FFFFFE000000007FFFFFFE100
3FFFFFE00000007FFFFFFF7000
2FFFFFF000001AFFFFFFFE0000
2FFFFFF20005DFFFFFFFF50000
1FFFFFF748DFFFFFFFFD600000
1FFFFFFFFFFFFFFFFFE4000000
0AFFFFFFFFFFFFFFFF50000000
02EFFFFFFFFFFFFFF900000000
01EFFFFFFFFFFFFFA000000000
008FFFFFFFFFFFF80000000000
001EFFFFFFFFFD400000000000
0004EFFFFFFC50000000000000
00001789AA4000000000000000
ENDCHAR
STARTCHAR Udieresis
ENCODING 220
SWIDTH 695 0
DWIDTH 25 0
BBX 25 35 1 0
BITMAP
00000000024000000221000000
00000006CFF400005FFFC10000
0000000EFFFF40008FFFFD0000
0000003FFFFFD0009FFFFF3000
0000003FFFFF80009FFFFC0000
0000000EFFF7000039FFB20000
00000002765000000044000000
00000000000000000000000000
00000000000000000000000000
000000000000000000007E4000
00000000000000000000DFF400
00022000000000000001DFF900
003DD000000000000008FFFD00
00DFF80000000000000AFFFF30
01FFFF8000000000000CFFFF80
04FFFFD000000000001FFFFFC0
07FFFFF500000000004FFFFFD0
08FFFFF900000000009FFFFF90
0BFFFFFC0000000001EFFFFF60
0EFFFFF80000000007FFFFFF40
1FFFFFF3000000001EFFFFFF10
2FFFFFF100000000BFFFFFF800
3FFFFFE000000007FFFFFFE100
3FFFFFE00000007FFFFFFF7000
2FFFFFF000001AFFFFFFFE0000
2FFFFFF20005DFFFFFFFF50000
1FFFFFF748DFFFFFFFFD600000
1FFFFFFFFFFFFFFFFFE4000000
0AFFFFFFFFFFFFFFFF50000000
02EFFFFFFFFFFFFFF900000000
01EFFFFFFFFFFFFFA000000000
008FFFFFFFFFFFF80000000000
001EFFFFFFFFFD400000000000
0004EFFFFFFC50000000000000
00001789AA4000000000000000
ENDCHAR
STARTCHAR Yacute
ENCODING 221
SWIDTH 493 0
DWIDTH 18 0
BBX 21 42 1 -2
BITMAP
0000000000000000980000
000000000000001AFF8000
00000000000002EFFFF300
0000000000002DFFFFF900
000000000002DFFFFFFA00
00000000002DFFFFFF8100
0000000001CFFFFFE50000
000000000BFFFFFE300000
000000000AFFFFD2000000
0000000009FFFA10000000
0000000002EC5000000000
0000000000000000000000
0000000000000000000000
0040000000000000371000
09FC40000000002BFF9000
0EFFFB20000002EFFFFC20
0EFFFF9000001DFFFFFF80
0BFFFFD00001BFFFFFFF90
08FFFFF2000CFFFFFFFD10
09FFFFF5004FFFFFFFC200
06FFFFF801EFFFFFFE1000
04FFFFFC0BFFFFFFD30000
01FFFFFD9FFFFFFF600000
00DFFFFFFFFFFFF5000000
009FFFFFFFFFFF90000000
003FFFFFFFFFFE20000000
000CFFFFFFFFF500000000
0004FFFFFFFFC000000000
00008FFFFFFF5000000000
00009FFFFFF90000000000
0003FFFFFFE10000000000
000BFFFFFF500000000000
004FFFFFFC000000000000
00BFFFFFF3000000000000
04FFFFFFB0000000000000
0CFFFFFF40000000000000
2FFFFFF900000000000000
7FFFFFE100000000000000
4FFFFF8000000000000000
0BFFFE1000000000000000
019EF40000000000000000
0000100000000000000000
ENDCHAR
STARTCHAR Thorn
ENCODING 222
SWIDTH 680 0
DWIDTH 25 0
BBX 24 28 1 -1
BITMAP
000000100000000000000000
00002BE10000000000000000
0003EFF60000000000000000
0008FFFA0000000000000000
000DFFFF5000000000000000
005FFFFF9554310000000000
008FFFFFFFFFFFFDB8400000
00EFFFFFFFFFFFFFFFFB4000
00DFFFFFFFFFFFFFFFFFF900
02FFFFFFFFFFFFFFFFFFFF70
06FFFFFFDCCBCDEFFFFFFFF1
0AFFFFFE00000002FFFFFFF5
0EFFFFFB00000002FFFFFFF9
4FFFFFF70000003DFFFFFFFA
7FFFFFF4000018FFFFFFFFF5
9FFFFFF10029EFFFFFFFFF80
AFFFFFE049EFFFFFFFFFF600
BFFFFFFEFFFFFFFFFFFC3000
CFFFFFFFFFFFFFFFFD500000
DFFFFFFFFFFFFFEA60000000
FFFFFFFFFFFFC71000000000
CFFFFFFFFC71000000000000
8FFFFFB83000000000000000
4FFFFF600000000000000000
0EFFFF700000000000000000
0AFFFF500000000000000000
03FFFA000000000000000000
002320000000000000000000
ENDCHAR
STARTCHAR germandbls
ENCODING 223
SWIDTH 931 0
DWIDTH 34 0
BBX 38 23 0 -1
BITMAP
000000000002589A973000000000268AA96200
0000000038CFFFFFFFE10000049DFFFFFFFC00
0000027DFFFFFFFFFFFA0039EFFFFFFFFFFF70
0016CFFFFFFFFFFFFFFF8CFFFFFFFFFFFFFFE1
03DFFFFFFFFFFFFFFFFFFFFFFFFFFFFFFFFFF7
2EFFFFFFFFFEA8CBACFFFFFFFFFFDA9CBAAC91
6FFFFFFFD620000009FFFFFFFC610000000000
8FFFFFFFFA4000000BFFFFFFFE930000000000
7FFFFFFFFFF920000AFFFFFFFFFE8100000000
3FFFFFFFFFFFC00005FFFFFFFFFFFA00000000
03BFFFFFFFFFF300004CFFFFFFFFFE10000000
00003468BFFFFD10000013478CFFFFB0000000
00000000028EFF90000000000039FFF6000000
00000000000AFFE0000000000000DFFB000000
00000000006FFFF0000000000009FFFC000000
0000000018FFFFD000000000029FFFFB000000
00000017EFFFFF70000000029FFFFFF5000000
00446AEFFFFFFD10000446BFFFFFFFB0000000
03FFFFFFFFFFE200006FFFFFFFFFFC10000000
03FFFFFFFFFC2000006FFFFFFFFFA000000000
03FFFFFFFE700000005FFFFFFFD50000000000
01DFFFFD71000000002FFFFFC6000000000000
00388640000000000005885200000000000000
ENDCHAR
STARTCHAR agrave
ENCODING 224
SWIDTH 581 0
DWIDTH 21 0
BBX 22 35 -1 -1
BITMAP
00000000002A5000000000
0000000001CFF600000000
0000000008FFFFB0000000
000000000EFFFFFB000000
000000000EFFFFFFA00000
0000000003BFFFFFFA0000
000000000009FFFFFF8000
0000000000007FFFFFF600
00000000000005FFFFF500
000000000000003DFFF400
00000000000000007DB000
0000000000000000000000
0000000000005100000000
000000000004FFC6000000
00000000002EFFFF500000
0000000003DFFFFF800000
00000008CFFFFFFFB00000
0000006FFFFFFFFFC00000
000001EFFFFFFFFFF10000
000007FFFFFFFFFFF40000
00001EFFFFFCBFFFF70000
00005FFFFFE27FFFFA0000
0000CFFFFF403FFFFE0000
0004FFFFFA000EFFFFAA10
000BFFFFE2236DFFFFFFE7
003FFFFFFFFFFFFFFFFFFB
00BFFFFFFFFFFFFFFFFFC1
03FFFFFBFFFFFFFFFFF900
09FFFFB3FFFFFFFFFFF800
1FFFFF405A97414FFFFA00
7FFFFD00000002AFFFFA00
AFFFF80000004FFFFFF600
4FFFF500000007FFFFB000
0BFF7000000002EFFB1000
0053000000000027400000
ENDCHAR
STARTCHAR aacute
ENCODING 225
SWIDTH 581 0
DWIDTH 21 0
BBX 22 35 -1 -1
BITMAP
0000000000000001B60000
000000000000002CFF5000
00000000000004FFFFE100
0000000000004FFFFFF600
000000000004EFFFFFF700
00000000003EFFFFFF7000
0000000002EFFFFFD30000
000000000DFFFFFD200000
000000000DFFFFB1000000
000000000CFFF800000000
0000000004EB3000000000
0000000000000000000000
0000000000005100000000
000000000004FFC6000000
00000000002EFFFF500000
0000000003DFFFFF800000
00000008CFFFFFFFB00000
0000006FFFFFFFFFC00000
000001EFFFFFFFFFF10000
000007FFFFFFFFFFF40000
00001EFFFFFCBFFFF70000
00005FFFFFE27FFFFA0000
0000CFFFFF403FFFFE0000
0004FFFFFA000EFFFFAA10
000BFFFFE2236DFFFFFFE7
003FFFFFFFFFFFFFFFFFFB
00BFFFFFFFFFFFFFFFFFC1
03FFFFFBFFFFFFFFFFF900
09FFFFB3FFFFFFFFFFF800
1FFFFF405A97414FFFFA00
7FFFFD00000002AFFFFA00
AFFFF80000004FFFFFF600
4FFFF500000007FFFFB000
0BFF7000000002EFFB1000
0053000000000027400000
ENDCHAR
STARTCHAR acircumflex
ENCODING 226
SWIDTH 581 0
DWIDTH 21 0
BBX 22 33 -1 -1
BITMAP
0000000000005BB3000000
00000000001AFFFF700000
0000000001CFFFFFF90000
000000001CFFFFFFFFA000
00000002DFFFFEFFFFFB10
0000003EFFFFE35FFFFFE1
0000005FFFFF4006FFFFF2
0000001EFFF500007FFFC0
00000005FE30000004FF30
0000000052000000004400
0000000000005100000000
000000000004FFC6000000
00000000002EFFFF500000
0000000003DFFFFF800000
00000008CFFFFFFFB00000
0000006FFFFFFFFFC00000
000001EFFFFFFFFFF10000
000007FFFFFFFFFFF40000
00001EFFFFFCBFFFF70000
00005FFFFFE27FFFFA0000
0000CFFFFF403FFFFE0000
0004FFFFFA000EFFFFAA10
000BFFFFE2236DFFFFFFE7
003FFFFFFFFFFFFFFFFFFB
00BFFFFFFFFFFFFFFFFFC1
03FFFFFBFFFFFFFFFFF900
09FFFFB3FFFFFFFFFFF800
1FFFFF405A97414FFFFA00
7FFFFD00000002AFFFFA00
AFFFF80000004FFFFFF600
4FFFF500000007FFFFB000
0BFF7000000002EFFB1000
0053000000000027400000
ENDCHAR
STARTCHAR atilde
ENCODING 227
SWIDTH 581 0
DWIDTH 21 0
BBX 24 31 -1 -1
BITMAP
00000000018CDDB400028BC5
000000003DFFFFFF802EFFF9
00000001DFFFFFFFF8CFFFF3
00000009FFFFFFFFFFFFFF90
0000003FFFFC8FFFFFFFFD10
0000009FFFE108FFFFFFD300
0000005CA820004BDDC81000
000000000000000000000000
000000000000510000000000
000000000004FFC600000000
00000000002EFFFF50000000
0000000003DFFFFF80000000
00000008CFFFFFFFB0000000
0000006FFFFFFFFFC0000000
000001EFFFFFFFFFF1000000
000007FFFFFFFFFFF4000000
00001EFFFFFCBFFFF7000000
00005FFFFFE27FFFFA000000
0000CFFFFF403FFFFE000000
0004FFFFFA000EFFFFAA1000
000BFFFFE2236DFFFFFFE700
003FFFFFFFFFFFFFFFFFFB00
00BFFFFFFFFFFFFFFFFFC100
03FFFFFBFFFFFFFFFFF90000
09FFFFB3FFFFFFFFFFF80000
1FFFFF405A97414FFFFA0000
7FFFFD00000002AFFFFA0000
AFFFF80000004FFFFFF60000
4FFFF500000007FFFFB00000
0BFF7000000002EFFB100000
005300000000002740000000
ENDCHAR
STARTCHAR adieresis
ENCODING 228
SWIDTH 581 0
DWIDTH 21 0
BBX 23 32 -1 -1
BITMAP
000000000051000000311000
00000000BEFB10000CFFF700
00000006FFFFB1000FFFFF70
00000009FFFFF6000FFFFFB0
0000000AFFFFE2001FFFFF50
00000006FFFD300006DFE700
000000004762000000162000
000000000000000000000000
000000000000000000000000
000000000000510000000000
000000000004FFC600000000
00000000002EFFFF50000000
0000000003DFFFFF80000000
00000008CFFFFFFFB0000000
0000006FFFFFFFFFC0000000
000001EFFFFFFFFFF1000000
000007FFFFFFFFFFF4000000
00001EFFFFFCBFFFF7000000
00005FFFFFE27FFFFA000000
0000CFFFFF403FFFFE000000
0004FFFFFA000EFFFFAA1000
000BFFFFE2236DFFFFFFE700
003FFFFFFFFFFFFFFFFFFB00
00BFFFFFFFFFFFFFFFFFC100
03FFFFFBFFFFFFFFFFF90000
09FFFFB3FFFFFFFFFFF80000
1FFFFF405A97414FFFFA0000
7FFFFD00000002AFFFFA0000
AFFFF80000004FFFFFF60000
4FFFF500000007FFFFB00000
0BFF7000000002EFFB100000
005300000000002740000000
ENDCHAR
STARTCHAR aring
ENCODING 229
SWIDTH 581 0
DWIDTH 21 0
BBX 22 31 -1 -1
BITMAP
0000000000000001A40000
000000000000003EFE3000
00000000000007FFFF5000
0000000000008FFFFF7000
000000000007FFFFFFE100
00000000004FFFFDFFF800
0000000000CFFF51FFFD00
0000000003FFFE7BFFFF20
0000000005FFFFFFFFFF20
0000000003FFFFFFFFF700
00000000009FFFFFFB4000
0000000002DFFFFF900000
00000008CFFFFFFFB00000
0000006FFFFFFFFFC00000
000001EFFFFFFFFFF10000
000007FFFFFFFFFFF40000
00001EFFFFFCBFFFF70000
00005FFFFFE27FFFFA0000
0000CFFFFF403FFFFE0000
0004FFFFFA000EFFFFAA10
000BFFFFE2236DFFFFFFE7
003FFFFFFFFFFFFFFFFFFB
00BFFFFFFFFFFFFFFFFFC1
03FFFFFBFFFFFFFFFFF900
09FFFFB3FFFFFFFFFFF800
1FFFFF405A97414FFFFA00
7FFFFD00000002AFFFFA00
AFFFF80000004FFFFFF600
4FFFF500000007FFFFB000
0BFF7000000002EFFB1000
0053000000000027400000
ENDCHAR
STARTCHAR ae
ENCODING 230
SWIDTH 948 0
DWIDTH 34 0
BBX 38 23 -3 -1
BITMAP
00000000000000052000000000000000135410
000000000000005FFC70000000047ACEFFFFC2
00000000000004FFFFF300037BFFFFFFFFFFFF
0000000000006FFFFFF407EFFFFFFFFFFFFFFD
0000000004CDFFFFFFF46FFFFFFFFFFFFFFFD2
000000002EFFFFFFFFF35FFFFFFFFFFFEC8400
00000000BFFFFFFFFFF42FFFFFFFFD82000000
00000005FFFFFFFFFFF50DFFFFC31000000000
0000002EFFFFFBCFFFF605FFFFB33456200000
0000008FFFFFC1AFFFF705FFFFFFFFFFC10000
000002FFFFFD108FFFF90BFFFFFFFFFFFD5000
00000BFFFFF3007FFFFDAFFFFFFFFFFFFF8000
00006FFFFF6135AFFFFFFFFFFFFFFFFFE70000
0001EFFFFFFFFFFFFFFFFFFFFDEFEEC8200000
000AFFFFFFFFFFFFFFFFFFFFD1000000000000
004FFFFFAFFFFFFFFFFFFFFF50000000000000
00CFFFFA4FFFFFFFFFFFFFFD00000127AD6000
06FFFFD208986309FFFFFFFEBBCDFFFFFFF800
0EFFFF600000005EFFFFFFFFFFFFFFFFFFFF20
4FFFFE0000000DFFFFFFFFFFFFFFFFFFFFFC00
1FFFF900000003FFFFFAFFFFFFFFFFFFFFB100
0AFF8100000001EFFD408FFFFFFFFFEB730000
00530000000000274000014665421100000000
ENDCHAR
STARTCHAR ccedilla
ENCODING 231
SWIDTH 513 0
DWIDTH 19 0
BBX 18 33 0 -11
BITMAP
000000000000044000
000000000004CFFB20
0000000003AFFFFFC2
00000001AFFFFFFFFA
0000017EFFFFFFFFF9
00003DFFFFFFFFFFE2
0006EFFFFFFFFFFB30
005FFFFFFFFFA61000
04FFFFFFFFB2000000
1DFFFFFFE700000000
8FFFFFF91000000000
EFFFFF700000000000
FFFFF7000000000000
EFFFC0000000000000
CFFF70000000000000
9FFFB0000000000000
5FFFFC853100000000
0DFFFFFFFFFEEDD700
05FFFFFFFFFFFFFF60
007EFFFFFFFFFFFFD0
0002DFFFFFFFFFFF80
000003DFFFFFFFF600
000008FFF734111000
00003FFFC000000000
00005FFFFC60000000
00003FFFFFF9000000
000003BFFFFFB00000
0000000039FFF60000
000000013BFFFB0000
003DEEEFFFFFF80000
003FFFFFFFFFB00000
0006FFFFFFB6000000
000013352000000000
ENDCHAR
STARTCHAR egrave
ENCODING 232
SWIDTH 521 0
DWIDTH 19 0
BBX 20 35 0 -1
BITMAP
0000007A100000000000
000007FFB10000000000
00002FFFFE3000000000
00008FFFFFE300000000
00008FFFFFFE30000000
000017FFFFFFE3000000
0000004EFFFFFD100000
00000002DFFFFFC00000
000000001CFFFFC00000
00000000019FFFB00000
000000000004BE300000
00000000000000000000
00000000000000144400
00000000147ACEFFFF70
0000148CFFFFFFFFFFF9
0019FFFFFFFFFFFFFFF7
00BFFFFFFFFFFFFFFFA0
00AFFFFFFFFFFFEB7300
008FFFFFFFEC62000000
004FFFFF820000000000
000BFFFF733456000000
000AFFFFFFFFFF800000
002FFFFFFFFFFFFB1000
009FFFFFFFFFFFFF3000
01FFFFFFFFFFFFD40000
09FFFFFCEFEEC6000000
1FFFFF90000000000000
7FFFFE10000000000000
9FFFF800000148BD2000
8FFFFDBBCEFFFFFFD400
6FFFFFFFFFFFFFFFFB00
3FFFFFFFFFFFFFFFF600
0BFFFFFFFFFFFFFF7000
02BFFFFFFFFFDA620000
00025766422100000000
ENDCHAR
STARTCHAR eacute
ENCODING 233
SWIDTH 521 0
DWIDTH 19 0
BBX 20 35 0 -1
BITMAP
000000000000004B3000
00000000000005EFD200
0000000000009FFFFA00
000000000009FFFFFF10
00000000008FFFFFFF20
0000000008FFFFFFD400
000000006FFFFFFB1000
00000004FFFFFF900000
00000003FFFFF7000000
00000002FFFE50000000
000000009E9100000000
00000000000000000000
00000000000000144400
00000000147ACEFFFF70
0000148CFFFFFFFFFFF9
0019FFFFFFFFFFFFFFF7
00BFFFFFFFFFFFFFFFA0
00AFFFFFFFFFFFEB7300
008FFFFFFFEC62000000
004FFFFF820000000000
000BFFFF733456000000
000AFFFFFFFFFF800000
002FFFFFFFFFFFFB1000
009FFFFFFFFFFFFF3000
01FFFFFFFFFFFFD40000
09FFFFFCEFEEC6000000
1FFFFF90000000000000
7FFFFE10000000000000
9FFFF800000148BD2000
8FFFFDBBCEFFFFFFD400
6FFFFFFFFFFFFFFFFB00
3FFFFFFFFFFFFFFFF600
0BFFFFFFFFFFFFFF7000
02BFFFFFFFFFDA620000
00025766422100000000
ENDCHAR
STARTCHAR ecircumflex
ENCODING 234
SWIDTH 521 0
DWIDTH 19 0
BBX 21 33 0 -1
BITMAP
0000000000029D60000000
00000000006EFFFB100000
0000000007FFFFFFD20000
000000008FFFFFFFFD2000
00000009FFFFFDFFFFE300
000000CFFFFF71DFFFFF50
000000FFFFF8002EFFFF70
000000AFFFA00003EFFF20
0000001DF60000001CF700
0000000250000000016000
0000000000000014440000
00000000147ACEFFFF7000
0000148CFFFFFFFFFFF900
0019FFFFFFFFFFFFFFF700
00BFFFFFFFFFFFFFFFA000
00AFFFFFFFFFFFEB730000
008FFFFFFFEC6200000000
004FFFFF82000000000000
000BFFFF73345600000000
000AFFFFFFFFFF80000000
002FFFFFFFFFFFFB100000
009FFFFFFFFFFFFF300000
01FFFFFFFFFFFFD4000000
09FFFFFCEFEEC600000000
1FFFFF9000000000000000
7FFFFE1000000000000000
9FFFF800000148BD200000
8FFFFDBBCEFFFFFFD40000
6FFFFFFFFFFFFFFFFB0000
3FFFFFFFFFFFFFFFF60000
0BFFFFFFFFFFFFFF700000
02BFFFFFFFFFDA62000000
0002576642210000000000
ENDCHAR
STARTCHAR edieresis
ENCODING 235
SWIDTH 521 0
DWIDTH 19 0
BBX 22 32 0 -1
BITMAP
0000000005100000031100
0000000BEFB10000CFFF70
0000006FFFFB1000FFFFF7
0000009FFFFF6000FFFFFB
000000AFFFFE2001FFFFF5
0000006FFFD300006DFE70
0000000476200000016200
0000000000000000000000
0000000000000000000000
0000000000000014440000
00000000147ACEFFFF7000
0000148CFFFFFFFFFFF900
0019FFFFFFFFFFFFFFF700
00BFFFFFFFFFFFFFFFA000
00AFFFFFFFFFFFEB730000
008FFFFFFFEC6200000000
004FFFFF82000000000000
000BFFFF73345600000000
000AFFFFFFFFFF80000000
002FFFFFFFFFFFFB100000
009FFFFFFFFFFFFF300000
01FFFFFFFFFFFFD4000000
09FFFFFCEFEEC600000000
1FFFFF9000000000000000
7FFFFE1000000000000000
9FFFF800000148BD200000
8FFFFDBBCEFFFFFFD40000
6FFFFFFFFFFFFFFFFB0000
3FFFFFFFFFFFFFFFF60000
0BFFFFFFFFFFFFFF700000
02BFFFFFFFFFDA62000000
0002576642210000000000
ENDCHAR
STARTCHAR igrave
ENCODING 236
SWIDTH 320 0
DWIDTH 12 0
BBX 12 35 2 -1
BITMAP
002B50000000
01CFF6000000
09FFFFA00000
0EFFFFFA0000
0EFFFFFFA000
03CFFFFFFA00
0009FFFFFF70
00007FFFFFF5
000006FFFFF5
0000003DFFF4
000000018DB0
000000000000
000037000000
0006FF200000
001FFF700000
006FFFE10000
00BFFFF20000
02EFFFF50000
02FFFFF90000
05FFFFF40000
09FFFFD00000
0DFFFF800000
2FFFFF400000
6FFFFF000000
9FFFFB000000
BFFFF8000000
BFFFF6000000
CFFFF4000000
FFFFF3000000
CFFFF4000000
9FFFF5000000
4FFFF7000000
0EFFF7000000
08FFE2000000
016610000000
ENDCHAR
STARTCHAR iacute
ENCODING 237
SWIDTH 320 0
DWIDTH 12 0
BBX 17 36 2 -1
BITMAP
00000000000006A100
0000000000008FFB10
00000000001CFFFF60
0000000001CFFFFFC0
000000001BFFFFFFD0
00000001BFFFFFFB20
00000009FFFFFF7000
0000008FFFFFF60000
0000007FFFFE400000
0000006FFFC2000000
0000001CD600000000
000000000000000000
000000000000000000
000037000000000000
0006FF200000000000
001FFF700000000000
006FFFE10000000000
00BFFFF20000000000
02EFFFF50000000000
02FFFFF90000000000
05FFFFF40000000000
09FFFFD00000000000
0DFFFF800000000000
2FFFFF400000000000
6FFFFF000000000000
9FFFFB000000000000
BFFFF8000000000000
BFFFF6000000000000
CFFFF4000000000000
FFFFF3000000000000
CFFFF4000000000000
9FFFF5000000000000
4FFFF7000000000000
0EFFF7000000000000
08FFE2000000000000
016610000000000000
ENDCHAR
STARTCHAR icircumflex
ENCODING 238
SWIDTH 320 0
DWIDTH 12 0
BBX 16 34 1 -1
BITMAP
0000005BB3000000
00001AFFFF800000
0001BFFFFFFA0000
001CFFFFFFFFA000
02DFFFFEEFFFFB10
3EFFFFE34FFFFFE1
5FFFFF4006FFFFF2
1EFFF500007FFFC0
05FE30000004FF30
0052000000004400
0000000000000000
0000037000000000
00006FF200000000
0001FFF700000000
0006FFFE10000000
000BFFFF20000000
002EFFFF50000000
002FFFFF90000000
005FFFFF40000000
009FFFFD00000000
00DFFFF800000000
02FFFFF400000000
06FFFFF000000000
09FFFFB000000000
0BFFFF8000000000
0BFFFF6000000000
0CFFFF4000000000
0FFFFF3000000000
0CFFFF4000000000
09FFFF5000000000
04FFFF7000000000
00EFFF7000000000
008FFE2000000000
0016610000000000
ENDCHAR
STARTCHAR idieresis
ENCODING 239
SWIDTH 320 0
DWIDTH 12 0
BBX 16 32 1 -1
BITMAP
0005100000031100
0BEFB00000DFFF60
7FFFFB0001FFFFF6
AFFFFF5001FFFFFA
BFFFFE1002FFFFF4
7FFFC200016DFE60
0576200000016200
0000000000000000
0000000000000000
0000037000000000
00006FF200000000
0001FFF700000000
0006FFFE10000000
000BFFFF20000000
002EFFFF50000000
002FFFFF90000000
005FFFFF40000000
009FFFFD00000000
00DFFFF800000000
02FFFFF400000000
06FFFFF000000000
09FFFFB000000000
0BFFFF8000000000
0BFFFF6000000000
0CFFFF4000000000
0FFFFF3000000000
0CFFFF4000000000
09FFFF5000000000
04FFFF7000000000
00EFFF7000000000
008FFE2000000000
0016610000000000
ENDCHAR
STARTCHAR eth
ENCODING 240
SWIDTH 541 0
DWIDTH 19 0
BBX 20 23 -1 -1
BITMAP
00001A40000000000000
00005FFD710000000000
00007FFFFFA500000000
00003FFFFFFFD3000000
00006FFFFFFFFF700000
0000AFFFEFFFFFFA1000
00007FFF25BFFFFFC200
00005FFF50018EFFFD10
00047FFFB61001DFFFA0
6BEFFFFFFFB0002DFFF3
CFFFFFFFFFF70001EFF9
AFFFFFFFFFFA0002FFFC
9FFFFFFFFEA2002DFFFD
3FEADFFF900017EFFFFB
0210EFFF6008EFFFFFF3
0004FFFF68DFFFFFFF60
0009FFFFFFFFFFFFF600
000DFFFFFFFFFFFD3000
000DFFFFFFFFFE700000
000CFFFFFFFE71000000
0008FFFFFC6000000000
0001EFFA400000000000
00002620000000000000
ENDCHAR
STARTCHAR ntilde
ENCODING 241
SWIDTH 564 0
DWIDTH 20 0
BBX 27 32 -1 -1
BITMAP
0000000000005ADDC810006ACA00
000000000009FFFFFFD209FFFF10
00000000007FFFFFFFFC7FFFFA00
0000000002FFFFFFFFFFFFFFE200
000000000BFFFF7DFFFFFFFF6000
000000002FFFF703DFFFFFF80000
000000001AB9500019DDDA400000
0000000000000000000000000000
0000000000000000000000000000
0000000050000000037000000000
00000006FD40000008FB20000000
0000000DFFF700000DFFF4000000
0000005FFFFF50004FFFFD000000
000000CFFFFFB000AFFFFF200000
000004FFFFFFA000CFFFFD000000
00000BFFFFFF6000EFFFF6000000
00003FFFFFFF3002FFFFE0000000
0000AFFFFFFC0005FFFFB0000000
0003FFFFFFFB0009FFFF80000000
000AFFFFFFFB000DFFFF50000000
002FFFFFFFFA004FFFFF30000000
009FFFFFFFFA00BFFFFF20000000
02FFFFFFFFFB07FFFFFF10000000
09FFFFFFFFFD7FFFFFFA00000000
1FFFFFFFDFFFFFFFFFF500000000
6FFFFFF86FFFFFFFFFF100000000
5FFFFFD10DFFFFFFFF6000000000
1EFFFF5004FFFFFFFB0000000000
09FFFF20006FFFFFE10000000000
02EFFC000006FFFC200000000000
006FD40000003861000000000000
0002100000000000000000000000
ENDCHAR
STARTCHAR ograve
ENCODING 242
SWIDTH 628 0
DWIDTH 23 0
BBX 22 34 0 -1
BITMAP
000000000007A100000000
00000000006FFB10000000
0000000002FFFFE4000000
0000000007FFFFFE300000
0000000007FFFFFFE30000
00000000017FFFFFFE3000
000000000004EFFFFFD100
0000000000002DFFFFFC00
00000000000001CFFFFC00
0000000000000019FFFB00
00000000000001104BE400
0000000000000CE8000000
000000000008EFFF600000
00000000009FFFFFF60000
0000000019FFFFFFFD0000
00000003EFFFFFFFF70000
0000003EFFFFFFFFF80000
000005EFFFFFFFFFFD0000
00004FFFFFFFFFFFFF7000
0003EFFFFFF771BFFFE100
001DFFFFFD30003FFFF700
009FFFFFC100000AFFFE10
04FFFFFC10000002EFFF70
0BFFFFE1000000009FFFA0
2FFFFF60000000006FFFE1
6FFFFB0000000000BFFFF4
9FFFF5000000005DFFFFF5
9FFFF30000027DFFFFFFF2
9FFFFFCBBDFFFFFFFFFFB0
4FFFFFFFFFFFFFFFFFFC10
0BFFFFFFFFFFFFFFFF8100
01CFFFFFFFFFFFFD930000
001AFFFFFFFFEA50000000
0000255677400000000000
ENDCHAR
STARTCHAR oacute
ENCODING 243
SWIDTH 628 0
DWIDTH 23 0
BBX 22 35 0 -1
BITMAP
0000000000000003B40000
000000000000004EFE3000
00000000000008FFFFC000
0000000000007FFFFFF200
000000000007FFFFFFF300
00000000007FFFFFFD4000
0000000005FFFFFFB10000
000000003FFFFFFA000000
000000002FFFFF80000000
000000001FFFE500000000
0000000008E91000000000
0000000000000110000000
0000000000000CE8000000
000000000008EFFF600000
00000000009FFFFFF60000
0000000019FFFFFFFD0000
00000003EFFFFFFFF70000
0000003EFFFFFFFFF80000
000005EFFFFFFFFFFD0000
00004FFFFFFFFFFFFF7000
0003EFFFFFF771BFFFE100
001DFFFFFD30003FFFF700
009FFFFFC100000AFFFE10
04FFFFFC10000002EFFF70
0BFFFFE1000000009FFFA0
2FFFFF60000000006FFFE1
6FFFFB0000000000BFFFF4
9FFFF5000000005DFFFFF5
9FFFF30000027DFFFFFFF2
9FFFFFCBBDFFFFFFFFFFB0
4FFFFFFFFFFFFFFFFFFC10
0BFFFFFFFFFFFFFFFF8100
01CFFFFFFFFFFFFD930000
001AFFFFFFFFEA50000000
0000255677400000000000
ENDCHAR
STARTCHAR ocircumflex
ENCODING 244
SWIDTH 628 0
DWIDTH 23 0
BBX 23 34 0 -1
BITMAP
00000000000003BC50000000
0000000000008FFFF9000000
00000000000AFFFFFFB10000
0000000000AFFFFFFFFC1000
000000001BFFFFEEFFFFC200
00000001EFFFFF43EFFFFE30
00000002FFFFF6004FFFFF50
00000000CFFF700005FFFE00
000000003FF40000003EF500
000000000440000000025000
000000000000011000000000
0000000000000CE800000000
000000000008EFFF60000000
00000000009FFFFFF6000000
0000000019FFFFFFFD000000
00000003EFFFFFFFF7000000
0000003EFFFFFFFFF8000000
000005EFFFFFFFFFFD000000
00004FFFFFFFFFFFFF700000
0003EFFFFFF771BFFFE10000
001DFFFFFD30003FFFF70000
009FFFFFC100000AFFFE1000
04FFFFFC10000002EFFF7000
0BFFFFE1000000009FFFA000
2FFFFF60000000006FFFE100
6FFFFB0000000000BFFFF400
9FFFF5000000005DFFFFF500
9FFFF30000027DFFFFFFF200
9FFFFFCBBDFFFFFFFFFFB000
4FFFFFFFFFFFFFFFFFFC1000
0BFFFFFFFFFFFFFFFF810000
01CFFFFFFFFFFFFD93000000
001AFFFFFFFFEA5000000000
000025567740000000000000
ENDCHAR
STARTCHAR otilde
ENCODING 245
SWIDTH 628 0
DWIDTH 23 0
BBX 26 32 0 -1
BITMAP
000000000005ADDC810006ACA0
00000000009FFFFFFD209FFFF1
0000000007FFFFFFFFC7FFFFA0
000000002FFFFFFFFFFFFFFE20
00000000BFFFF7DFFFFFFFF600
00000002FFFF703DFFFFFF8000
00000001AB9500019DDDA40000
00000000000000000000000000
00000000000001100000000000
0000000000000CE80000000000
000000000008EFFF6000000000
00000000009FFFFFF600000000
0000000019FFFFFFFD00000000
00000003EFFFFFFFF700000000
0000003EFFFFFFFFF800000000
000005EFFFFFFFFFFD00000000
00004FFFFFFFFFFFFF70000000
0003EFFFFFF771BFFFE1000000
001DFFFFFD30003FFFF7000000
009FFFFFC100000AFFFE100000
04FFFFFC10000002EFFF700000
0BFFFFE1000000009FFFA00000
2FFFFF60000000006FFFE10000
6FFFFB0000000000BFFFF40000
9FFFF5000000005DFFFFF50000
9FFFF30000027DFFFFFFF20000
9FFFFFCBBDFFFFFFFFFFB00000
4FFFFFFFFFFFFFFFFFFC100000
0BFFFFFFFFFFFFFFFF81000000
01CFFFFFFFFFFFFD9300000000
001AFFFFFFFFEA500000000000
00002556774000000000000000
ENDCHAR
STARTCHAR odieresis
ENCODING 246
SWIDTH 628 0
DWIDTH 23 0
BBX 24 32 0 -1
BITMAP
000000000015000000131100
000000002CEF800001EFFE40
00000000AFFFF80004FFFFF3
00000000DFFFFF2004FFFFF7
00000000EFFFFD0005FFFFF2
000000009FFFB100017EFD50
000000000676100000025100
000000000000000000000000
000000000000011000000000
0000000000000CE800000000
000000000008EFFF60000000
00000000009FFFFFF6000000
0000000019FFFFFFFD000000
00000003EFFFFFFFF7000000
0000003EFFFFFFFFF8000000
000005EFFFFFFFFFFD000000
00004FFFFFFFFFFFFF700000
0003EFFFFFF771BFFFE10000
001DFFFFFD30003FFFF70000
009FFFFFC100000AFFFE1000
04FFFFFC10000002EFFF7000
0BFFFFE1000000009FFFA000
2FFFFF60000000006FFFE100
6FFFFB0000000000BFFFF400
9FFFF5000000005DFFFFF500
9FFFF30000027DFFFFFFF200
9FFFFFCBBDFFFFFFFFFFB000
4FFFFFFFFFFFFFFFFFFC1000
0BFFFFFFFFFFFFFFFF810000
01CFFFFFFFFFFFFD93000000
001AFFFFFFFFEA5000000000
000025567740000000000000
ENDCHAR
STARTCHAR divide
ENCODING 247
SWIDTH 559 0
DWIDTH 20 0
BBX 19 22 0 -1
BITMAP
0000000007D920000000
000000005FFFD1000000
00000000EFFFFB000000
00000000DFFFFE100000
00000000DFFFF7000000
00000000AFFFF2000000
00000000276320000000
00000000000000000000
00125899AABCCA972000
8EFFFFFFFFFFFFFFF500
CFFFFFFFFFFFFFFFFF80
9FFFFFFFFFFFFFFFFF90
4FFFFFFFFFFFFECA8400
08FD9743211000000000
00000010000000000000
000000AD962000000000
000006FFFFD000000000
00002FFFFFE000000000
00002EFFFFA000000000
00000AFFFF6000000000
000003EFF80000000000
00000026400000000000
ENDCHAR
STARTCHAR oslash
ENCODING 248
SWIDTH 632 0
DWIDTH 23 0
BBX 22 28 0 -5
BITMAP
0000000000000010000000
0000000000000BFA0008C0
000000000008EFFF80BFF3
00000000008FFFFFFDFFF5
0000000009FFFFFFFFFFF5
00000003DFFFFFFFFFFFF3
0000002EFFFFFFFFFFFFE1
000004EFFFFFFFFFFFFE30
00003FFFFFFFFFFFFFF400
0002EFFFFFF8AFFFFFF200
000CFFFFFE42EFFFFFF800
008FFFFFE31DFFFFFFFF20
03FFFFFC30BFFFFCEFFF90
0AFFFFF206FFFFE27FFFC0
1FFFFF704FFFFF404FFFF2
6FFFFC03EFFFF8009FFFF6
8FFFF62EFFFF903BFFFFF7
9FFFF4DFFFFD6BFFFFFFF4
9FFFFFFFFFFFFFFFFFFFD0
6FFFFFFFFFFFFFFFFFFE30
0CFFFFFFFFFFFFFFFFB200
02EFFFFFFFFFFFFEB60000
002EFFFFFFFFFC71000000
000FFFFE99621000000000
001FFFFD00000000000000
000DFFFB00000000000000
0005EFE200000000000000
0000032000000000000000
ENDCHAR
STARTCHAR ugrave
ENCODING 249
SWIDTH 584 0
DWIDTH 21 0
BBX 21 34 1 0
BITMAP
00000005B1000000000000
0000005FFD200000000000
000001EFFFF50000000000
000005FFFFFF5000000000
000006FFFFFFF400000000
0000006EFFFFFF40000000
00000002DFFFFFE2000000
000000001CFFFFFE000000
0000000001BFFFFE000000
000000000008FFFD000000
0000000000003AE5000000
0000000000000000000000
0000000000000000053000
00000000000000001FF400
00020000000000001FFD00
007F4000000000009FFF10
01FFD20000000000CFFF60
05FFFB0000000000EFFFB0
07FFFF2000000003FFFFD0
09FFFF7000000007FFFFB0
0CFFFF900000000DFFFF70
0FFFFF500000005FFFFF50
2FFFFF10000001DFFFFE10
3FFFFE0000000AFFFFF700
3FFFFE000000AFFFFFD000
3FFFFE00001BFFFFFF6000
2FFFFF2028EFFFFFFC0000
2FFFFFBCFFFFFFFF800000
1DFFFFFFFFFFFFFA000000
04FFFFFFFFFFFFD1000000
03FFFFFFFFFFFD30000000
00AFFFFFFFFFC200000000
003FFFFFFFD60000000000
0002ADDEB5000000000000
ENDCHAR
STARTCHAR uacute
ENCODING 250
SWIDTH 584 0
DWIDTH 21 0
BBX 21 32 1 0
BITMAP
0000000000000000980000
000000000000001AFF8000
00000000000002EFFFF300
0000000000002DFFFFF900
000000000002DFFFFFFA00
00000000002DFFFFFF8100
0000000001CFFFFFE50000
000000000BFFFFFE300000
000000000AFFFFD2000000
0000000009FFFA10000000
0000000002EC5000053000
00000000000000001FF400
00020000000000001FFD00
007F4000000000009FFF10
01FFD20000000000CFFF60
05FFFB0000000000EFFFB0
07FFFF2000000003FFFFD0
09FFFF7000000007FFFFB0
0CFFFF900000000DFFFF70
0FFFFF500000005FFFFF50
2FFFFF10000001DFFFFE10
3FFFFE0000000AFFFFF700
3FFFFE000000AFFFFFD000
3FFFFE00001BFFFFFF6000
2FFFFF2028EFFFFFFC0000
2FFFFFBCFFFFFFFF800000
1DFFFFFFFFFFFFFA000000
04FFFFFFFFFFFFD1000000
03FFFFFFFFFFFD30000000
00AFFFFFFFFFC200000000
003FFFFFFFD60000000000
0002ADDEB5000000000000
ENDCHAR
STARTCHAR ucircumflex
ENCODING 251
SWIDTH 584 0
DWIDTH 21 0
BBX 21 33 1 0
BITMAP
000000000007D920000000
0000000002CFFFE4000000
000000003EFFFFFF600000
00000003EFFFFFFFF60000
0000004EFFFFDFFFFF8000
000006FFFFFC18FFFFFB00
000009FFFFD100AFFFFD00
000004FFFD20000BFFF800
0000009FB10000008FC100
0000001610000000062000
0000000000000000000000
0000000000000000053000
00000000000000001FF400
00020000000000001FFD00
007F4000000000009FFF10
01FFD20000000000CFFF60
05FFFB0000000000EFFFB0
07FFFF2000000003FFFFD0
09FFFF7000000007FFFFB0
0CFFFF900000000DFFFF70
0FFFFF500000005FFFFF50
2FFFFF10000001DFFFFE10
3FFFFE0000000AFFFFF700
3FFFFE000000AFFFFFD000
3FFFFE00001BFFFFFF6000
2FFFFF2028EFFFFFFC0000
2FFFFFBCFFFFFFFF800000
1DFFFFFFFFFFFFFA000000
04FFFFFFFFFFFFD1000000
03FFFFFFFFFFFD30000000
00AFFFFFFFFFC200000000
003FFFFFFFD60000000000
0002ADDEB5000000000000
ENDCHAR
STARTCHAR udieresis
ENCODING 252
SWIDTH 584 0
DWIDTH 21 0
BBX 21 31 1 0
BITMAP
0000000051000000311000
000000BEFB10000CFFF700
000006FFFFB1000FFFFF70
000009FFFFF6000FFFFFB0
00000AFFFFE2001FFFFF50
000006FFFD300006DFE700
0000004762000000162000
0000000000000000000000
0000000000000000000000
0000000000000000053000
00000000000000001FF400
00020000000000001FFD00
007F4000000000009FFF10
01FFD20000000000CFFF60
05FFFB0000000000EFFFB0
07FFFF2000000003FFFFD0
09FFFF7000000007FFFFB0
0CFFFF900000000DFFFF70
0FFFFF500000005FFFFF50
2FFFFF10000001DFFFFE10
3FFFFE0000000AFFFFF700
3FFFFE000000AFFFFFD000
3FFFFE00001BFFFFFF6000
2FFFFF2028EFFFFFFC0000
2FFFFFBCFFFFFFFF800000
1DFFFFFFFFFFFFFA000000
04FFFFFFFFFFFFD1000000
03FFFFFFFFFFFD30000000
00AFFFFFFFFFC200000000
003FFFFFFFD60000000000
0002ADDEB5000000000000
ENDCHAR
STARTCHAR yacute
ENCODING 253
SWIDTH 400 0
DWIDTH 14 0
BBX 19 38 1 -2
BITMAP
000000000000001A7000
00000000000001BFF700
0000000000003EFFFF20
000000000003EFFFFF80
00000000003EFFFFFF80
0000000003EFFFFFF810
000000001DFFFFFE4000
00000000CFFFFFD20000
00000000CFFFFC200000
00000000AFFF91000000
000000003EB400000000
00000000000000000000
00000000000000000000
00000000000000000000
05810000000018D40000
0EFE80000001DFFE6000
0FFFF800001CFFFFF300
0DFFFD0001CFFFFFF300
0BFFFF100AFFFFFF8000
0AFFFF404FFFFFF70000
08FFFF71DFFFFF900000
04FFFFBBFFFFFC000000
02FFFFFFFFFFC1000000
00CFFFFFFFFF20000000
007FFFFFFFF700000000
001EFFFFFFD000000000
0004FFFFFF5000000000
0004FFFFFB0000000000
000DFFFFF30000000000
006FFFFF700000000000
00EFFFFD100000000000
06FFFFF6000000000000
0EFFFFD0000000000000
4FFFFF40000000000000
7FFFFB00000000000000
2EFFF400000000000000
04DF9000000000000000
00020000000000000000
ENDCHAR
STARTCHAR thorn
ENCODING 254
SWIDTH 579 0
DWIDTH 21 0
BBX 20 24 1 -1
BITMAP
00000100000000000000
0002CE10000000000000
000DFF50000000000000
003FFFB0000000000000
00AFFFF3210000000000
00DFFFFFFFFECA730000
04FFFFFFFFFFFFFFB400
04FFFFFFFFFFFFFFFF70
08FFFFFFFFFFFFFFFFF3
0CFFFFD433356CFFFFFA
1FFFFF80000007FFFFFE
6FFFFF4000006EFFFFFF
9FFFFF10003AFFFFFFFA
BFFFFE003CFFFFFFFFB1
BFFFFD8CFFFFFFFFF800
CFFFFFFFFFFFFFFA3000
EFFFFFFFFFFFE9400000
FFFFFFFFFEB500000000
CFFFFFFB610000000000
8FFFF820000000000000
4FFFF700000000000000
0EFFF600000000000000
07FFB100000000000000
00210000000000000000
ENDCHAR
STARTCHAR ydieresis
ENCODING 255
SWIDTH 400 0
DWIDTH 14 0
BBX 20 34 1 -2
BITMAP
00000015000000121000
00005CFF600004FFFD20
0000DFFFF50007FFFFE1
0001FFFFFE0007FFFFF4
0002FFFFFA0008FFFFD0
0000CFFF9000029FFB30
00001765000000045000
00000000000000000000
00000000000000000000
00000000000000000000
05810000000018D40000
0EFE80000001DFFE6000
0FFFF800001CFFFFF300
0DFFFD0001CFFFFFF300
0BFFFF100AFFFFFF8000
0AFFFF404FFFFFF70000
08FFFF71DFFFFF900000
04FFFFBBFFFFFC000000
02FFFFFFFFFFC1000000
00CFFFFFFFFF20000000
007FFFFFFFF700000000
001EFFFFFFD000000000
0004FFFFFF5000000000
0004FFFFFB0000000000
000DFFFFF30000000000
006FFFFF700000000000
00EFFFFD100000000000
06FFFFF6000000000000
0EFFFFD0000000000000
4FFFFF40000000000000
7FFFFB00000000000000
2EFFF400000000000000
04DF9000000000000000
00020000000000000000
ENDCHAR
STARTCHAR dotlessi
ENCODING 305
SWIDTH 320 0
DWIDTH 12 0
BBX 8 23 2 -1
BITMAP
00003700
0006FF20
001FFF70
006FFFE1
00BFFFF2
02EFFFF5
02FFFFF9
05FFFFF4
09FFFFD0
0DFFFF80
2FFFFF40
6FFFFF00
9FFFFB00
BFFFF800
BFFFF600
CFFFF400
FFFFF300
CFFFF400
9FFFF500
4FFFF700
0EFFF700
08FFE200
01661000
ENDCHAR
STARTCHAR Lslash
ENCODING 321
SWIDTH 632 0
DWIDTH 23 0
BBX 26 28 -4 -1
BITMAP
00000000001200000000000000
0000000000AFB6300000000000
0000000001FFFFF70000000000
0000000005FFFFFF2000000000
0000000009FFFFFF5000000000
000000000EFFFFFE1000000000
000000004FFFFFF90000000000
00000000AFFFFFF30000000000
00000001EFFFFFC00000000000
00000005FFFFFFDA9100000000
0000000BFFFFFFFFFE80000000
0000059FFFFFFFFFFFD0000000
0016DFFFFFFFFFFFFB20000000
2BFFFFFFFFFFFFEA4000000000
5FFFFFFFFFFFC5100000000000
0EFFFFFFFFFF30000000000000
07FFFFFFFFFD00000000000000
006B9FFFFFF700000000000000
00005FFFFFF200000000000000
00008FFFFFE000012345410000
00009FFFFFE66AEFFFFFFF8100
00009FFFFFFFFFFFFFFFFFFFA2
00006FFFFFFFFFFFFFFFFFFFF9
00002FFFFFFFFFFFFFFFFFFFFC
000009FFFFFFFFFFFFFFFFFFFE
000002FFFFFFFFFFFEDBBDFEC5
0000006EFFFFFB720000001000
00000001566410000000000000
ENDCHAR
STARTCHAR lslash
ENCODING 322
SWIDTH 533 0
DWIDTH 19 0
BBX 23 23 -4 -1
BITMAP
000000000593000000000000
000000000DFFD60000000000
000000002FFFFF2000000000
000000007FFFFF5000000000
00000000CFFFFE0000000000
00000002FFFFF90000000000
00000007FFFFF30000000000
0000000DFFFFD55000000000
0000003FFFFFFFFC50000000
000027CFFFFFFFFFD0000000
0039FFFFFFFFFFFC30000000
4DFFFFFFFFFFEA4000000000
6FFFFFFFFFE4000000000000
1FFFFFFFFF90000000000000
06FFDFFFFF30000000000000
00227FFFFE00000000000000
00009FFFFD238ABCDDB40000
00009FFFFFFFFFFFFFFFC500
00007FFFFFFFFFFFFFFFFF10
00002FFFFFFFFFFFFFFFFF50
000009FFFFFFFFFFFFFFFE40
000002DFFFFFD86533465200
000000158862000000000000
ENDCHAR
STARTCHAR OE
ENCODING 338
SWIDTH 1212 0
DWIDTH 44 0
BBX 45 28 0 -1
BITMAP
0000000000000001A83000000000000000000000000000
000000000000014BFFE10000000000000002468ACB7000
0000000000000AFFFFFD1000000000269CEFFFFFFFF810
000000000001BFFFFFFFD00000259CFFFFFFFFFFFFFF80
00000000001BFFFFFFFFF5003BFFFFFFFFFFFFFFFFFF60
0000000005EFFFFFFFFFE103EFFFFFFFFFFFFFFFFFFA00
000000006FFFFFFFFFFFC004FFFFFFFFFFFFFFFFFC5000
00000005FFFFFFFFFFFFF102FFFFFFFFFFFFD964100000
0000009FFFFFFFFFFFFFF900EFFFFFFFECA30000000000
000008FFFFFFFFFFEFFFFF20AFFFFFE300000000000000
00006FFFFFFFF9651EFFFF903EFFFFF111234400000000
0002FFFFFFFE600007FFFFF20DFFFFFFFFFFFE30000000
000CFFFFFFE3000000DFFFFA5FFFFFFFFFFFFFE5000000
008FFFFFFE200000005FFFFFDFFFFFFFFFFFFFFF600000
02FFFFFFD2000000000CFFFFFFFFFFFFFFFFFFFE400000
09FFFFFF400000000005FFFFFFFFFFFFFFFFFFB2000000
0EFFFFF9000000000002FFFFFFFFFEFFFFFFB500000000
4FFFFFE1000000000006FFFFFFFFE21321210000000000
7FFFFF6000000000018EFFFFFFFF700000000000000000
9FFFFF20000000017EFFFFFFFFFE000000000024000000
9FFFFF61000247CFFFFFFFFFFFF800012456BEFF800000
8FFFFFFFEEFFFFFFFFFFFFFFFFFFEEFFFFFFFFFFFA0000
4FFFFFFFFFFFFFFFFFFFFFFFFFFFFFFFFFFFFFFFFF4000
0BFFFFFFFFFFFFFFFFFFFFFFFFFFFFFFFFFFFFFFFE2000
02EFFFFFFFFFFFFFFFFFB3CFFFFFFFFFFFFFFFFFE40000
003DFFFFFFFFFFFFFD61002EFFFFFFFFFFFFFFFA300000
00018EFFFFFFFCA730000002AFFFFFFFDDCA7410000000
0000002334541000000000000034432000000000000000
ENDCHAR
STARTCHAR oe
ENCODING 339
SWIDTH 1010 0
DWIDTH 36 0
BBX 38 24 0 -1
BITMAP
00000000000001100000000000000000000000
0000000000000CF90000000000000001354300
000000000009EFFF7000000000369BEFFFFE40
00000000009FFFFFF7000026AEFFFFFFFFFFF4
000000001AFFFFFFFD004CFFFFFFFFFFFFFFF2
00000003EFFFFFFFF702FFFFFFFFFFFFFFFE50
0000003EFFFFFFFFF801FFFFFFFFFFFFC95100
000005EFFFFFFFFFFE10DFFFFFFFE940000000
00005FFFFFFFFEFFFF70AFFFFE410000000000
0003EFFFFFE661BFFFE12EFFFE334454000000
001DFFFFFD30002FFFF81FFFFFFFFFFE300000
009FFFFFD2000009FFFE9FFFFFFFFFFFE70000
04FFFFFB20000001EFFFFFFFFFFFFFFFFC0000
0BFFFFE1000000008FFFFFFFFFFFFFFFA10000
2FFFFF60000000005FFFFFFFEDFEEDA3000000
6FFFFB0000000000BFFFFFFF30000000000000
9FFFF5000000005DFFFFFFF900000000000000
9FFFF30000037DFFFFFFFFF200001169DA0000
9FFFFFCBCEFFFFFFFFFFFFFCBBDFFFFFFFB100
4FFFFFFFFFFFFFFFFFFFFFFFFFFFFFFFFFF600
0BFFFFFFFFFFFFFFFFDFFFFFFFFFFFFFFFE200
01CFFFFFFFFFFFFD932FFFFFFFFFFFFFFD3000
001AFFFFFFFFDA500005EFFFFFFFFEC8500000
00002556774000000000035665311000000000
ENDCHAR
STARTCHAR Scaron
ENCODING 352
SWIDTH 576 0
DWIDTH 21 0
BBX 25 39 0 -1
BITMAP
00000000077000000005900000
000000005FF80000006FF80000
00000000EFFFB00008FFFF1000
00000003FFFFF9007FFFFF5000
00000000BFFFFF75FFFFFC2000
0000000008FFFFFFFFFF900000
00000000007FFFFFFFF9000000
000000000006FFFFFF80000000
0000000000004EFFE600000000
00000000000001782000000000
00000000000000000000000000
00000000000000002333100000
00000000000038BEFFFFFD4000
00000000159EFFFFFFFFFFD100
0000007BEFFFFFFFFFFFFFF800
00017DFFFFFFFFFFFFFFFFFE20
007EFFFFFFFFFFFFFFFFFFFFA0
09FFFFFFFFFFFFFFFFFFFFFE50
4FFFFFFFFFFFA7412532235200
6FFFFFFFFF9100000000000000
8FFFFFFFFFFB60000000000000
7FFFFFFFFFFFFA300000000000
4FFFFFFFFFFFFFE20000000000
06FFFFFFFFFFFFF90000000000
0016ACDFFFFFFFFD3000000000
00000000339EFFFFC000000000
0000000000016DFFF800000000
00000000000007FFFC00000000
0000000000003EFFFD00000000
000000000002DFFFFD00000000
00000000029FFFFFF900000000
000000039FFFFFFFF200000000
003568DFFFFFFFFF7000000000
00DFFFFFFFFFFFFA0000000000
00EFFFFFFFFFFF900000000000
00EFFFFFFFFFD5000000000000
00CFFFFFFFE700000000000000
006FFFFFB61000000000000000
00056632000000000000000000
ENDCHAR
STARTCHAR scaron
ENCODING 353
SWIDTH 463 0
DWIDTH 17 0
BBX 21 35 0 -1
BITMAP
000003A100000002A30000
00002DFC2000003DFD1000
00008FFFE20003EFFF7000
0000CFFFFD102EFFFFB000
00006FFFFFC2DFFFFE5000
000003EFFFFFFFFFD20000
0000002EFFFFFFFD200000
00000002DFFFFFC1000000
000000001BFFFA10000000
0000000000494000000000
0000000000000000000000
0000000000000000000000
000000000002589A973000
0000000038CFFFFFFFE100
0000027DFFFFFFFFFFFA00
0016CFFFFFFFFFFFFFFF30
03DFFFFFFFFFFFFFFFFFA0
2EFFFFFFFFFEA8CBAABA20
6FFFFFFFD6200000000000
8FFFFFFFFA400000000000
7FFFFFFFFFF92000000000
3FFFFFFFFFFFC000000000
03BFFFFFFFFFF300000000
00003468BFFFFD10000000
00000000028EFF90000000
00000000000AFFE0000000
00000000006FFFF0000000
0000000018FFFFD0000000
00000017EFFFFF70000000
00446AEFFFFFFD10000000
03FFFFFFFFFFE200000000
03FFFFFFFFFC2000000000
03FFFFFFFE700000000000
01DFFFFD71000000000000
0038864000000000000000
ENDCHAR
STARTCHAR Ydieresis
ENCODING 376
SWIDTH 493 0
DWIDTH 18 0
BBX 21 38 1 -2
BITMAP
0000000051000000311000
000000BEFB10000CFFF700
000006FFFFB1000FFFFF70
000009FFFFF6000FFFFFB0
00000AFFFFE2001FFFFF50
000006FFFD300006DFE700
0000004762000000162000
0000000000000000000000
0000000000000000000000
0040000000000000371000
09FC40000000002BFF9000
0EFFFB20000002EFFFFC20
0EFFFF9000001DFFFFFF80
0BFFFFD00001BFFFFFFF90
08FFFFF2000CFFFFFFFD10
09FFFFF5004FFFFFFFC200
06FFFFF801EFFFFFFE1000
04FFFFFC0BFFFFFFD30000
01FFFFFD9FFFFFFF600000
00DFFFFFFFFFFFF5000000
009FFFFFFFFFFF90000000
003FFFFFFFFFFE20000000
000CFFFFFFFFF500000000
0004FFFFFFFFC000000000
00008FFFFFFF5000000000
00009FFFFFF90000000000
0003FFFFFFE10000000000
000BFFFFFF500000000000
004FFFFFFC000000000000
00BFFFFFF3000000000000
04FFFFFFB0000000000000
0CFFFFFF40000000000000
2FFFFFF900000000000000
7FFFFFE100000000000000
4FFFFF8000000000000000
0BFFFE1000000000000000
019EF40000000000000000
0000100000000000000000
ENDCHAR
STARTCHAR Zcaron
ENCODING 381
SWIDTH 664 0
DWIDTH 24 0
BBX 27 41 -1 -2
BITMAP
00000000000005A000000003A100
0000000000003EFA1000004EFB00
000000000000BFFFD10005FFFF40
000000000000FFFFFC004FFFFF80
0000000000008FFFFFA3EFFFFD30
00000000000005FFFFFFFFFFC100
000000000000004EFFFFFFFB1000
0000000000000004EFFFFFA00000
00000000000000002CFFF8000000
0000000000000000006830000000
0000000000000000000000000000
0000000000000000000000000000
0000000000000000000000000000
000000278ACCCA88899879950000
000000BFFFFFFFFFFFFFFFFF8000
000000BFFFFFFFFFFFFFFFFFE300
0000009FFFFFFFFFFFFFFFFFFE00
0000004FFFFFFFFFFFFFFFFFFE00
0000000AFFFFFFFFFFFFFFFFFB00
0000000088764335FFFFFFFFE300
000000000000003EFFFFFFFE3000
00000000000006FFFFFFFFA20000
0000000000019FFFFFFFF6000000
00000000003CFFFFFFFF50000000
0000000019FFFFFFFFF700000000
00000005EFFFFFFFFF6000000000
0000009FFFFFFFFFE40000000000
00003BFFFFFFFFFA100000000000
0006FFFFFFFFFE50000000000000
00BFFFFFFFFFB100000000000000
05FFFFFFFFE60000000000000000
0CFFFFFFFD300000016CE6000000
1FFFFFFFA1000159CFFFFF310000
4FFFFFFF60279EFFFFFFFFE60000
5FFFFFFFFFFFFFFFFFFFFFF60000
4FFFFFFFFFFFFFFFFFFFFF800000
0CFFFFFFFFFFFFFFFFFFB3000000
03FFFFFFFFFFFFFFFD7200000000
008FFFFFFFFFF9C7300000000000
00079FFFFFC94000000000000000
0000056630000000000000000000
ENDCHAR
STARTCHAR zcaron
ENCODING 382
SWIDTH 547 0
DWIDTH 20 0
BBX 24 37 -1 -2
BITMAP
000000000077000000005900
0000000005FF80000006FF80
000000000EFFFB00008FFFF1
000000003FFFFF9007FFFFF5
000000000BFFFFF75FFFFFC2
00000000008FFFFFFFFFF900
000000000007FFFFFFFF9000
0000000000006FFFFFF80000
00000000000004EFFE600000
000000000000001782000000
000000000000000000000000
000000000000000000000000
000000000000000000000000
000000124553122211310000
000008FFFFFFFFFFFFFF6000
00000AFFFFFFFFFFFFFFD200
000008FFFFFFFFFFFFFFFB00
000003FFFFFFFFFFFFFFFB00
0000007FEDCA9CFFFFFFF600
0000000000003FFFFFFF8000
000000000006FFFFFFE50000
00000000019FFFFFFC100000
000000004DFFFFFFC1000000
0000001AFFFFFFFD10000000
000004EFFFFFFFB100000000
00007FFFFFFFF70000000000
002CFFFFFFFC300000000000
03FFFFFFFF80000000000000
0AFFFFFFD300000055000000
1FFFFFFA1000369EFF600000
4FFFFFE2048DFFFFFFD90000
5FFFFFFFFFFFFFFFFFF90000
3FFFFFFFFFFFFFFFFF910000
0AFFFFFFFFFFFFFE93000000
02EFFFFFFFFDEA5000000000
003AEFFFFC61000000000000
000036530000000000000000
ENDCHAR
STARTCHAR circumflex
ENCODING 710
SWIDTH 754 0
DWIDTH 27 0
BBX 15 10 8 18
BITMAP
0000006CA2000000
00001BFFFE600000
0002DFFFFFF70000
002DFFFFFFFF8000
03EFFFFDFFFFF900
5FFFFFD17FFFFFC0
7FFFFE2008FFFFF0
2FFFE300009FFF90
07FC10000006FD10
0061000000005200
ENDCHAR
STARTCHAR caron
ENCODING 711
SWIDTH 754 0
DWIDTH 27 0
BBX 15 10 8 18
BITMAP
01A3000000009500
0AFE4000001AFE30
4FFFF60001CFFFB0
8FFFFF400BFFFFF0
3DFFFFE3AFFFFF90
01BFFFFFFFFFF500
001BFFFFFFFF4000
0000AFFFFFE40000
000008FFFD200000
0000002860000000
ENDCHAR
STARTCHAR breve
ENCODING 728
SWIDTH 754 0
DWIDTH 27 0
BBX 15 9 8 19
BITMAP
01A3000000009500
0AFE30000009FE30
3FFFF40000BFFFA0
8FFFFF967CFFFFF0
5FFFFFFFFFFFFFC0
03EFFFFFFFFFF900
002DFFFFFFFF8000
000049DFEB720000
0000000100000000
ENDCHAR
STARTCHAR dotaccent
ENCODING 729
SWIDTH 754 0
DWIDTH 27 0
BBX 7 7 12 20
BITMAP
00024000
06CFE400
0FFFFE40
3FFFFFC0
4FFFFF70
0EFFF700
02764000
ENDCHAR
STARTCHAR ring
ENCODING 730
SWIDTH 754 0
DWIDTH 27 0
BBX 11 12 10 18
BITMAP
000000050000
000002CF9000
00004DFFF300
0005FFFFF200
006FFFFFF900
03FFFFFFFF20
0CFFF87FFF90
4FFFC28FFFD0
7FFFFFFFFFF0
7FFFFFFFFF90
2EFFFFFFE800
03BDEDA71000
ENDCHAR
STARTCHAR ogonek
ENCODING 731
SWIDTH 754 0
DWIDTH 27 0
BBX 15 12 10 -10
BITMAP
0035000000000000
03FF200000000000
0CFF200000000000
3FFF200000000000
4FFF400000000000
3FFF700000000000
1FFFD30000000000
0AFFFFEB99877000
02EFFFFFFFFFFA00
003DFFFFFFFFFF30
00019DFFFFFFF900
0000002579875000
ENDCHAR
STARTCHAR tilde
ENCODING 732
SWIDTH 754 0
DWIDTH 27 0
BBX 18 7 7 20
BITMAP
00029CDDA200049BB2
005FFFFFFE504FFFF5
03FFFFFFFFE6EFFFE1
0CFFFFFFFFFFFFFF50
6FFFF9AFFFFFFFFA00
DFFFC01BFFFFFFB100
7CA710007CDDB60000
ENDCHAR
STARTCHAR hungarumlaut
ENCODING 733
SWIDTH 754 0
DWIDTH 27 0
BBX 21 11 5 16
BITMAP
00000002B4000000098000
0000003DFE400001AFF800
000007FFFFD0003EFFFF30
00006FFFFFF402EFFFFF90
0006FFFFFFF42DFFFFFF90
005FFFFFFE52DFFFFFF810
03FFFFFFC21CFFFFFE5000
1EFFFFFB10BFFFFFE30000
1EFFFF9000AFFFFD200000
0EFFE600009FFFA1000000
07EA2000003EC500000000
ENDCHAR
STARTCHAR endash
ENCODING 8211
SWIDTH 588 0
DWIDTH 21 0
BBX 19 7 0 6
BITMAP
00000001122332000000
1689BEFFFFFFFFFEA300
6FFFFFFFFFFFFFFFFD40
5FFFFFFFFFFFFFFFFFF0
2FFFFFFFFFFFFFFFFFA0
09FFFFDBAAA998763100
00673100000000000000
ENDCHAR
STARTCHAR emdash
ENCODING 8212
SWIDTH 878 0
DWIDTH 32 0
BBX 30 7 0 6
BITMAP
000000135555566666765432000000
0CDEEFFFFFFFFFFFFFFFFFFFFC8100
4FFFFFFFFFFFFFFFFFFFFFFFFFFC60
0FFFFFFFFFFFFFFFFFFFFFFFFFFFF7
08FFFFFFFFFFFFFFFFFFFFFFFFFD93
007EFFDBA987666666655544320000
000011000000000000000000000000
ENDCHAR
STARTCHAR quoteleft
ENCODING 8216
SWIDTH 203 0
DWIDTH 7 0
BBX 9 12 3 16
BITMAP
0000510000
002DFE8200
00CFFFFF30
06FFFFFF40
0CFFFFFA00
1FFFFFE200
6FFFFF7000
BFFFFE0000
BFFFF80000
AFFFF20000
6FFFE00000
0269700000
ENDCHAR
STARTCHAR quoteright
ENCODING 8217
SWIDTH 199 0
DWIDTH 7 0
BBX 9 12 2 16
BITMAP
0000210000
0003EE8300
0008FFFF80
000BFFFFC0
001FFFFFD0
005FFFFFA0
00AFFFFF50
02FFFFFD00
0BFFFFF500
5FFFFFB000
2DFFFD2000
017EB10000
ENDCHAR
STARTCHAR quotesinglbase
ENCODING 8218
SWIDTH 204 0
DWIDTH 7 0
BBX 9 13 -4 -7
BITMAP
0000100000
0006E93000
000EFFFC10
003FFFFF40
007FFFFF60
00BFFFFF30
02FFFFFE00
08FFFFF800
2EFFFFD100
BFFFFF5000
AFFFFB0000
06DF900000
0003000000
ENDCHAR
STARTCHAR quotedblleft
ENCODING 8220
SWIDTH 410 0
DWIDTH 15 0
BBX 16 13 3 15
BITMAP
0003300000033000
006FFB51009FFB51
01EFFFF806FFFFFA
08FFFFF91EFFFFFA
0EFFFFF25FFFFFF2
2FFFFFA0AFFFFF80
5FFFFF30EFFFFD10
9FFFFB04FFFFF600
BFFFF604FFFFE000
AFFFF103FFFF9000
8FFFD001EFFF5000
3DFFC000049A2000
0025300000000000
ENDCHAR
STARTCHAR quotedblright
ENCODING 8221
SWIDTH 425 0
DWIDTH 15 0
BBX 18 12 2 16
BITMAP
000021000000030000
0003EE830000AFC500
0008FFFF8002FFFFD0
000BFFFFC007FFFFF1
001FFFFFD00DFFFFE1
005FFFFFA04FFFFFA0
00AFFFFF50CFFFFF40
02FFFFFD05FFFFFA00
0BFFFFF52EFFFFE100
5FFFFFB0BFFFFF5000
2DFFFD207FFFF80000
017EB10004CE500000
ENDCHAR
STARTCHAR quotedblbase
ENCODING 8222
SWIDTH 430 0
DWIDTH 16 0
BBX 17 13 -4 -7
BITMAP
000010000000100000
0006E9300002BC6100
000EFFFC1008FFFE40
003FFFFF400DFFFF80
007FFFFF604FFFFF90
00BFFFFF30AFFFFF40
02FFFFFE02FFFFFD00
08FFFFF80AFFFFF500
2EFFFFD15FFFFFA000
BFFFFF53FFFFFD1000
AFFFFB03EFFFE50000
06DF90003BFD300000
000300000030000000
ENDCHAR
STARTCHAR bullet
ENCODING 8226
SWIDTH 299 0
DWIDTH 11 0
BBX 8 9 1 6
BITMAP
007C7200
0AFFFE20
5FFFFFB2
CFFFFFF7
9FFFFFFB
9FFFFFF2
8FFFFFC0
2EFFDB70
02310000
ENDCHAR
STARTCHAR ellipsis
ENCODING 8230
SWIDTH 768 0
DWIDTH 28 0
BBX 26 7 -1 -1
BITMAP
01730000000462000000064100
0BFFEA10001DFFE800004FFFD4
AFFFFF4002DFFFFF0004EFFFFB
DFFFFF2002FFFFFD0006FFFFF8
8FFFFC0000CFFFF80001FFFFF3
3FFFF700007FFFE30000BFFFD1
05ED40000008EB1000001BE900
ENDCHAR
STARTCHAR perthousand
ENCODING 8240
SWIDTH 889 0
DWIDTH 32 0
BBX 32 26 1 0
BITMAP
00000019400000000000042000000000
000002EFE30000000001AF7000000000
00006EFFF6000000002DFF7000000000
0007FFFFF700000002DFFF5000000000
006FFFFFFE1000001DFFFF2000000000
03FFFFDFFF800001CFFFFB0000000000
0BFFF71EFFD0001DFFFFC10000000000
2FFFF7AFFFF300BFFFFB100000000000
4FFFFFFFFFF30BFFFFA0000000000000
2FFFFFFFFFA1BFFFF900000000000000
08FFFFFFC61CFFFF8000000000000000
0058996301CFFFF80000000000000000
000000000BFFFF800000000000000000
00000001BFFFF9000000000000000000
0000001CFFFF9005E6000000004C9000
000002DFFFF8007FFF40000005FFF700
00003EFFFF700BFFFF4000009FFFF700
0004EFFFF601BFFFFF90000AFFFFFB00
003EFFFF600BFFFFFFF2008FFFFFFF40
01DFFFF5006FFFEAFFF904FFFF9FFFC0
08FFFF5000DFFF21FFFE0BFFF50DFFF1
0EFFFD0003FFFFBEFFFF4FFFFBDFFFF5
5FFFF60005FFFFFFFFFF3FFFFFFFFFF3
7FFFF40002EFFFFFFFE50DFFFFFFFF60
7FFFB000005FFFFFD72003EFFFFE8300
2ADA1000000145510000001455200000
ENDCHAR
STARTCHAR guilsinglleft
ENCODING 8249
SWIDTH 322 0
DWIDTH 12 0
BBX 12 17 -1 -1
BITMAP
000000000340
000000006FF3
00000006FFF7
0000007FFFF7
00002AFFFFE2
0006DFFFFE30
079FFFFFE300
3FFFFFFC2000
5FFFFF800000
3FFFF9000000
0DFFFF910000
03FFFFFD2000
004EFFFFC000
0003DFFFF400
00001CFFFB00
0000005DFE00
000000018700
ENDCHAR
STARTCHAR guilsinglright
ENCODING 8250
SWIDTH 341 0
DWIDTH 12 0
BBX 12 17 -1 -1
BITMAP
005200000000
02FE60000000
01FFFD500000
009FFFF70000
003FFFFFA000
0007FFFFFA00
00006EFFFF60
000002DFFFD0
000005EFFFF2
00019FFFFFF1
002DFFFFFD90
02EFFFFE9000
1DFFFFC30000
AFFFF8000000
AFFF70000000
9FF700000000
1A6000000000
ENDCHAR
STARTCHAR fraction
ENCODING 8260
SWIDTH 541 0
DWIDTH 19 0
BBX 20 28 0 -1
BITMAP
00000000000000000340
00000000000000007FD0
0000000000000006FFF1
000000000000004FFFF2
00000000000001EFFFF1
0000000000000BFFFFE0
0000000000009FFFFF70
000000000004FFFFF900
00000000001DFFFFB000
0000000000BFFFFC1000
0000000009FFFFD10000
000000007FFFFE300000
00000004FFFFF5000000
0000001DFFFF80000000
000000BFFFFC00000000
000009FFFFD200000000
00008FFFFE3000000000
0006FFFFF50000000000
005FFFFF700000000000
02EFFFFA000000000000
0AFFFFC0000000000000
1FFFFE20000000000000
5FFFF900000000000000
8FFFF500000000000000
9FFFF400000000000000
7FFFF400000000000000
3FFF9000000000000000
02570000000000000000
ENDCHAR
STARTCHAR Euro
ENCODING 8364
SWIDTH 565 0
DWIDTH 20 0
BBX 21 22 -1 0
BITMAP
0000000000000004860000
000000000000019FFFB000
0000000000017EFFFFFC00
00000000004DFFFFFFFF30
000000003CFFFFFFFFFF10
00000005EFFFFFFFFFF600
0000007FFFFFFFFFE93000
000004FFFFFFFFA4000000
00002EFFFFFFE400000000
0000BFFFFFF81000000000
0015FFFFFFDBA874000000
5FFFFFFFFFFFFFFF900000
8FFFFFFFFFFFFFFFFB0000
5FFFFFFFFFFFFFFFFC0000
0DFFFFFFDDDCCB97400000
0298EFFF62000000000000
0000AFFFFFDB9887650000
00003FFFFFFFFFFFFF9000
000007FFFFFFFFFFFFF500
0000005EFFFFFFFFFFF600
000000028CFFFFFFFF7000
0000000000147897740000
ENDCHAR
STARTCHAR Delta
ENCODING 8710
SWIDTH 403 0
DWIDTH 15 0
BBX 22 23 -2 -1
BITMAP
000000001567889A864000
000007DEFFFFFFFFFFFD10
00000DFFFFFFFFFFFFFFD1
00000BFFFFFFFFFFFFFFF2
000006FFFFFFFFFFEDB830
000000ADA7EFFFC0000000
0000000001FFFF80000000
0000000004FFFF40000000
0000000009FFFE10000000
000000000EFFFB00000000
000000003FFFF600000000
000000009FFFF200000000
00000001EFFFD000000000
00000006FFFF9000000000
0000000BFFFF3000000000
0000003FFFFC0000000000
000000AFFFF60000000000
001356FFFFFEE700000000
1EFFFFFFFFFFFFA1000000
2FFFFFFFFFFFFFF2000000
0EFFFFFFFFFFFF90000000
08FFFFCA89754300000000
0176410000000000000000
ENDCHAR
STARTCHAR minus
ENCODING 8722
SWIDTH 548 0
DWIDTH 20 0
BBX 20 7 -1 6
BITMAP
00000001112332100000
0578AEFFFFFFFFFEC500
2FFFFFFFFFFFFFFFFF60
0FFFFFFFFFFFFFFFFFF4
0DFFFFFFFFFFFFFFFFC2
05FFFFECBAA998764200
00474100000000000000
ENDCHAR
STARTCHAR approxequal
ENCODING 8776
SWIDTH 323 0
DWIDTH 12 0
BBX 10 27 1 -1
BITMAP
000008F700
0000BFFB00
0003FFFF10
0008FFFFA0
000FFFFFD0
002FFFFFE0
009FFFFFF5
008FFFFFF4
00CFFFFFE0
01FFFFFF90
05FFFFFF30
09FFFFFE00
0DFFFFFA00
2FFFFFF600
4FFFFFF200
5FFFFFE000
6FFFFFC000
6FFFFFA000
8FFFFF9000
AFFFFF9000
7FFFFF9000
3FFFFFA000
0EFFFFC000
09FFFFD000
04FFFFB000
00DFFD3000
0013300000
ENDCHAR
STARTCHAR fi
ENCODING 64257
SWIDTH 810 0
DWIDTH 29 0
BBX 29 23 -1 -1
BITMAP
0000000000001479BCC91000054000
00000000037CFFFFFFFFB101BFC000
00000049DFFFFFFFFFFFFC06FFF200
00049EFFFFFFFFFFFFFFFF2BFFFB00
004FFFFFFFFFFFFFECAAA61FFFFC00
005FFFFFFFFFB7410000006FFFFE10
003EFFFFFFA100000000008FFFFF40
0006FFFFFF400000000000AFFFFD00
00003EFFFE100000000000EFFFF800
00002FFFF9000000000003FFFFF300
00217FFFF5002456100007FFFFE000
1AFDEFFFFFDFFFFF70000BFFFFA000
8FFFFFFFFFFFFFFFF2000EFFFF6000
9FFFFFFFFFFFFFFFB0001FFFFF3000
5FFFFFFFFFFFFFFC10001FFFFF1000
0AFFFFFFFDA8530000002FFFFE0000
00EFFFE41000000000005FFFFD0000
03FFFF800000000000003FFFFD0000
06FFFF400000000000000EFFFF0000
07FFFD0000000000000009FFFF1000
03FFFE0000000000000004FFFF2000
008FF90000000000000000DFFB0000
000460000000000000000036500000
ENDCHAR
STARTCHAR fl
ENCODING 64258
SWIDTH 1012 0
DWIDTH 36 0
BBX 37 23 -1 -1
BITMAP
0000000000001479BCC91003A4000000000000
00000000037CFFFFFFFFB109FFE90000000000
00000049DFFFFFFFFFFFFC0DFFFF6000000000
00049EFFFFFFFFFFFFFFFF5FFFFFA000000000
004FFFFFFFFFFFFFECAAA67FFFFF4000000000
005FFFFFFFFFB741000000CFFFFD0000000000
003EFFFFFFA10000000003FFFFF70000000000
0006FFFFFF400000000008FFFFF10000000000
00003EFFFE10000000000EFFFFC00000000000
00002FFFF900000000004FFFFF500000000000
00217FFFF50024561000AFFFFE000000000000
1AFDEFFFFFDFFFFF7001EFFFFA000000000000
8FFFFFFFFFFFFFFFF204FFFFF4000000000000
9FFFFFFFFFFFFFFFB00AFFFFD0000000000000
5FFFFFFFFFFFFFFC100EFFFF80000000000000
0AFFFFFFFDA85300002FFFFF40000000000000
00EFFFE410000000005FFFFF327ABCDDC70000
03FFFF8000000000005FFFFFFFFFFFFFFFD710
06FFFF4000000000002FFFFFFFFFFFFFFFFF60
07FFFD0000000000000CFFFFFFFFFFFFFFFF90
03FFFE00000000000004FFFFFFFFFFFFFFFF80
008FF900000000000000BFFFFFEA6533365300
00046000000000000000047873000000000000
ENDCHAR
STARTCHAR .notdef
ENCODING -1
SWIDTH 370 0
DWIDTH 13 0
BBX 1 1 0 0
BITMAP
00
ENDCHAR
ENDFONT
